<?xml version="1.0" standalone="no"?>
<!DOCTYPE svg PUBLIC "-//W3C//DTD SVG 1.1//EN" "http://www.w3.org/Graphics/SVG/1.1/DTD/svg11.dtd" >
<svg>
<metadata>
Created by FontForge 20110222 at Sat Aug  2 16:09:46 2014
 By Orthosie Webhosting
Copyright (c) 2014 byIRAN Sharpi.www.moslemebrahimi.com. All rights reserved.
</metadata>
<defs>
<font id="IRANSharp" horiz-adv-x="0" >
  <font-face 
    font-family="IRAN Sharp"
    font-weight="400"
    font-stretch="normal"
    units-per-em="2048"
    panose-1="2 11 6 6 3 8 4 2 2 4"
    ascent="1638"
    descent="-410"
    x-height="1062"
    cap-height="1466"
    bbox="-704 -1301 3891 2189"
    underline-thickness="102"
    underline-position="-103"
    unicode-range="U+0020-FEFC"
  />
<missing-glyph horiz-adv-x="1229" 
d="M102 -362v1806h1024v-1806h-1024zM217 -248h795v1577h-795v-1577z" />
    <glyph glyph-name="uni06440627.isol" unicode="&#xfedf;&#xfe8e;" horiz-adv-x="1022" arabic-form="isolated" 
d="M918 354q-30 -81 -64 -140t-71.5 -100.5t-77 -70t-80.5 -48.5t-82 -35.5t-81 -31.5q-25 -3 -63.5 -1.5t-81.5 5t-86 9.5t-79 13t-59.5 15t-26.5 16q2 6 46.5 18.5t114.5 33.5t157.5 51.5t175.5 72.5q-91 216 -176 396t-154 321q-39 82 -77.5 157t-75.5 144q28 50 52 89
q10 16 19.5 32t18 27.5t14 18t7.5 5.5q2 -2 22 -46t53 -116.5t75 -166.5t87.5 -196.5t90.5 -206.5t84 -195q11 -26 24.5 -59.5t18.5 -71.5q5 -24 3.5 -48.5t-3.5 -46.5q45 28 84 78t74 111q1 20 0.5 55t-2 77.5t-4 89t-4.5 88t-4 75t-3 51.5q-8 115 -17 209t-17 162
q-10 79 -18 141q43 40 78 72q15 13 29 25.5t26 22t19.5 14t9.5 2.5q3 -9 7 -52t8 -108.5t8 -149t7 -174t4.5 -183t1 -177t-3 -155.5t-8.5 -118z" />
    <glyph glyph-name="uni06440627.fina" unicode="&#xfee0;&#xfe8e;" horiz-adv-x="1191" arabic-form="final" 
d="M1192 206h17v-206h-17q-46 4 -84.5 26.5t-70 57t-57 77t-44.5 86.5q-41 -62 -95 -118t-114.5 -101.5t-123 -77.5t-119.5 -45q-26 -3 -64 -1.5t-81 5t-86.5 9.5t-79.5 13t-59.5 15t-26.5 15q2 6 46 18.5t114 33.5t157 51.5t176 72.5q-91 216 -172 392t-150 317
q-41 81 -79.5 155.5t-73.5 144.5q26 54 48 95q9 18 18.5 34t17 28.5t12.5 19t7 4.5t22 -45.5t53 -116t75 -166.5t87.5 -196.5t91 -206t84.5 -194.5q11 -27 24.5 -61t18.5 -72q4 -23 3 -47.5t-3 -47.5q45 24 87.5 58.5t94.5 93.5q4 28 4.5 68t-1 85t-4.5 92t-6.5 88.5
t-7 74.5t-5.5 50q-12 113 -26 206t-26 161q-14 79 -27 142q44 44 79 78q15 15 29.5 29t26.5 24.5t20.5 17t11.5 6.5q3 -1 7.5 -33t9.5 -87t10 -128t10 -154t10 -166.5t8.5 -165t6 -149.5t3.5 -120q6 -27 22 -65.5t42.5 -75t63.5 -64.5t85 -34z" />
    <glyph glyph-name="uni06440623.isol" unicode="&#xfedf;&#xfe84;" horiz-adv-x="1018" arabic-form="isolated" 
d="M918 354q-30 -81 -64 -140t-71.5 -100.5t-77 -70t-80.5 -48.5t-82 -35.5t-81 -31.5q-25 -3 -63.5 -1.5t-81.5 5t-86 9.5t-79 13t-59.5 15t-26.5 16q2 6 46.5 18.5t114.5 33.5t157.5 51.5t175.5 72.5q-91 216 -176 396t-154 321q-39 82 -77.5 157t-75.5 144q28 50 52 89
q10 16 19.5 32t18 27.5t14 18t7.5 5.5q2 -2 22 -46t53 -116.5t75 -166.5t87.5 -196.5t90.5 -206.5t84 -195q11 -26 24.5 -59.5t18.5 -71.5q5 -24 3.5 -48.5t-3.5 -46.5q45 28 84 78t74 111q1 20 0.5 55t-2 77.5t-4 89t-4.5 88t-4 75t-3 51.5q-8 115 -17 209t-17 162
q-10 79 -18 141q43 40 78 72q15 13 29 25.5t26 22t19.5 14t9.5 2.5q3 -9 7 -52t8 -108.5t8 -149t7 -174t4.5 -183t1 -177t-3 -155.5t-8.5 -118zM47 1359l27 87l116 65q-7 4 -22.5 16.5t-32 31.5t-30 44t-15.5 55q-2 29 17 68t49.5 74.5t68 60t72.5 24.5q50 0 94 -24t80 -88
l-26 -13q-9 5 -42 16t-90 11q-29 0 -56 -13.5t-48 -31t-34 -34.5t-13 -24q0 -8 10 -26t31 -36.5t55 -34.5t82 -20q30 4 53 8t42.5 8t36.5 8.5t35 9.5q1 1 -3.5 -14.5t-9.5 -33.5q-6 -22 -14 -49q-9 -2 -19.5 -3.5t-25.5 -4.5t-36.5 -8t-51.5 -12q-43 -9 -77 -19t-67.5 -23.5
t-70.5 -31.5t-85 -43z" />
    <glyph glyph-name="uni06440623.fina" unicode="&#xfee0;&#xfe84;" horiz-adv-x="1182" arabic-form="final" 
d="M1192 206h17v-206h-17q-46 4 -84.5 26.5t-70 57t-57 77t-44.5 86.5q-41 -62 -95 -118t-114.5 -101.5t-123 -77.5t-119.5 -45q-26 -3 -64 -1.5t-81 5t-86.5 9.5t-79.5 13t-59.5 15t-26.5 15q2 6 46 18.5t114 33.5t157 51.5t176 72.5q-91 216 -172 392t-150 317
q-41 81 -79.5 155.5t-73.5 144.5q26 54 48 95q9 18 18.5 34t17 28.5t12.5 19t7 4.5t22 -45.5t53 -116t75 -166.5t87.5 -196.5t91 -206t84.5 -194.5q11 -27 24.5 -61t18.5 -72q4 -23 3 -47.5t-3 -47.5q45 24 87.5 58.5t94.5 93.5q4 28 4.5 68t-1 85t-4.5 92t-6.5 88.5
t-7 74.5t-5.5 50q-12 113 -26 206t-26 161q-14 79 -27 142q44 44 79 78q15 15 29.5 29t26.5 24.5t20.5 17t11.5 6.5q3 -1 7.5 -33t9.5 -87t10 -128t10 -154t10 -166.5t8.5 -165t6 -149.5t3.5 -120q6 -27 22 -65.5t42.5 -75t63.5 -64.5t85 -34zM47 1377l27 87l116 65
q-7 4 -22.5 16.5t-32 31.5t-30 44t-15.5 55q-2 29 17 68t49.5 74.5t68 60t72.5 24.5q50 0 94 -24t80 -88l-26 -13q-9 5 -42 16t-90 11q-29 0 -56 -13.5t-48 -31t-34 -34.5t-13 -24q0 -8 10 -26t31 -36.5t55 -34.5t82 -20q30 4 53 8t42.5 8t36.5 8.5t35 9.5q1 1 -3.5 -14.5
t-9.5 -33.5q-6 -22 -14 -49q-9 -2 -19.5 -3.5t-25.5 -4.5t-36.5 -8t-51.5 -12q-43 -9 -77 -19t-67.5 -23.5t-70.5 -31.5t-85 -43z" />
    <glyph glyph-name="uni06440625.isol" unicode="&#xfedf;&#xfe88;" horiz-adv-x="1039" arabic-form="isolated" 
d="M918 354q-30 -81 -64 -140t-71.5 -100.5t-77 -70t-80.5 -48.5t-82 -35.5t-81 -31.5q-25 -3 -63.5 -1.5t-81.5 5t-86 9.5t-79 13t-59.5 15t-26.5 16q2 6 46.5 18.5t114.5 33.5t157.5 51.5t175.5 72.5q-91 216 -176 396t-154 321q-39 82 -77.5 157t-75.5 144q28 50 52 89
q10 16 19.5 32t18 27.5t14 18t7.5 5.5q2 -2 22 -46t53 -116.5t75 -166.5t87.5 -196.5t90.5 -206.5t84 -195q11 -26 24.5 -59.5t18.5 -71.5q5 -24 3.5 -48.5t-3.5 -46.5q45 28 84 78t74 111q1 20 0.5 55t-2 77.5t-4 89t-4.5 88t-4 75t-3 51.5q-8 115 -17 209t-17 162
q-10 79 -18 141q43 40 78 72q15 13 29 25.5t26 22t19.5 14t9.5 2.5q3 -9 7 -52t8 -108.5t8 -149t7 -174t4.5 -183t1 -177t-3 -155.5t-8.5 -118zM430 -616l27 87l116 65q-7 4 -22.5 16.5t-32 31.5t-30 44t-15.5 55q-2 29 17 68t49.5 74.5t68 60t72.5 24.5q50 0 94 -24t80 -88
l-26 -13q-9 5 -42 16t-90 11q-29 0 -56 -13.5t-48 -31t-34 -34.5t-13 -24q0 -8 10 -26t31 -36.5t55 -34.5t82 -20q30 4 53 8t42.5 8t36.5 8.5t35 9.5q1 1 -3.5 -14.5t-9.5 -33.5q-6 -22 -14 -49q-9 -2 -19.5 -3.5t-25.5 -4.5t-36.5 -8t-51.5 -12q-43 -9 -77 -19t-67.5 -23.5
t-70.5 -31.5t-85 -43z" />
    <glyph glyph-name="uni06440625.fina" unicode="&#xfee0;&#xfe88;" horiz-adv-x="1181" arabic-form="final" 
d="M1192 206h17v-206h-17q-46 4 -84.5 26.5t-70 57t-57 77t-44.5 86.5q-41 -62 -95 -118t-114.5 -101.5t-123 -77.5t-119.5 -45q-26 -3 -64 -1.5t-81 5t-86.5 9.5t-79.5 13t-59.5 15t-26.5 15q2 6 46 18.5t114 33.5t157 51.5t176 72.5q-91 216 -172 392t-150 317
q-41 81 -79.5 155.5t-73.5 144.5q26 54 48 95q9 18 18.5 34t17 28.5t12.5 19t7 4.5t22 -45.5t53 -116t75 -166.5t87.5 -196.5t91 -206t84.5 -194.5q11 -27 24.5 -61t18.5 -72q4 -23 3 -47.5t-3 -47.5q45 24 87.5 58.5t94.5 93.5q4 28 4.5 68t-1 85t-4.5 92t-6.5 88.5
t-7 74.5t-5.5 50q-12 113 -26 206t-26 161q-14 79 -27 142q44 44 79 78q15 15 29.5 29t26.5 24.5t20.5 17t11.5 6.5q3 -1 7.5 -33t9.5 -87t10 -128t10 -154t10 -166.5t8.5 -165t6 -149.5t3.5 -120q6 -27 22 -65.5t42.5 -75t63.5 -64.5t85 -34zM608 -569l27 87l116 65
q-7 4 -22.5 16.5t-32 31.5t-30 44t-15.5 55q-2 29 17 68t49.5 74.5t68 60t72.5 24.5q50 0 94 -24t80 -88l-26 -13q-9 5 -42 16t-90 11q-29 0 -56 -13.5t-48 -31t-34 -34.5t-13 -24q0 -8 10 -26t31 -36.5t55 -34.5t82 -20q30 4 53 8t42.5 8t36.5 8.5t35 9.5q1 1 -3.5 -14.5
t-9.5 -33.5q-6 -22 -14 -49q-9 -2 -19.5 -3.5t-25.5 -4.5t-36.5 -8t-51.5 -12q-43 -9 -77 -19t-67.5 -23.5t-70.5 -31.5t-85 -43z" />
    <glyph glyph-name="uni06440622.isol" unicode="&#xfedf;&#xfe82;" horiz-adv-x="1153" arabic-form="isolated" 
d="M1020 354q-30 -81 -64 -140t-71.5 -100.5t-77 -70t-80.5 -48.5t-82 -35.5t-81 -31.5q-25 -3 -63.5 -1.5t-81.5 5t-86 9.5t-79 13t-59.5 15t-26.5 16q2 6 46.5 18.5t114.5 33.5t157.5 51.5t175.5 72.5q-91 216 -176 396t-154 321q-39 82 -77.5 157t-75.5 144q28 50 52 89
q10 16 19.5 32t18 27.5t14 18t7.5 5.5q2 -2 22 -46t53 -116.5t75 -166.5t87.5 -196.5t90.5 -206.5t84 -195q11 -26 24.5 -59.5t18.5 -71.5q5 -24 3.5 -48.5t-3.5 -46.5q45 28 84 78t74 111q1 20 0.5 55t-2 77.5t-4 89t-4.5 88t-4 75t-3 51.5q-8 115 -17 209t-17 162
q-10 79 -18 141q43 40 78 72q15 13 29 25.5t26 22t19.5 14t9.5 2.5q3 -9 7 -52t8 -108.5t8 -149t7 -174t4.5 -183t1 -177t-3 -155.5t-8.5 -118zM174 1399q5 24 15.5 55.5t24 59.5t30.5 48t35 21q34 2 71 -1.5t75 -8t76.5 -9t76.5 -4.5q28 0 53 4.5t46 11.5t37.5 14.5
l27.5 12.5l14 -17q-10 -17 -29.5 -40.5t-46 -45t-60 -38.5t-70.5 -20q-31 -4 -64.5 -2t-66.5 6t-62.5 8t-51.5 4q-21 0 -38 -7.5t-31 -18t-24.5 -23t-17.5 -23.5z" />
    <glyph glyph-name="uni06440622.fina" unicode="&#xfee0;&#xfe82;" horiz-adv-x="1189" arabic-form="final" 
d="M1192 206h17v-206h-17q-46 4 -84.5 26.5t-70 57t-57 77t-44.5 86.5q-41 -62 -95 -118t-114.5 -101.5t-123 -77.5t-119.5 -45q-26 -3 -64 -1.5t-81 5t-86.5 9.5t-79.5 13t-59.5 15t-26.5 15q2 6 46 18.5t114 33.5t157 51.5t176 72.5q-91 216 -172 392t-150 317
q-41 81 -79.5 155.5t-73.5 144.5q26 54 48 95q9 18 18.5 34t17 28.5t12.5 19t7 4.5t22 -45.5t53 -116t75 -166.5t87.5 -196.5t91 -206t84.5 -194.5q11 -27 24.5 -61t18.5 -72q4 -23 3 -47.5t-3 -47.5q45 24 87.5 58.5t94.5 93.5q4 28 4.5 68t-1 85t-4.5 92t-6.5 88.5
t-7 74.5t-5.5 50q-12 113 -26 206t-26 161q-14 79 -27 142q44 44 79 78q15 15 29.5 29t26.5 24.5t20.5 17t11.5 6.5q3 -1 7.5 -33t9.5 -87t10 -128t10 -154t10 -166.5t8.5 -165t6 -149.5t3.5 -120q6 -27 22 -65.5t42.5 -75t63.5 -64.5t85 -34zM171 1397q5 24 15.5 55.5
t24 59.5t30.5 48t35 21q34 2 71 -1.5t75 -8t76.5 -9t76.5 -4.5q28 0 53 4.5t46 11.5t37.5 14.5l27.5 12.5l14 -17q-10 -17 -29.5 -40.5t-46 -45t-60 -38.5t-70.5 -20q-31 -4 -64.5 -2t-66.5 6t-62.5 8t-51.5 4q-21 0 -38 -7.5t-31 -18t-24.5 -23t-17.5 -23.5z" />
    <glyph glyph-name="uni06440671.isol" unicode="&#xfedf;&#xfb51;" horiz-adv-x="1035" 
d="M918 325q-30 -81 -64 -140t-71.5 -100.5t-77 -70t-80.5 -48.5t-82 -35.5t-81 -31.5q-25 -3 -63.5 -1.5t-81.5 5t-86 9.5t-79 13t-59.5 15t-26.5 16q2 6 46.5 18.5t114.5 33.5t157.5 51.5t175.5 72.5q-91 216 -176 396t-154 321q-39 82 -77.5 157t-75.5 144q28 50 52 89
q10 16 19.5 32t18 27.5t14 18t7.5 5.5q2 -2 22 -46t53 -116.5t75 -166.5t87.5 -196.5t90.5 -206.5t84 -195q11 -26 24.5 -59.5t18.5 -71.5q5 -24 3.5 -48.5t-3.5 -46.5q45 28 84 78t74 111q1 20 0.5 55t-2 77.5t-4 89t-4.5 88t-4 75t-3 51.5q-8 115 -17 209t-17 162
q-10 79 -18 141q43 40 78 72q15 13 29 25.5t26 22t19.5 14t9.5 2.5q3 -9 7 -52t8 -108.5t8 -149t7 -174t4.5 -183t1 -177t-3 -155.5t-8.5 -118zM751 1505q-5 -28 -26 -53t-45 -54q-21 -14 -40.5 -20.5t-37 -9t-33 -2t-27.5 0.5q-33 3 -65.5 13t-61 21t-51.5 19.5t-36 8.5
q-8 0 -19.5 -6t-24.5 -15.5t-26 -21t-23 -21.5l-37 30q54 65 93.5 100.5t59.5 36.5q8 -2 18 -5.5t36 -11.5q60 74 117 115t95 40q9 0 32 -15.5t46.5 -39.5t41 -53t14.5 -57zM698 1502q-9 16 -22 30.5t-27 25t-28 16t-25 4.5q-31 -3 -65.5 -26.5t-78.5 -55.5
q10 -5 39.5 -12.5t66 -10.5t74.5 2.5t66 26.5z" />
    <glyph glyph-name="uni06440671.fina" unicode="&#xfee0;&#xfb51;" horiz-adv-x="1190" 
d="M1192 206h17v-206h-17q-46 4 -84.5 26.5t-70 57t-57 77t-44.5 86.5q-41 -62 -95 -118t-114.5 -101.5t-123 -77.5t-119.5 -45q-26 -3 -64 -1.5t-81 5t-86.5 9.5t-79.5 13t-59.5 15t-26.5 15q2 6 46 18.5t114 33.5t157 51.5t176 72.5q-91 216 -172 392t-150 317
q-41 81 -79.5 155.5t-73.5 144.5q26 54 48 95q9 18 18.5 34t17 28.5t12.5 19t7 4.5t22 -45.5t53 -116t75 -166.5t87.5 -196.5t91 -206t84.5 -194.5q11 -27 24.5 -61t18.5 -72q4 -23 3 -47.5t-3 -47.5q45 24 87.5 58.5t94.5 93.5q4 28 4.5 68t-1 85t-4.5 92t-6.5 88.5
t-7 74.5t-5.5 50q-12 113 -26 206t-26 161q-14 79 -27 142q44 44 79 78q15 15 29.5 29t26.5 24.5t20.5 17t11.5 6.5q3 -1 7.5 -33t9.5 -87t10 -128t10 -154t10 -166.5t8.5 -165t6 -149.5t3.5 -120q6 -27 22 -65.5t42.5 -75t63.5 -64.5t85 -34zM793 1524q-5 -28 -26 -53
t-45 -54q-21 -14 -40.5 -20.5t-37 -9t-33 -2t-27.5 0.5q-33 3 -65.5 13t-61 21t-51.5 19.5t-36 8.5q-8 0 -19.5 -6t-24.5 -15.5t-26 -21t-23 -21.5l-37 30q54 65 93.5 100.5t59.5 36.5q8 -2 18 -5.5t36 -11.5q60 74 117 115t95 40q9 0 32 -15.5t46.5 -39.5t41 -53t14.5 -57z
M740 1521q-9 16 -22 30.5t-27 25t-28 16t-25 4.5q-31 -3 -65.5 -26.5t-78.5 -55.5q10 -5 39.5 -12.5t66 -10.5t74.5 2.5t66 26.5z" />
    <glyph glyph-name="allah" unicode="&#x627;&#xfedf;&#xfee0;&#xfeea;" horiz-adv-x="2060" arabic-form="isolated" 
d="M1093 1418q8 65 -4 115t-29 80l69 56q4 -15 9 -43.5t7 -61t-0.5 -65t-12.5 -55.5q-9 -7 -17 -13q-7 -5 -13.5 -9.5t-8.5 -3.5zM1874 -26q-8 -11 -11.5 -8.5t-3.5 7.5q-4 295 -12.5 536.5t-19.5 419.5q-3 51 -7.5 115t-8.5 121q-4 66 -9 134q47 44 85 78q16 15 32 28.5
t29 24t22 16t11 4.5q1 -1 3 -5t3 -11t2 -20q2 -100 2.5 -201t-0.5 -206q0 -89 -1.5 -195.5t-5 -219t-9 -224t-13.5 -208.5q-18 -41 -35 -77q-14 -31 -29 -62t-24 -47zM1630 1163q14 -132 25.5 -231.5t20.5 -177t15.5 -138.5t11 -115t6.5 -106.5t1 -113.5q-3 -21 -7.5 -45.5
t-10.5 -49.5t-13.5 -48.5t-16.5 -42.5q-40 -37 -74.5 -56.5t-65 -28t-58.5 -9.5t-55 -1q-40 0 -74 14t-62.5 35t-51 47t-40 51.5t-30 47.5t-19.5 35q-23 -51 -49.5 -95t-63.5 -75t-88.5 -48t-124.5 -14q-40 1 -73.5 17t-62 41t-50.5 55.5t-38 60.5t-25.5 56.5t-12.5 42.5
l-125 -111q-6 -2 -31.5 -2.5t-64.5 4t-87 15t-97 30.5q-10 15 -17 39t-10.5 53t-3.5 60.5t4 60t12.5 53t21.5 38.5q25 27 68 55.5t92.5 57t100 56t91.5 52.5q-2 17 -2 30t-1 23l-1 19q18 17 33.5 33t31.5 30q13 11 25.5 21t23.5 17.5t19.5 10.5t11.5 1q9 -178 17 -324
q3 -62 6.5 -123.5t7 -112t6 -86t4.5 -45.5q35 -24 72 -33t84 -11q14 0 33.5 1.5t36.5 3.5q20 2 41 5q35 15 61.5 41.5t51.5 63.5q1 13 2 18.5t1.5 11t1.5 15.5t2 33v65t-0.5 96.5t-2 112t-3.5 112.5t-4.5 98t-5.5 67q0 1 16.5 19t37.5 39.5t39.5 40.5t23.5 21q8 3 9 -9
q0 -2 1 -19.5t2 -44t2.5 -59t2.5 -64.5t1.5 -60.5t0.5 -46.5q-2 -69 0.5 -126.5t5 -104t4.5 -81.5t1 -59q4 -32 17 -61.5t33.5 -53.5t47.5 -41.5t60 -25.5q18 -5 39 -9q18 -3 41.5 -4.5t49.5 2.5q11 2 26 7.5t30 13.5t28 16.5t21 16.5q3 21 -1.5 52t-3.5 60q-2 68 -9 145
t-17 154t-21.5 149t-21.5 130t-17.5 97.5t-9.5 51.5q35 34 63 60q12 11 24 21.5t21.5 19t16.5 13t9 3.5q5 -2 5 -11t1 -15zM170 440q-5 -45 26 -72t85 -40t122.5 -15t138.5 1q-5 49 -9.5 88t-8.5 72.5t-7.5 64.5t-5.5 65q-57 -25 -111 -43t-99 -36t-79 -37.5t-52 -47.5z
M1301 1493q3 0 12.5 -24t18.5 -58.5t15.5 -74t4.5 -69.5q-17 -55 -45 -92.5t-75 -43.5q-30 0 -56.5 11t-40.5 43q-9 -17 -20.5 -31t-28 -24t-39.5 -15.5t-54 -3.5q-40 5 -62 23.5t-31.5 43.5t-9 54t6 56.5t13.5 49.5t13 34l30 -12q-1 -2 -2 -5t-3 -13q-11 -55 1.5 -94
t54.5 -47q28 3 46.5 19.5t31 40.5t19.5 53t13 57l36 3q4 -22 5.5 -43t-6.5 -55q7 -23 25 -38t47 -14q6 0 19.5 1t28.5 5.5t28 13t17 23.5q0 19 -8 43.5t-18.5 47t-20.5 39.5t-14 22l20 37q8 14 16 25.5t12 11.5z" />
    <glyph glyph-name="riyal" unicode="&#x631;&#xfef3;&#xfe8e;&#x644;" horiz-adv-x="2680" arabic-form="isolated" 
d="M1798 -156l-138 -138l-142 144l141 143l138 -138l138 138l142 -144l-142 -143zM2316 741q9 -7 26 -42.5t36.5 -87.5t40 -113.5t36 -120.5t24.5 -109t6 -79q-8 -77 -35 -154t-66 -150t-87.5 -140.5t-98.5 -125.5t-98 -105.5t-87.5 -80t-66.5 -48t-34 -11.5
q-20 12 -48.5 35t-54.5 46q-31 27 -62 58q-11 10 -7 13.5t8 5.5q79 30 156 79.5t146 109t129 124.5t106 125t75.5 111t38.5 83q-12 43 -33.5 90t-49 96.5t-59 99.5t-63.5 100q16 31 35.5 66t37.5 64t31.5 46.5t17.5 14.5zM1207 390v-43.5v-63.5t-0.5 -73t-1.5 -72.5
t-1.5 -62.5t-0.5 -42q-2 -150 -35.5 -261t-108 -184t-193.5 -109t-293 -36q-113 3 -204 31.5t-155.5 84t-100 139t-35.5 196.5t37 257t118 321l68 -43q-28 -68 -53 -141.5t-42.5 -144t-25.5 -134t-1 -111.5q2 -20 8.5 -44t21.5 -49.5t41.5 -50t69.5 -44.5t105 -33.5
t148 -16.5q143 -5 253.5 14t182.5 75t101.5 154.5t11.5 251.5q-3 44 -5.5 75.5t-4.5 56.5t-3.5 46.5t-3.5 45.5t-4 53t-6 69q-2 26 -5 78.5t-6.5 122t-8 150t-8.5 163.5t-7.5 162.5t-6.5 146t-5 115t-3 69.5q0 5 10 17.5t25.5 28t35 32t38 31t33.5 25t22 12.5q2 0 4 -1
q3 -3 4.5 -35t2 -84.5t0 -120.5t-1.5 -141.5t-2 -148t-1 -140.5q0 -78 -1 -159.5t-2 -159.5t-2.5 -148.5t-2.5 -125.5zM2006 1040q4 1 20.5 -33.5t36 -95t38 -143t26.5 -176t0.5 -195t-39.5 -199.5q-8 -13 -36.5 -28.5t-67 -30t-80 -26t-74.5 -17.5q-13 -2 -35 -2.5
t-44 -1.5q-26 -1 -55 -1v2h-16q-39 0 -77 12t-70 29.5t-55 36.5t-32 34q-8 12 -18 37t-19 55.5t-15 61.5t-6 55q0 75 -2.5 162.5t-6.5 180.5t-9.5 186.5t-10.5 180.5q-13 202 -29 411q12 11 36.5 35.5t50 48.5t46 40t22.5 12q5 -4 6.5 -13t1.5 -16q12 -208 15.5 -378.5
t4 -313.5t-0.5 -263t1 -227q0 -30 1 -50.5t2 -35t2.5 -25t3.5 -19.5q19 -11 42.5 -17t46.5 -9t44 -4t35 -1l40 -1h39.5t44 0.5t40 1t27.5 2.5q17 4 41 9t46.5 11t39.5 13t21 14q4 18 -3.5 57.5t-22 89.5t-33 104.5t-37 103t-33.5 85t-22 50.5q33 55 60 99q12 19 23 37
t20.5 32t16 23t8.5 10z" />
    <glyph glyph-name="uni0621" unicode="&#x621;" horiz-adv-x="973" arabic-form="isolated" 
d="M51 -140l49 154l208 118q-14 8 -42 30.5t-57.5 56t-53 78t-27.5 97.5q-2 34 13 77.5t42 88.5t63.5 88t78.5 76.5t86 54t86 20.5q45 0 87 -9.5t81 -33t75 -62t68 -95.5l-46 -24q-8 4 -27 12t-49 16t-70 14t-90 6q-35 0 -68 -11.5t-63 -29t-55 -39t-43 -42t-28.5 -37
t-10.5 -24.5q0 -15 17 -46.5t55 -65t98 -62t146 -35.5q54 7 95 14.5t75.5 15t65 15t62.5 15.5q1 1 -1 -6.5t-5.5 -19.5t-8 -27.5t-8.5 -31.5q-11 -39 -25 -87q-15 -3 -34 -6.5t-46 -8.5t-65.5 -13.5t-92.5 -21.5q-77 -17 -137.5 -34.5t-120 -41.5t-125 -56t-152.5 -77z" />
    <glyph glyph-name="uni0627" unicode="&#x627;" horiz-adv-x="426" arabic-form="isolated" 
d="M188 -16q-8 -11 -11.5 -8.5t-3.5 7.5q-4 295 -12.5 536.5t-19.5 419.5q-3 51 -7.5 115t-8.5 121q-4 66 -9 134q47 44 85 78q16 15 32 28.5t29 24t22 16t11 4.5q1 -1 3 -5t3 -11t2 -20q2 -100 2.5 -201t-0.5 -206q0 -89 -1.5 -195.5t-5.5 -219t-9.5 -224t-12.5 -208.5
q-18 -41 -35 -77q-14 -31 -29 -62t-24 -47z" />
    <glyph glyph-name="uni0627.fina" unicode="&#x627;" horiz-adv-x="551" arabic-form="final" 
d="M506 0q-39 0 -77 12t-70 29.5t-55 36.5t-32 34q-8 12 -18 37t-19 55.5t-15 61.5t-6 55q0 75 -2.5 156.5t-6.5 165t-9 165t-10 155.5q-12 173 -28 344q11 11 36 35.5t51 48t46 40t22 12.5q5 -4 6.5 -13.5t1.5 -16.5q8 -138 12.5 -248.5t7.5 -201t4 -165.5t1.5 -143
t1 -133.5t1.5 -136.5q1 -30 2 -50.5t2 -35.5t2.5 -25.5t2.5 -19.5q19 -11 40.5 -19.5t43 -15t41 -10t33.5 -3.5h40v-206h-50z" />
    <glyph glyph-name="uni062D" unicode="&#x62d;" horiz-adv-x="1402" arabic-form="isolated" 
d="M1338 451q-181 0 -327.5 -22.5t-262.5 -61t-204 -90t-151 -110t-102.5 -121.5t-59.5 -123q18 -98 66 -170t117.5 -121.5t155 -79.5t178 -44t186.5 -14.5t181 8t162 24.5t128 34v-2q-11 -29 -22.5 -59t-21.5 -55q-11 -29 -22 -56q-74 -38 -166 -62.5t-192.5 -33.5
t-203.5 -1.5t-199 34t-179 72.5t-142.5 114t-90.5 159t-23 207v1q10 53 27.5 117t50 131.5t84.5 135t132 126.5t192 106.5t264 74.5l28 3q-55 18 -113 37t-113 36.5t-104.5 32.5t-87.5 26.5t-61 18t-25 6.5q-5 0 -14 -2t-22.5 -10t-31 -23.5t-38.5 -42.5q-16 -20 -30 -41
t-30 -43l-68 45q39 67 71 122.5t64.5 95.5t68.5 62.5t84 23.5q45 1 101 -16.5t123 -44.5t146 -60.5t170 -64.5t195.5 -56.5t222.5 -36.5q5 2 0 -15q-7 -17 -21.5 -45.5t-30.5 -56.5q-18 -33 -39 -69z" />
    <glyph glyph-name="uni062D.init" unicode="&#x62d;" horiz-adv-x="1260" arabic-form="initial" 
d="M-104 103q2 38 18.5 59t35.5 31q22 11 50 13q43 -1 104 3.5t135 15.5t157.5 29t171 45t176 63t171.5 83l50 28q-55 18 -122.5 40t-137.5 44.5t-136.5 43.5t-119 37.5t-85.5 26.5t-35 10q-5 0 -14.5 -2t-23 -10t-31 -24t-38.5 -43q-15 -19 -29 -40t-30 -43l-61 51
q39 67 70 121.5t62 93t66 60t83 22.5q45 1 100.5 -16t122 -44t144.5 -60t168.5 -64t194 -56t221.5 -36q0 -11 -7 -28.5t-17.5 -38t-23 -41t-23 -37.5t-17.5 -28t-6 -12q-62 -26 -141 -66t-173 -84.5t-201 -89t-224.5 -80t-243.5 -58t-257 -22.5q-27 1 -49 12
q-19 10 -36 30.5t-19 60.5z" />
    <glyph glyph-name="uni062D.medi" unicode="&#x62d;" horiz-adv-x="1359" arabic-form="medial" 
d="M1311 206h80v-206h-80q-79 0 -130.5 12.5t-86 34t-56.5 49.5t-42 59q-6 17 -10 31t-7 26.5t-5 26t-4 30.5q-97 -44 -211 -92t-238.5 -87.5t-256.5 -64.5t-264 -25q-27 1 -49 12q-19 10 -36 31t-19 60q2 38 18.5 59t35.5 31q22 11 50 13q64 -2 169 9.5t234 42t273.5 82.5
t288.5 133q-55 18 -122.5 40.5t-137.5 45t-136.5 43.5t-119 37.5t-85.5 26.5t-35 10q-5 0 -14.5 -2t-23 -10t-31 -24t-38.5 -43q-15 -19 -29 -40.5t-30 -42.5l-66 44q39 67 70.5 122.5t63.5 95.5t68 62.5t84 23.5q45 1 100.5 -16t122 -44t144.5 -60t168.5 -64t194 -56.5
t221.5 -36.5q5 -2 3 -8q-1 -4 -3 -7q-7 -17 -22 -45.5t-31 -56.5q-18 -33 -41 -68q-18 -4 -36.5 -13.5t-39 -21.5t-43 -24.5t-47.5 -23.5q8 -47 34.5 -70t61.5 -32t73 -8.5t68 -0.5z" />
    <glyph glyph-name="uni062D.fina" unicode="&#x62d;" horiz-adv-x="1479" arabic-form="final" 
d="M1413 206h80v-206h-80q-87 0 -146 16.5t-97.5 46t-59.5 70t-31 90.5t-13.5 107t-5.5 118q-201 -23 -348 -76.5t-248.5 -124.5t-161.5 -153t-86 -161q18 -98 66 -169.5t117.5 -121.5t155 -79.5t178 -43.5t187 -14.5t181.5 8t162 24.5t128 34q1 -1 0 -2q-11 -29 -22.5 -59
t-21.5 -55q-11 -29 -22 -56q-74 -38 -166.5 -62.5t-193 -33.5t-204.5 -1.5t-200 34t-179 72.5t-142.5 114t-91 159t-23.5 207q12 57 30 123t51 133.5t85 133.5t131.5 124t191.5 104t264 74l29 3q-55 18 -113 37t-113.5 36t-105 32.5t-87.5 26.5t-61 18t-25 7q-5 0 -14 -2
t-22.5 -10t-31 -23.5t-38.5 -42.5q-15 -20 -29 -41t-31 -43l-64 39q39 67 70.5 123.5t63 97.5t67 64.5t83.5 24.5q46 0 102 -17t123 -44.5t145.5 -61t170 -64.5t195.5 -56t222 -36q0 -10 -6.5 -27.5t-17 -38t-22.5 -41.5l-22 -38.5t-17 -28.5t-6 -12q-43 0 -84 -1.5
t-80 -3.5q0 -69 18.5 -116.5t52 -77.5t80 -43.5t103.5 -13.5z" />
    <glyph glyph-name="uni062F" unicode="&#x62f;" horiz-adv-x="939" arabic-form="isolated" 
d="M283 889q28 48 53 86q10 16 20.5 31.5t19 27.5t15 19.5t9.5 7.5t32.5 -24t73 -66t95 -98.5t99.5 -121.5t86.5 -136t55.5 -141q3 -12 7 -52.5t2.5 -94.5t-11 -114.5t-33.5 -113.5q-4 -9 -23.5 -26t-60 -34t-104 -30t-155.5 -13q-71 0 -131.5 7t-105 17t-70.5 19t-28 14
q-13 25 -20.5 60t-10.5 67t-1 54.5t8 22.5t28.5 -8t64.5 -18.5t103.5 -19t144.5 -8.5q55 1 104 3t91 11t75.5 28t56.5 54q-9 47 -38.5 100.5t-72 109t-93.5 110.5t-102.5 104.5t-99.5 92t-84 73.5z" />
    <glyph glyph-name="uni0631" unicode="&#x631;" horiz-adv-x="764" arabic-form="isolated" 
d="M512 622l1 -1q9 -7 25.5 -38.5t36 -78t39.5 -104t35.5 -116.5t24 -115t5.5 -100q-7 -92 -38.5 -178t-75.5 -162t-96 -139.5t-99 -109t-83.5 -70.5t-51.5 -25q-2 0 -6 2q-20 12 -57.5 32t-74.5 40q-44 23 -93 49q-11 9 -6.5 13t8.5 6q79 30 151 73t134.5 93.5t113.5 104
t88.5 104.5t59.5 96t27 78q-25 86 -75 170.5t-115 183.5q15 30 34 63.5t36.5 62t31.5 47.5t20 19z" />
    <glyph glyph-name="uni0631.fina" unicode="&#x631;" horiz-adv-x="953" arabic-form="final" 
d="M949 206h14v-206h-43q-50 0 -84 2.5t-59 7.5t-43 12t-37 17v-8q-10 -95 -45 -181.5t-81.5 -160.5t-99 -133.5t-99 -100t-80 -61t-41.5 -16.5q-21 10 -58.5 29.5t-73.5 39.5q-42 23 -89 49q-11 10 -6.5 13.5t7.5 5.5q79 30 152 75.5t136.5 98.5t115 110t88 110.5t57 100
t21.5 77.5q-15 44 -33 82t-40.5 75.5t-50 79t-61.5 93.5q4 9 14 27t22 39.5t25 44t25 41t21 30t13 11.5q1 0 4 -3q4 -3 13.5 -19.5t21.5 -40.5t26 -53.5t27.5 -58.5t25.5 -54.5l20 -42.5q27 -57 96.5 -94.5t178.5 -37.5z" />
    <glyph glyph-name="uni0633" unicode="&#x633;" horiz-adv-x="2539" arabic-form="isolated" 
d="M2310 872q5 0 17 -26.5t26.5 -71t30 -102t27 -119.5t17.5 -123.5t2 -113.5q-23 -72 -51.5 -127.5t-66 -95t-85.5 -63t-110 -30.5q-57 -1 -101 18t-77 49.5t-56 69.5t-38 79q-24 -50 -48 -88.5t-55 -66t-74 -43t-104 -18.5q-22 -1 -42 0.5t-40.5 7.5t-43.5 16t-50 25l-1 2
q0 -162 -48.5 -288.5t-138.5 -213t-219.5 -129.5t-291.5 -38q-100 3 -191.5 28.5t-163 80t-117 139.5t-54 207t26 283.5t123.5 367.5l73 -37q-36 -102 -65.5 -202.5t-41.5 -193t-0.5 -172.5t58 -140t133 -96t224.5 -40q135 4 241 36.5t180.5 96t114.5 158.5t43 224
q-54 115 -90 200t-55 131q18 30 40.5 65.5t42 65t33.5 46.5t16 11q25 -60 42 -109.5t34 -95.5q28 -68 51.5 -109.5t49.5 -66t57.5 -37t76.5 -21.5q52 6 86.5 24.5t56.5 46.5t34.5 65t21 81t15.5 93.5t17 103.5l98 -4q-1 -68 -5.5 -126t-10.5 -114q9 -20 25.5 -49.5t44 -56.5
t67.5 -45.5t96 -16.5q15 1 46 3.5t64.5 13t63 32.5t41.5 63q-1 32 -10.5 69.5t-23.5 75t-31 73.5t-33 65.5t-29.5 50t-19.5 28.5q31 54 57 97q11 18 22 35.5t20.5 31t16 22t9.5 8.5z" />
    <glyph glyph-name="uni0633.init" unicode="&#x633;" horiz-adv-x="1450" arabic-form="initial" 
d="M1250 871q5 0 16 -26.5t24.5 -70.5t27 -101.5t23.5 -119t15 -123.5t1 -114q-23 -71 -51.5 -130t-66 -101t-87 -64.5t-113.5 -20.5q-56 1 -95 16t-66 40.5t-44.5 59.5t-28.5 72q-23 -43 -51.5 -78t-64 -59t-78 -37t-94.5 -12q-33 -1 -66.5 8t-62 32t-49 63t-26.5 101
q-12 -53 -40.5 -89t-64 -59.5t-73.5 -35.5t-69.5 -17.5t-52 -5.5t-20.5 1v206q84 0 139 32.5t91.5 87.5t60 127.5t45.5 153.5l81 -19q-1 -17 -4 -33q-2 -14 -5 -28.5t-5 -25.5q-29 -143 5 -215t122 -80q51 2 89 18.5t66 44t48 63.5t35.5 77.5t29.5 87.5t30 92l92 -20
q-5 -48 -17 -101.5t-28 -113.5q9 -29 19.5 -55.5t29.5 -47t49.5 -33t78.5 -12.5q26 0 58 2t63 12.5t56 32.5t37 63q-2 49 -19 107t-39.5 110.5t-44.5 92t-32 51.5l53 96q10 18 21 36t20.5 31.5t17.5 22t14 8.5z" />
    <glyph glyph-name="uni0633.medi" unicode="&#x633;" horiz-adv-x="1597" arabic-form="medial" 
d="M1378 347q32 -80 88 -111t135 -30v-206q-69 1 -116 17t-78 43t-48.5 63.5t-26.5 78.5q-52 -101 -114.5 -150t-147.5 -51q-55 1 -92 16.5t-62.5 41.5t-43 62t-35.5 79q-21 -41 -49 -77.5t-64 -64t-79.5 -43t-95.5 -14.5q-58 2 -94.5 27.5t-59.5 63t-35 81.5t-21 82
q-35 -77 -70 -126t-75.5 -78t-89.5 -40t-112 -11v206h34q50 -1 89.5 15t71 44t57 66.5t46.5 83t40 92.5l38 96l73 -5q-2 -11 -6 -24q-3 -11 -6.5 -27t-6.5 -33q-8 -51 -5.5 -103t18.5 -95t46.5 -73t77.5 -37q77 0 126 35t82.5 92t57 129t49.5 146l72 -7q-5 -50 -18.5 -114
t-32.5 -133q7 -32 25 -59.5t42.5 -47t53 -30.5t56.5 -11q50 1 87 19.5t63.5 48.5t44 69.5t29 83.5t18.5 91t12 91l80 -2q1 -26 -0.5 -60t-5.5 -70t-9.5 -70t-12.5 -60z" />
    <glyph glyph-name="uni0633.fina" unicode="&#x633;" horiz-adv-x="2663" arabic-form="final" 
d="M2432 356q32 -80 93.5 -115t141.5 -35v-206q-100 0 -170 55.5t-121 162.5q-38 -99 -107 -157t-159 -60h-5q-66 0 -105.5 19t-62.5 50.5t-36.5 71t-28.5 78.5q-19 -49 -43 -88.5t-56.5 -68t-73 -45t-92.5 -18.5q-47 -2 -91.5 8t-96.5 42q1 -11 1 -12.5t0 1t-0.5 6.5
l-0.5 4q-2 -167 -49.5 -293t-139 -210t-225 -125.5t-305.5 -39.5q-97 4 -185.5 31t-157 82.5t-111 141.5t-49 208t29 282.5t124.5 364.5l67 -41q-39 -110 -67.5 -215t-38 -198.5t6 -172.5t65 -136.5t138.5 -89.5t227 -33q135 4 239.5 41.5t175.5 104t107 160t34 210.5
q-23 57 -46 107t-43 92t-36 75.5t-25 56.5q36 57 65 101q12 19 24 36t22 30t16.5 19.5t7.5 3.5q25 -63 42.5 -111.5t35.5 -93.5q28 -68 52 -109.5t50.5 -66.5t59 -38t77.5 -22q51 6 86.5 25.5t58.5 49t37 68t24 84t17.5 96t17.5 104.5l90 -16q-5 -58 -9 -116.5t-16 -125.5
q9 -20 22.5 -48t37 -54t60.5 -44t93 -18q52 0 92.5 33t72.5 88.5t58.5 129.5t52.5 155l83 -23q-12 -47 -19.5 -80t-13.5 -59t-10.5 -48t-9.5 -46z" />
    <glyph glyph-name="uni0635" unicode="&#x635;" horiz-adv-x="2556" arabic-form="isolated" 
d="M2191 846q64 4 110.5 -10t80 -39t54.5 -58t34 -68q29 -83 25 -189q-10 -33 -23 -72.5t-28 -79t-31.5 -76.5t-33.5 -66q-53 -56 -122.5 -94.5t-147 -62.5t-160.5 -34.5t-163 -11.5t-154 7t-133.5 22.5t-101.5 33t-58 39.5q1 -150 -43.5 -273.5t-132.5 -212t-218.5 -136.5
t-301.5 -45q-97 4 -187.5 29t-162 77.5t-118 136.5t-55.5 206t25.5 285t124.5 373l69 -39q-33 -101 -61.5 -201.5t-40.5 -193t-2 -173t55 -141t130.5 -96.5t223.5 -40q135 4 245 38.5t186.5 99t116 159.5t33.5 220q-55 116 -91 199.5t-55 129.5q18 30 40 65.5t41.5 64.5
t34 46.5t17.5 10.5q8 -20 21 -53.5t29 -74t33.5 -83t35.5 -80.5t35 -67t32 -42q33 36 83 91t111.5 117t133.5 124.5t149 114t157.5 85.5t158.5 38zM2368 339q16 74 10.5 132t-36 96.5t-87.5 55.5t-143 10q-69 -14 -136.5 -42.5t-130 -65t-118.5 -78.5t-101.5 -83.5
t-79 -79.5t-52.5 -66q18 -5 70 -14.5t125.5 -16t162.5 -6t180 15.5t178 48.5t158 93.5z" />
    <glyph glyph-name="uni0635.init" unicode="&#x635;" horiz-adv-x="1559" arabic-form="initial" 
d="M1205 830q68 4 116.5 -10.5t81.5 -42t52.5 -64t28.5 -75.5q22 -92 5 -210q-20 -66 -45 -136.5t-55 -128.5q-41 -46 -98.5 -78.5t-124.5 -53.5t-140.5 -31.5t-146.5 -12.5t-141.5 3t-127 15t-103 24t-67.5 30q-39 48 -71.5 101t-41.5 106q-20 -74 -45.5 -124t-63 -81.5
t-90.5 -45.5t-128 -15q-28 2 -51 13q-20 10 -36.5 30.5t-17.5 58.5q2 39 18 60t36 31q23 11 51 13q67 0 114 15.5t80 43.5t55 66t40 83t35 95t39 101l62 -18l-3 -12q-2 -6 -4.5 -14t-4.5 -19q-24 -120 -7.5 -195t78.5 -113q22 34 62 89.5t94 119t119.5 129.5t138.5 120.5
t150.5 91t156.5 41.5zM1377 338q16 73 11.5 129t-34.5 91.5t-86.5 50.5t-142.5 7q-69 -14 -132 -42t-119.5 -64t-104.5 -77.5t-87.5 -82t-69 -78t-48.5 -65.5q18 -5 65.5 -14t114.5 -14t148 -3.5t165 18t167 50.5t153 94z" />
    <glyph glyph-name="uni0635.medi" unicode="&#x635;" horiz-adv-x="1553" arabic-form="medial" 
d="M1409 206h156v-206h-95q-38 0 -73.5 -0.5t-48.5 0.5q-24 1 -57.5 1.5t-66 2t-59 4t-36.5 7.5q-59 -20 -127 -31t-138 -14.5t-138.5 0.5t-128.5 13.5t-107.5 24.5t-75.5 34q-44 60 -61.5 118.5t-24.5 106.5q-20 -72 -48.5 -122.5t-68.5 -82.5t-92 -47t-119 -15
q-29 3 -51 14q-20 10 -35.5 31t-17.5 59q2 39 17.5 59.5t35.5 30.5q22 11 51 12q69 0 117 15.5t81 43.5t55 66t39.5 83t33.5 95t37 102l62 -17l-3 -12q-2 -6 -3.5 -15t-3.5 -20q-25 -120 -9 -196.5t78 -114.5q22 34 62.5 90t94.5 120.5t119.5 131t138.5 121.5t151 91.5
t156 40.5q69 4 118 -11.5t82 -43t52 -64t28 -74.5q22 -91 4 -207q-17 -59 -36 -112t-45 -113zM565 209q18 -5 65.5 -13.5t114.5 -14t148 -4t165 18t167 50.5t153 94q16 74 11.5 129.5t-34 90.5t-86 49.5t-142.5 7.5q-69 -14 -132.5 -41.5t-119.5 -63.5t-104.5 -77t-88 -82
t-69 -78.5t-48.5 -65.5z" />
    <glyph glyph-name="uni0635.fina" unicode="&#x635;" horiz-adv-x="2534" arabic-form="final" 
d="M2525 206h17v-206h-17q-77 0 -136 16t-99 62q-80 -48 -174.5 -75t-191.5 -38t-191 -7.5t-171 17.5t-132 35t-74 46q0 -150 -44.5 -272.5t-132 -208.5t-218 -132.5t-301.5 -43.5q-98 3 -188.5 28t-162 78t-118 136.5t-56 205.5t25 285t124.5 373l70 -38
q-33 -101 -61.5 -201t-40.5 -192.5t-1.5 -173t55.5 -141t130.5 -97t223.5 -40.5q135 4 244.5 38.5t186 99.5t116 159.5t33.5 219.5q-54 116 -90.5 199.5t-54.5 128.5q18 30 40 65.5t41.5 65t33.5 47t17 11.5q8 -20 21 -52t29 -70t33.5 -78t35.5 -75.5t35.5 -63t32.5 -39.5
q33 36 82.5 89.5t111.5 113t134 119t149 108.5t157 81.5t159 36.5q64 3 110.5 -10.5t80 -38.5t54.5 -58t34 -68q29 -83 25 -190q-15 -50 -36 -110t-45 -114q3 -6 13 -12t23 -10.5t28.5 -7t29.5 -1.5zM1510 222q18 -5 70 -14.5t126 -16t162.5 -6t180 15.5t178.5 48.5
t158 93.5q16 73 10.5 127.5t-36 88.5t-87.5 47t-144 5q-69 -14 -136.5 -40.5t-130 -60t-118 -72.5t-101 -77.5t-79.5 -74.5t-53 -64z" />
    <glyph glyph-name="uni0637" unicode="&#x637;" horiz-adv-x="1485" arabic-form="isolated" 
d="M12 235q2 6 9 7.5t15 -0.5q36 -6 81 -13t90.5 -12.5t87 -9.5t70.5 -5l73 94q17 31 25 75t10 86q3 48 1 99q-2 76 -6 165t-10 179t-12.5 176t-13.5 155.5t-13 118t-11 63.5q10 11 36 35.5t54 49t51.5 42.5t28.5 17q2 0 4 -6t4 -29q1 -17 3 -64.5t4.5 -113t5 -144t4 -156
t2 -148.5t-0.5 -123q0 -18 -0.5 -57t-5.5 -86.5t-15.5 -97.5t-31.5 -91q61 78 128.5 152.5t140 133.5t148 94.5t151.5 35.5q87 0 145 -24t93.5 -62t52 -85t21 -93.5t0.5 -88t-9 -67.5q-20 -50 -40 -98q-17 -41 -36.5 -87.5t-34.5 -81.5q-25 -24 -68.5 -53.5t-109 -56
t-153 -45.5t-200.5 -22q-33 -1 -78.5 -1t-97.5 1t-107 3.5t-106.5 5.5t-97.5 7.5t-80 9.5q-32 18 -68 50.5t-66.5 66t-49.5 61.5t-17 38zM1303 348q6 21 11.5 51.5t5 64t-10.5 66.5t-36.5 58.5t-73 40t-118.5 12.5q-77 -3 -147 -29t-132 -65.5t-116 -89t-98 -98t-78 -92
t-56 -72.5q55 0 137.5 -3t190.5 -1q60 -2 135.5 6.5t149.5 27.5t137 49.5t99 73.5z" />
    <glyph glyph-name="uni0637.init" unicode="&#x637;" horiz-adv-x="1224" arabic-form="initial" 
d="M-104 108q0 22 9 40t23.5 31t33 20t38.5 7h109l73 97q17 31 24.5 74.5t9.5 85.5q3 48 1 99q-1 77 -5 166t-10 179t-13 175.5t-13.5 155t-13 117.5t-11.5 64q10 11 36 35.5t54 49t51.5 43t28.5 17.5q3 -1 4.5 -7t3.5 -29q1 -17 3 -64t4.5 -113t5 -144t4 -156t2 -149
t-0.5 -123q0 -18 -0.5 -57t-5 -86t-15.5 -97t-31 -91q41 48 85 97.5t90 95.5t94.5 86.5t97.5 70.5t99.5 47.5t101.5 17.5q87 0 144.5 -24t92.5 -62t50.5 -84.5t19.5 -93t-0.5 -88t-9.5 -67.5q-15 -41 -28 -74.5t-25 -64.5t-24.5 -62t-28.5 -67q-23 -26 -72 -57t-119 -57.5
t-158 -44.5t-187 -17h-503h-15q-20 0 -39 7t-33.5 20.5t-23 34t-8.5 46.5zM1046 354q6 21 12 51.5t5.5 64t-11 66.5t-37 58.5t-73 40.5t-118.5 13q-77 -3 -147 -28.5t-132 -65t-115.5 -88.5t-97.5 -97t-78 -91t-56 -72q55 -1 138.5 0t190.5 0q59 -2 134.5 4.5t149 24
t136.5 47t99 72.5z" />
    <glyph glyph-name="uni0637.medi" unicode="&#x637;" horiz-adv-x="1225" arabic-form="medial" 
d="M1067 206h210v-206h-95q-38 0 -73 -0.5t-48 0.5q-24 0 -68.5 2.5t-90.5 6.5t-85 9.5t-51 12.5q-57 -14 -119 -23t-130 -8h-517q-20 0 -39 7t-34 21t-23.5 34t-8.5 47q1 22 10 39.5t23.5 30.5t33 20t38.5 7h108l73 97q17 31 25 74.5t10 85.5q3 48 1 99q-2 77 -6.5 166
t-11 179t-14 175.5t-14 155t-12 117.5t-8.5 64q10 11 36 35.5t54 49.5t51.5 43t28.5 17q2 -1 4 -6.5t4 -28.5q1 -17 3 -64.5t4.5 -113.5t5 -144t4 -156t2 -149t-0.5 -123q0 -18 -0.5 -57t-5.5 -86.5t-15.5 -97.5t-31.5 -90q41 48 85 97.5t90 95.5t94.5 86.5t97.5 71t99.5 48
t101.5 17.5q87 -1 144.5 -25t92.5 -61.5t51 -84.5t20 -93.5t-0.5 -88t-9.5 -67.5q-14 -36 -25.5 -66.5t-22 -59t-21.5 -56t-24 -56.5zM526 207q60 -1 135.5 6t149 24t136.5 45.5t99 71.5q6 21 11.5 51.5t5 64t-10.5 66.5t-36.5 58.5t-73 40.5t-118.5 13q-77 -3 -147 -28.5
t-132 -65t-115.5 -88.5t-97.5 -97t-78 -91.5t-56 -71.5q55 -2 138 0t190 1z" />
    <glyph glyph-name="uni0637.fina" unicode="&#x637;" horiz-adv-x="1506" arabic-form="final" 
d="M1324 206h200v-206h-95q-38 0 -73 -0.5t-48 0.5q-15 0 -42 0.5t-59 1.5t-67 2.5t-66 3.5t-55.5 4.5t-36.5 5.5q-45 -12 -106.5 -19t-121.5 -9q-33 -1 -77 -0.5t-93 2.5t-101 5t-101 7t-93 9t-78 10q-21 12 -45 31t-46.5 40.5t-43.5 44.5t-36 43t-23.5 35.5t-6.5 21.5
q2 5 8.5 7t14.5 0q36 -6 81.5 -13t91 -13t87 -10t70.5 -5l73 95q17 31 25 75t10 86q3 48 1 99q-1 77 -6 165.5t-12 178t-14.5 174.5t-14.5 154.5t-12.5 118t-6.5 65.5l21 21t32 30.5t37 33.5t35.5 30.5t28.5 22t15 8.5q3 -1 5 -7t4 -29q1 -17 2.5 -64.5t3.5 -113.5t4 -144.5
t3.5 -156t2.5 -148.5t1 -122q0 -19 -0.5 -58t-5 -86t-15 -97t-31.5 -91q61 78 128.5 152.5t140 133t148 94.5t151.5 36q89 0 148 -23.5t94.5 -61.5t51 -85.5t19.5 -94t-0.5 -88t-9.5 -67.5q-16 -40 -33 -81q-14 -35 -31 -76.5t-32 -77.5zM780 195q60 -1 135.5 7t149 27
t137 49t98.5 73q6 21 12 51.5t5.5 64t-11 66.5t-37 58.5t-72.5 40.5t-118 13q-77 -3 -147 -29t-132.5 -65.5t-116 -89t-97.5 -98t-78 -92t-56 -72.5q55 -1 137.5 -3.5t190.5 -0.5z" />
    <glyph glyph-name="uni0639" unicode="&#x639;" horiz-adv-x="1214" arabic-form="isolated" 
d="M765 -510q88 0 157 11t122 26t93 30.5t71 23.5l-80 -195q-139 -63 -273 -84.5t-253.5 -9.5t-220.5 54.5t-174.5 108t-115 151.5t-42.5 185q1 49 15.5 101t40 103.5t61 101t79 93t93 80t103.5 61.5q-58 28 -98 61t-65.5 70t-37 75.5t-11.5 76.5q0 37 16.5 83t45.5 94
t67.5 93.5t82 81t89.5 57t91 21.5q47 0 92 -10.5t86.5 -35t79.5 -65t72 -101.5l-49 -25q-8 4 -28.5 12.5t-52 17t-74 15t-95.5 6.5q-37 0 -72.5 -12t-67 -31t-58.5 -42t-46.5 -44.5t-30.5 -39.5t-11 -26q0 -16 21.5 -50t65 -71t109 -68.5t154.5 -41.5q87 26 168.5 45.5
t150.5 36.5q1 1 -1.5 -7.5t-6.5 -22.5t-9.5 -32t-11.5 -37q-14 -45 -32 -101q-77 -16 -167 -40t-181 -56.5t-176 -74.5t-153 -94.5t-112 -115.5t-52 -138q28 -65 71 -120.5t115 -96.5t180 -64.5t266 -23.5z" />
    <glyph glyph-name="uni0639.init" unicode="&#x639;" horiz-adv-x="958" arabic-form="initial" 
d="M0 0q-28 1 -51 12q-20 9 -37 30t-19 61q0 29 11 49t27.5 32t35 17t33.5 5q51 2 94 3q37 1 71.5 1.5t47.5 0.5q-68 51 -96 110.5t-28 119.5q0 37 16.5 83t45.5 94t67.5 93.5t82 81t90 57t90.5 21.5q48 0 92.5 -10.5t86 -35t79.5 -65t72 -100.5l-48 -26q-8 4 -28.5 12.5
t-52 17t-74.5 15t-96 6.5q-37 0 -72 -12t-66.5 -31t-58.5 -42t-46.5 -44.5t-30.5 -39.5t-11 -26q0 -10 9 -29.5t28 -42.5t48 -48.5t68 -47.5t88 -39t108 -23q51 4 94.5 11.5t82.5 19t76.5 26.5t77.5 33q1 1 -1 -6.5t-5.5 -20.5t-8 -29.5t-9.5 -33.5q-11 -40 -27 -93
q-95 -51 -203 -81t-219 -47t-222 -25t-212 -14z" />
    <glyph glyph-name="uni0639.medi" unicode="&#x639;" horiz-adv-x="977" arabic-form="medial" 
d="M-104 104q0 22 9 40.5t23.5 32t33 21.5t38.5 8h71q57 2 109.5 4t97 6t79.5 10.5t57 18.5l-358 298q15 55 26 99q10 38 18.5 68.5t8.5 32.5q9 9 46 29t95 40t133.5 35t161.5 13q50 -1 99 -9t93.5 -20.5t82.5 -27.5t67 -31q47 -27 63 -47q-2 -20 -5.5 -41t-10.5 -43
q-12 -41 -35 -89.5t-56 -100.5t-74.5 -105.5t-91.5 -104.5q17 -9 44.5 -15t60 -10t66.5 -6t63.5 -3t51.5 -1h31v-206q-73 0 -128 -1.5t-104.5 9t-98.5 41t-110 93.5q-47 -47 -100.5 -73.5t-113 -40t-126 -19t-138.5 -9.5h-75q-20 0 -38.5 7.5t-33 21.5t-23.5 33t-9 42z
M225 627q9 -9 28 -26t44.5 -39t55 -47.5t59.5 -50.5q69 -60 151 -130q30 22 63 55.5t65 74t60 85t46 89.5q-12 9 -46 17.5t-81.5 14t-104.5 7.5t-116.5 -2t-117.5 -15.5t-106 -32.5z" />
    <glyph glyph-name="uni0639.fina" unicode="&#x639;" horiz-adv-x="1169" arabic-form="final" 
d="M361 656q9 -9 25.5 -23.5t38 -33.5t45.5 -40l48 -42q55 -49 121 -106q32 13 70.5 32.5t76 42t72 47.5t60.5 49t39.5 45.5t9.5 37.5q-12 9 -43 20.5t-76 21.5t-101.5 15t-120 1t-131 -19.5t-134.5 -47.5zM624 229q-111 -35 -203 -88t-158 -109.5t-104 -109.5t-42 -88
q28 -65 72 -125t117 -106.5t182 -74.5t267 -28q88 0 154.5 7.5t117.5 18.5t88.5 22.5t68.5 19.5l-67 -172q-139 -63 -273 -84.5t-253.5 -9.5t-220 54.5t-174 108t-115 151.5t-42.5 185q1 48 13 100.5t35 105t56 102.5t76 92q2 2 23 20.5t54.5 43t77 50t90.5 42.5l-256 224
q11 52 21 93q4 17 7.5 34t6.5 30t5 21.5l2 8.5q9 9 46.5 30t97 42.5t135.5 37t162 13.5q51 -2 106.5 -12t107 -28t94 -44t66.5 -59q0 -55 -0.5 -99t-7 -81.5t-22.5 -69.5t-46.5 -63.5t-78.5 -64.5t-119 -72q8 -6 39.5 -20.5t75 -30.5t94 -28t97.5 -12q14 -1 29 -1h28h30
v-206h-117q-31 0 -75 13t-91 33.5t-91.5 45.5t-75.5 49q-12 8 -18 12.5l-10 7.5l-8 6t-12 10t-22.5 19t-39.5 33z" />
    <glyph glyph-name="uni0643.init" unicode="&#x643;" horiz-adv-x="963" arabic-form="initial" 
d="M0 0q-12 1 -29.5 6t-34 16.5t-28.5 30.5t-12 48q1 31 12 51.5t26.5 32t33.5 16.5t32 5q107 2 195.5 0t158 8t120 40.5t82.5 96.5q-36 100 -84 189t-109 170.5t-135.5 156t-163.5 146.5l46 165q240 107 428 190q80 35 157 68.5t137.5 59t97.5 40t38 12.5q1 -6 -4 -35.5
t-12 -62.5q-8 -39 -19 -86l-644 -273q78 -82 153.5 -179.5t128.5 -214t71.5 -252.5t-17.5 -294q-53 -53 -114.5 -83.5t-137.5 -45.5t-168 -18.5t-205 -3.5z" />
    <glyph glyph-name="uni0643.medi" unicode="&#x643;" horiz-adv-x="1056" arabic-form="medial" 
d="M1073 207v-207h-17q-38 2 -67 8.5t-53 17t-45.5 24.5t-44.5 31q-26 27 -51.5 54.5t-48 53.5t-40.5 48t-30 37q-2 -17 -5 -37t-7.5 -41.5t-9 -42.5t-8.5 -39q-53 -53 -117 -77t-143 -32t-175 -6t-211 1q-11 0 -28.5 5t-34 16.5t-29 31t-12.5 48.5q1 31 12 51.5t27 32.5
t33.5 16.5t31.5 4.5q108 0 204.5 -0.5t175 9t136 34t87.5 74.5q-32 110 -81 203.5t-113 176t-142 157t-167 146.5l38 179q240 107 428 190q80 35 157 68.5t137.5 59t97.5 40t38 12.5q1 -6 -4 -35.5t-12 -62.5q-8 -39 -19 -86l-644 -273q94 -99 173.5 -220t145.5 -270
q76 -123 142 -201t119.5 -122.5t93.5 -61t65 -16.5h17z" />
    <glyph glyph-name="uni0643" unicode="&#x643;" horiz-adv-x="1815" arabic-form="isolated" 
d="M1706 1451q5 -4 9 -45t7 -109.5t4 -159t0.5 -192.5t-3.5 -211t-8.5 -214t-14 -201.5t-20.5 -173.5q-30 -29 -78 -52t-107 -40t-124.5 -29.5t-128.5 -20.5q-150 -19 -319 -24q-162 0 -293 11t-233.5 38t-176.5 71.5t-120 111.5q-9 18 -15.5 63t-2 116t24 167.5t62.5 216.5
l71 -34q-14 -68 -25.5 -135.5t-19 -124.5t-9.5 -97t5 -52q30 -30 80.5 -53.5t113.5 -41t134.5 -29.5t143.5 -18.5t141 -8t127 1.5q31 2 84 4.5t116.5 7.5t132.5 14t133 22.5t117.5 32.5t85.5 46q-1 14 -2.5 61t-4 114.5t-6 149.5t-7 167.5t-8 168.5t-9 151.5t-9.5 116.5
t-10 64q44 44 78 77q15 14 29 27.5t25.5 24t19.5 16t10 4.5zM663 453l27 86l116 66q-8 4 -23.5 16.5t-32 31.5t-29.5 43.5t-15 54.5q-1 19 7.5 43t23.5 49t35.5 49t43.5 42.5t47.5 30t48.5 11.5q50 0 93.5 -23.5t78.5 -87.5l-25 -13q-9 4 -42 15.5t-89 11.5q-29 0 -56 -13.5
t-48 -31t-33.5 -34.5t-12.5 -24q0 -8 9.5 -25.5t31 -36.5t55 -34.5t81.5 -19.5q30 4 52.5 8t42 8t36.5 8.5t35 9.5q1 1 -3.5 -14t-9.5 -33q-6 -21 -15 -49q-8 -2 -18.5 -3.5t-25.5 -4.5t-36.5 -8t-51.5 -12q-43 -9 -77 -19t-67 -23.5t-69.5 -31.5t-84.5 -43z" />
    <glyph glyph-name="uni0643.fina" unicode="&#x643;" horiz-adv-x="1915" arabic-form="final" 
d="M1898 206h39v-206h-50q-39 0 -78.5 16.5t-72.5 39t-57 46t-33 38.5q-36 -30 -86 -53t-107.5 -40.5t-119 -29.5t-120.5 -20q-138 -19 -290 -23q-162 0 -293.5 11t-234 37.5t-176.5 71t-120 112.5q-9 17 -15.5 62t-2 116t24 167.5t62.5 216.5l72 -32q-14 -67 -25.5 -135
t-19 -125t-9.5 -97t5 -52q30 -30 80.5 -53.5t113.5 -41t134.5 -30t143.5 -19t141 -8.5t127 1q31 2 85 5t118.5 9t135 15t135.5 23t119 33.5t86 46.5q-1 14 -3 60.5t-5.5 113.5t-7.5 149t-9 167t-10 167.5t-10.5 150.5t-10.5 116t-10 64q43 44 77 77q15 14 29 27.5t25.5 24
t19.5 16t10 4.5q5 -4 9 -48t6.5 -117t4 -168.5t1.5 -203t-0.5 -221t-2.5 -221.5q-1 -72 9 -119.5t26.5 -76t37 -42.5t40 -18.5t36.5 -4t26 0.5zM697 453l27 86l116 66q-8 4 -23.5 16.5t-32 31.5t-29.5 43.5t-15 54.5q-1 19 7.5 43t23.5 49t35.5 49t43.5 42.5t47.5 30
t48.5 11.5q50 0 93.5 -23.5t78.5 -87.5l-25 -13q-9 4 -42 15.5t-89 11.5q-29 0 -56 -13.5t-48 -31t-33.5 -34.5t-12.5 -24q0 -8 9.5 -25.5t31 -36.5t55 -34.5t81.5 -19.5q30 4 52.5 8t42 8t36.5 8.5t35 9.5q1 1 -3.5 -14t-9.5 -33q-6 -21 -15 -49q-8 -2 -18.5 -3.5
t-25.5 -4.5t-36.5 -8t-51.5 -12q-43 -9 -77 -19t-67 -23.5t-69.5 -31.5t-84.5 -43z" />
    <glyph glyph-name="uni0644" unicode="&#x644;" horiz-adv-x="1328" arabic-form="isolated" 
d="M1193 359v-43t-1 -62.5t-2.5 -71.5t-2.5 -71t-2 -61.5t-1 -41.5q-2 -147 -35 -256t-106 -180.5t-190 -107t-287 -35.5q-111 3 -200.5 31t-153.5 82.5t-98.5 136.5t-34.5 193.5t36.5 253t115.5 314.5l67 -42q-27 -67 -51.5 -139t-42 -141.5t-25 -132t-1.5 -110.5
q2 -19 8.5 -42.5t21.5 -48.5t41 -49t68 -43.5t103 -33t146 -16.5q145 -6 239.5 19t151.5 75.5t82.5 124.5t33.5 167.5t4.5 204.5t-4.5 235q-3 34 -7 101t-8.5 150.5t-9.5 174t-9 171t-7 143.5t-3 90q0 8 21 30t48.5 46t54 44t37.5 23q2 0 3 -1q5 -4 6 -46t0.5 -110
t-2 -156.5t-1.5 -185.5v-157.5v-157t-1 -145.5t-2 -123z" />
    <glyph glyph-name="uni0644.init" unicode="&#x644;" horiz-adv-x="540" arabic-form="initial" 
d="M-105 98q0 27 9 47t23.5 33.5t33.5 20.5t39 7h26h155q47 0 76 7.5t45 28t22 55.5t7 90q-2 81 -3.5 177t-2.5 194t-2 191t-2.5 168.5t-3.5 127t-5 65.5q42 40 75 71q14 13 28 25.5t26 22t20 15t10 4.5q5 -2 5.5 -13t0.5 -18q2 -210 0.5 -368.5t-4 -286t-5 -235
t-3.5 -215.5q-7 -51 -21.5 -106.5t-34.5 -101.5q-26 -24 -59 -44t-69.5 -33.5t-74.5 -20.5t-73 -5l-86 -1h-47q-23 0 -42 8t-33 21.5t-22 31t-8 37.5z" />
    <glyph glyph-name="uni0644.medi" unicode="&#x644;" horiz-adv-x="590" arabic-form="medial" 
d="M-105 105q1 24 10 42.5t23.5 31.5t33 20t38.5 7h123q45 0 77 2.5t52.5 18t30 49t9.5 95.5q1 21 0.5 66.5t-1.5 105.5t-2.5 131t-4 144.5t-5 145t-5.5 132.5t-6 106.5t-6 68.5l9.5 11.5t24 28t32 36t33.5 36.5t28 29t16 14q6 2 8 -0.5t4 -10.5q0 -2 1 -32.5t2 -77
t2.5 -102.5t2 -109.5t0.5 -98v-67.5q-2 -90 -3 -174t-2 -155.5t-2.5 -126t-3.5 -85.5q0 -75 43 -124.5t125 -57.5h34v-205h-44q-35 0 -66.5 10t-58.5 25.5t-50 35.5t-42 40q-39 -47 -99 -78t-125 -33h-60h-71q-20 0 -39 7.5t-34 21t-24 33t-8 43.5z" />
    <glyph glyph-name="uni0644.fina" unicode="&#x644;" horiz-adv-x="1364" arabic-form="final" 
d="M1364 206h14v-206h-14q-49 4 -92 22.5t-63 54.5q-1 -29 -1 -51.5t-1 -35.5q-8 -151 -46 -256.5t-113 -171.5t-191 -95.5t-281 -28.5q-111 0 -200.5 26.5t-152.5 80.5t-97.5 135.5t-35 193t36 254t114.5 316.5l68 -38q-27 -66 -52 -138t-42.5 -141.5t-25 -132t-1.5 -110.5
q3 -19 9 -42.5t21 -48.5t41 -49t68.5 -43.5t103 -33t145.5 -16.5q152 -6 249.5 18t154 74t80 123.5t29.5 167t1.5 205t-4.5 237.5q0 26 -2 70.5t-5 101.5t-7 122.5t-8.5 131.5t-8.5 130t-7.5 118t-5.5 95t-3 61q0 5 9.5 17.5t25 28t34.5 32t37 30.5t33 24t22 12q2 0 4 -1
q5 -4 6 -46t0.5 -110.5t-2 -157t-1.5 -185.5q0 -51 0.5 -113.5t1.5 -126.5t2 -125t2.5 -108.5t2 -76.5l0.5 -29q9 -59 21 -93t41 -51q19 -11 40.5 -15.5t45.5 -5.5z" />
    <glyph glyph-name="uni0645" unicode="&#x645;" horiz-adv-x="1162" arabic-form="isolated" 
d="M796 762q51 0 101 -39t89.5 -102t64.5 -142t26 -159q1 -78 -14 -141t-34 -109q-22 -54 -50 -96q-6 -8 -38 -3t-80 18.5t-108 34t-121.5 43t-120 45t-104.5 40t-74.5 28.5t-29.5 10q-2 -1 1.5 -41.5t11 -106t17.5 -149t21 -171.5t21 -173.5t17.5 -154t11 -113t1.5 -51.5
q-3 -7 -11.5 -21t-20 -32t-24.5 -37.5t-25.5 -37t-23 -30.5t-16.5 -18v1q-1 18 -8 71t-17.5 128.5t-24.5 166.5t-28 183t-28 179.5t-25 156.5t-18 113t-8 49q27 94 67 160q17 28 38 53t46 41t54 20t63 -10q59 91 105.5 155.5t83 107.5t66 68.5t54 39t47 18.5t45.5 7z
M951 175q19 8 28 41.5t6 79t-17 96.5t-41 93.5t-66.5 70.5t-93.5 27q-23 0 -48.5 -16.5t-51 -42.5t-50 -57t-45 -60.5t-36 -53.5t-22.5 -36q13 -5 47.5 -18.5t79.5 -30.5t94.5 -35.5t94 -32.5t77.5 -22t44 -3z" />
    <glyph glyph-name="uni0645.init" unicode="&#x645;" horiz-adv-x="970" arabic-form="initial" 
d="M637 759q43 -1 92 -34.5t90 -91t68 -135t27 -166.5q-1 -78 -18.5 -140.5t-37.5 -107.5q-25 -53 -55 -93q-11 -9 -47 -6t-85.5 15t-107 31t-112 43t-99 51t-69.5 55q-35 -63 -65.5 -98.5t-62 -53t-67 -22.5t-79.5 -6h-9q-6 0 -23 3.5t-35 14t-32.5 31t-14.5 54.5
q2 40 18.5 61.5t36.5 30.5q22 11 50 11h54q22 0 43 1t30 3q37 8 75 52t77 105t80.5 130t85.5 127t92 96.5t100 38.5zM794 206q26 44 32 90t-2.5 89.5t-28.5 82t-46.5 67.5t-56.5 46t-59 17q-31 0 -60.5 -19.5t-59 -54t-61 -81t-66.5 -100.5q13 -18 47 -37.5t77.5 -38t91 -34
t88.5 -24.5t69.5 -10.5t34.5 7.5z" />
    <glyph glyph-name="uni0645.medi" unicode="&#x645;" horiz-adv-x="1095" arabic-form="medial" 
d="M1107 206v-206h-12q-43 0 -79 20t-63 46.5t-42.5 53.5t-18.5 41q-12 -44 -32 -75.5t-40 -51.5q-23 -24 -47 -40q-11 -9 -44.5 -2.5t-79.5 22.5t-100 38.5t-104.5 46t-93.5 45t-68 36.5q-37 -65 -68 -101t-62 -53t-65.5 -21t-79.5 -5h-8q-6 0 -23 3.5t-35 14t-32.5 31
t-15.5 54.5q2 40 19 61.5t37 30.5q23 11 50 11q28 -1 54 0q22 0 43 1.5t30 3.5q37 8 74.5 51.5t77 104.5t80.5 130t85.5 127t92.5 96.5t100 38.5q38 -1 81 -27.5t81.5 -73.5t68 -110.5t40.5 -138.5q11 -36 24.5 -72t34.5 -65.5t52 -47.5t76 -18h12zM785 206q26 44 32.5 90
t-0.5 89.5t-26 82t-44.5 67.5t-55 46t-58.5 17q-31 0 -60.5 -19.5t-59 -54t-61 -80.5t-67.5 -100q13 -18 46.5 -37.5t76 -38t89.5 -34t87 -25t68 -11t33 7.5z" />
    <glyph glyph-name="uni0645.fina" unicode="&#x645;" horiz-adv-x="1234" arabic-form="final" 
d="M1242 206v-206h-8q-43 1 -80 20.5t-64 45.5t-43.5 52.5t-19.5 40.5q-12 -43 -27.5 -74.5t-29.5 -52.5q-17 -25 -33 -42q-12 -5 -46.5 2t-83.5 22t-107.5 35.5t-118.5 42.5t-116 43.5t-99.5 38.5t-70.5 27t-28 9q-2 -1 1.5 -41.5t10.5 -106t17 -149t20.5 -171.5t20.5 -173
t17.5 -153.5t11 -113t1.5 -51.5q-4 -9 -19.5 -32t-35 -47.5t-37.5 -46.5t-27 -29v1q-1 18 -7.5 71t-17.5 128.5t-24.5 166.5t-28 183t-28.5 179.5t-25 156.5t-18 113t-8 49q27 87 66 149q16 26 37 49t46 37.5t54.5 17.5t63.5 -10q89 137 149 216.5t104 119t78 50t70 9.5
q42 0 87 -29.5t85 -80t70.5 -118.5t41.5 -146q10 -35 24.5 -69.5t36 -63t53.5 -47.5t77 -22h8zM920 174q19 8 27.5 43t5.5 83t-18 101.5t-43 99t-68.5 74.5t-94.5 29q-23 0 -48.5 -16.5t-51 -42t-49.5 -56.5t-44.5 -60.5t-35.5 -54t-22 -36.5q13 -4 47.5 -19t80 -35t96 -41
t95.5 -38t78.5 -26.5t44.5 -4.5z" />
    <glyph glyph-name="uni0647" unicode="&#x647;" horiz-adv-x="830" arabic-form="isolated" 
d="M765 353q-21 -183 -115.5 -275.5t-257.5 -92.5q-70 0 -129.5 23.5t-100.5 69t-59 113t-4 154.5q5 29 23.5 78.5t44.5 107t56 117t56.5 107t46.5 78t27 30.5q3 0 35 -15t77.5 -44t98 -72.5t97.5 -100t74.5 -126.5t29.5 -152zM399 166q37 0 84 8.5t91 25.5t80 42t52 58
q-2 37 -25 75t-59 74.5t-80.5 69t-89 58.5t-84 43.5t-65.5 24.5q-80 -102 -104 -189.5t-5.5 -152t73.5 -101t132 -36.5z" />
    <glyph glyph-name="uni0647.init" unicode="&#x647;" horiz-adv-x="1226" arabic-form="initial" 
d="M-104 102q0 24 8.5 43t23 33t33.5 21t39 7h255q-51 91 -62.5 186.5t10.5 187.5q18 34 37 64.5t37.5 54.5t34.5 42t28 28l-84 36q36 48 67 86q13 16 26 31t24 26.5t19.5 18t12.5 5.5t38.5 -13.5t88 -35t121 -54.5t138.5 -72t140 -87t125.5 -99.5t94.5 -110.5t47 -119
q-8 -42 -16.5 -86.5t-20 -87.5t-26 -83.5t-33.5 -75.5q-47 -27 -103.5 -39t-115.5 -13.5t-115.5 4.5t-103 15t-79.5 18t-45 13q-21 -15 -55.5 -24t-77 -14t-89 -7t-91.5 -2t-84.5 0.5t-66.5 0.5h-76q-21 0 -40 7.5t-33.5 21t-22.5 32t-8 41.5zM551 674q-45 3 -90.5 -7.5
t-84 -33t-67 -56t-40.5 -76.5q16 -61 46.5 -103t70.5 -71t87 -47.5t95 -31.5q5 1 16 14.5t23 30.5t24.5 35t20.5 28q13 36 7.5 79.5t-22.5 87.5t-40.5 84t-45.5 67zM1102 231q11 43 -4.5 83.5t-47 76.5t-73 67.5t-82.5 57t-77 43.5t-55 28q9 -27 13.5 -60.5t4 -68.5
t-6 -68.5t-16.5 -60.5q-4 -13 -15.5 -32.5t-25.5 -39.5q-16 -23 -35 -48q22 -8 57.5 -14t76.5 -9.5t84.5 -3t82.5 6t70.5 15.5t48.5 27z" />
    <glyph glyph-name="uni0647.medi" unicode="&#x647;" horiz-adv-x="787" arabic-form="medial" 
d="M0 206q30 0 60 4t76 6q5 82 22 160t40.5 148.5t52 131.5t58 109.5t56.5 82.5t49 49q24 -8 49.5 -34.5t50 -65t46 -86.5t37 -99t22.5 -102.5t2 -97.5q-29 -88 -60.5 -156.5t-75 -117.5t-102 -78.5t-139.5 -39.5q11 -48 20.5 -82t20 -61t23 -49t29.5 -45.5t39.5 -50
t52.5 -62.5q0 12 -0.5 21t-1.5 18.5t-2.5 21t-1.5 27.5q-1 47 7 106t44 122q19 32 43.5 62.5t52 56.5t56 45.5t55.5 30.5q27 12 53 17.5t53 7.5h12v-206h-12q-33 0 -62 -7t-57 -18q-24 -9 -47 -20t-45.5 -29t-42.5 -44.5t-38 -65.5q0 -35 4.5 -69.5t20 -66.5t46.5 -61.5
t85 -54.5l-89 -165q-123 76 -200.5 147.5t-124 144.5t-69.5 151.5t-38 169.5q-15 -3 -34 -6q-17 -2 -41 -4t-55 -2q-20 0 -38.5 6t-33 19t-23.5 31.5t-10 44.5q0 23 9 42t24 33t34 22t38 8zM409 659q-19 -7 -47.5 -45t-55.5 -97.5t-47.5 -136.5t-21.5 -163q47 6 96 16
t91 28.5t72.5 46.5t41.5 69q-3 24 -11 62t-23 78.5t-38.5 79t-56.5 62.5z" />
    <glyph glyph-name="uni0647.fina" unicode="&#x647;" horiz-adv-x="931" arabic-form="final" 
d="M948 206v-206h-39q-84 4 -139.5 30.5t-90 65.5t-52.5 86.5t-26 93.5l-133 -131q-6 -2 -34.5 -5t-71 -2t-96 9t-109.5 28q-12 16 -23 42.5t-19 59t-12.5 68t-4.5 68.5t6 61t20 45q27 31 72 74t97.5 88t107 86.5t98.5 71.5q-3 19 -4 33.5t-2 25.5l-3 21l155 135
q25 -195 46 -353q9 -68 18 -134t17 -121t14 -93.5t9 -50.5q4 -18 16 -35.5t33.5 -31t54 -21.5t78.5 -8h17zM184 444q-4 -50 31 -78t93.5 -39.5t134 -10.5t152.5 9q-8 54 -18.5 105t-21.5 98.5t-20.5 90t-13.5 79.5q-62 -31 -115.5 -62.5t-97 -63.5t-75 -64t-49.5 -64z" />
    <glyph glyph-name="uni0648" unicode="&#x648;" horiz-adv-x="849" arabic-form="isolated" 
d="M475 196q38 0 72.5 2t60.5 4q31 3 57 6q-4 16 -11 48.5t-19.5 71.5t-32 80t-47 74.5t-65 55t-86.5 21.5h-2q-39 0 -70 -16.5t-55 -42t-41.5 -56.5t-28 -59.5t-15 -50.5t-2.5 -31q8 -48 80.5 -77.5t204.5 -29.5zM439 756h2q73 -5 127 -45.5t92 -102.5t62 -139t37 -154
t16.5 -147.5t0.5 -119.5q-6 -98 -40 -185t-83.5 -160t-107.5 -131.5t-112 -99t-96 -62t-60 -21.5q-5 0 -7 1q-21 10 -54 28.5t-65.5 38t-59 36.5t-34.5 25q-9 8 -4 11.5t7 4.5q149 57 253.5 117t175 119t111 117.5t60.5 112.5q-22 -3 -51 -5q-25 -2 -61.5 -3.5t-82.5 -1.5
q-38 0 -80.5 7.5t-82.5 24t-75 42.5t-59 62.5t-33.5 85.5t0.5 110q2 26 10.5 68.5t24.5 91t40 97.5t57 88t76 64t96 25z" />
    <glyph glyph-name="uni0648.fina" unicode="&#x648;" horiz-adv-x="816" arabic-form="final" 
d="M828 0h-68q-13 -95 -52 -179t-91 -153.5t-110.5 -123.5t-109.5 -90t-89 -52.5t-49 -11.5q-21 10 -54 28.5t-65 38t-58.5 36.5t-34.5 25q-9 8 -4 11.5t7 4.5q151 57 257.5 117t177.5 120t110.5 118t54.5 111h-196q-38 0 -80.5 7t-82.5 22t-75 39.5t-59 60.5t-33.5 84
t0.5 109q2 26 10.5 69t25 91t40.5 97.5t57.5 88.5t76.5 64t96 24q57 -4 103 -30.5t81 -68.5t60.5 -96.5t43.5 -114.5t28.5 -122t15.5 -118h66v-206zM474 206h179q-4 17 -11 49.5t-19.5 72t-32 81t-47 75t-65.5 55t-87 20.5q-39 0 -70 -16.5t-55 -42t-41.5 -56.5t-28 -59.5
t-15 -50.5t-2.5 -31q9 -48 86 -72.5t209 -24.5z" />
    <glyph glyph-name="uni0649" unicode="&#x649;" horiz-adv-x="1598" arabic-form="isolated" 
d="M1502 25q21 -83 13 -159.5t-31 -133.5q-31 -65 -90.5 -123.5t-145 -104.5t-196.5 -77t-244 -42q-111 -7 -216.5 4.5t-194.5 49t-154.5 105.5t-96 174t-19.5 254.5t75 347.5q7 21 18 53.5t23.5 66.5t25 66t21.5 53l68 -39q-14 -38 -29.5 -86.5t-34.5 -116.5
q-13 -53 -24 -114.5t-14 -125t3.5 -127t28 -120.5t61 -104.5t102 -79.5t150.5 -45.5t207 -2.5q139 13 235.5 39t164 60.5t111.5 76.5t79 86q-23 18 -71.5 42t-108.5 50t-124 52.5t-118.5 50.5t-92 43t-44.5 29q4 115 34 219.5t80.5 191.5t119 153.5t150.5 105.5t174.5 47
t190.5 -22l-65 -199q-110 18 -196.5 -6t-155.5 -75.5t-122 -124t-95 -151.5q42 -23 105 -47.5t136.5 -53.5t153 -63.5t153.5 -76.5z" />
    <glyph glyph-name="uni0649.fina" unicode="&#x649;" horiz-adv-x="1526" arabic-form="final" 
d="M1531 0q-63 0 -108.5 1.5t-75.5 3.5q6 -5 24 -18t37 -28t33.5 -30t14.5 -23l-12 -168q-15 -43 -66.5 -98.5t-133 -106t-191 -88t-240.5 -44.5q-111 -6 -217 6t-194 50t-153.5 106.5t-95.5 175t-19.5 255t73.5 347.5l15.5 46.5t21.5 61t24.5 64t23.5 55.5l69 -36
q-12 -37 -29 -88.5t-34 -108.5q-13 -52 -24 -112.5t-14.5 -124.5t2.5 -127.5t28 -121t61.5 -105t102 -80t151 -46.5t208.5 -3q115 9 213 29.5t171.5 47.5t117.5 58.5t52 62.5q-17 15 -65 46t-116 68.5t-149 76.5t-162 72q-3 0 2.5 12.5t15 31.5t21 40.5t22.5 40.5t19.5 31.5
t10.5 12.5q105 -14 180 -21.5t137 -11.5t120 -4.5t128 -0.5v-207z" />
    <glyph glyph-name="uni066E.init" unicode="&#x66e;" horiz-adv-x="490" 
d="M316 906q4 1 20 -30t35.5 -87t37 -132.5t24.5 -166t-1 -187.5t-39 -196q-8 -13 -37 -28.5t-67.5 -30t-80 -26.5t-74.5 -17q-12 -2 -34.5 -2.5t-44.5 -1.5q-26 -1 -55 -1q-28 2 -51 13q-20 10 -36 30.5t-18 58.5q2 39 18.5 60.5t36.5 31.5q22 11 50 13h80q32 0 62 1t43 3
q18 3 41.5 8t46 11t40 13t21.5 15q4 18 -3.5 54.5t-21 81.5t-31.5 94t-35.5 92.5t-32.5 77t-22 47.5q33 55 60 99q12 19 23 37t20.5 32t16 23t8.5 10z" />
    <glyph glyph-name="uni066E.medi" unicode="&#x66e;" horiz-adv-x="628" 
d="M-105 102q0 23 9 42.5t23.5 33t33.5 21t39 7.5q67 1 123 12q24 4 48 11.5t44.5 18t36 25t22.5 33.5q1 16 -0.5 36.5t-4 42.5t-6.5 44t-8 43q-10 48 -22 99q35 38 63 67q12 12 23.5 24t21.5 20.5t16 13t8 3.5q0 -1 7.5 -38.5t16 -94t14.5 -123t3 -125.5q8 -27 34 -49
q23 -20 67 -37.5t121 -25.5h16v-206h-16q-36 0 -79 14.5t-83.5 37.5t-74 52.5t-51.5 59.5q-21 -32 -52 -62t-70.5 -52.5t-86 -36t-98.5 -13.5h-33q-20 0 -39 7t-33.5 20.5t-23.5 32t-9 42.5z" />
    <glyph glyph-name="uni066E.fina" unicode="&#x66e;" horiz-adv-x="2137" 
d="M1938 612l57 -18q-6 -41 -10 -66.5t-8.5 -46.5t-11 -45t-16.5 -62q1 -62 23.5 -96t54 -50t64.5 -19t56 -3v-206q-97 1 -150.5 24.5t-77.5 53.5q-20 25 -31.5 45.5t-18 39t-9 36.5t-4.5 38q-53 -53 -122 -93t-147.5 -69.5t-165 -49t-175.5 -31t-177.5 -16.5t-171.5 -5
q-82 0 -168.5 6.5t-170.5 19t-162.5 31.5t-144 44t-115.5 56.5t-77 69.5q-5 20 -11 68t-2 121t22.5 171t61.5 218l68 -36q-14 -68 -25.5 -133.5t-18.5 -119t-9.5 -91t2.5 -47.5q30 -30 83.5 -53t120 -40.5t141 -29.5t147 -20t138.5 -12t114 -5q57 -1 135.5 3.5t168 15.5
t183.5 28t181.5 42t162.5 57t126 72q21 42 33.5 68t22 47t17 40.5t17.5 47.5z" />
    <glyph glyph-name="uni066F.init" unicode="&#x66f;" horiz-adv-x="841" 
d="M0 206h101q86 0 169 3.5t156.5 12.5t133.5 24.5t100 40.5q1 23 0 38t-4 17q-33 -8 -73 -13q-35 -5 -81 -6.5t-102 3.5q-158 15 -236.5 84t-61.5 188q1 11 7 43.5t19.5 75.5t35.5 90t55 86.5t79.5 65t108.5 26.5q81 1 140 -38t99 -107.5t63.5 -161t34.5 -198.5
q1 -35 1 -76t-1.5 -81.5t-4.5 -77.5t-8 -64q-32 -54 -88 -89.5t-135 -55.5t-180.5 -28t-224.5 -8h-103q-16 0 -34.5 6t-34 19t-25.5 32t-10 45q1 27 10.5 46.5t24.5 32.5t33.5 19t35.5 6zM628 514q-4 12 -11.5 38t-21 58.5t-32.5 67t-45 63t-59.5 46.5t-75.5 18
q-44 0 -77 -13.5t-57 -34.5t-40 -46t-25.5 -48.5t-14 -42t-4.5 -25.5q10 -21 35.5 -36.5t60 -25.5t76 -16.5t82.5 -9.5q58 -5 98 -4t65 3q29 3 46 8z" />
    <glyph glyph-name="uni066F.medi" unicode="&#x66f;" horiz-adv-x="863" 
d="M0 206h9h78h35.5h47t47.5 0.5t37 0.5q-12 15 -25.5 32t-27.5 42t-27.5 59t-25.5 84q0 39 8 88t24.5 99t41.5 97.5t58.5 84.5t76 59t93.5 22q48 0 86 -20.5t67.5 -54.5t51 -78t36 -91t22.5 -94t10 -87q-9 -51 -18.5 -83t-21.5 -55.5t-27 -45t-34 -52.5q14 -3 37.5 -4.5
t49 -2t48.5 -0.5h36h96v-206h-105q-25 -1 -74.5 4t-103.5 14t-101.5 20.5t-69.5 22.5q-16 -12 -56 -23t-87.5 -19.5t-93 -13.5t-72.5 -5h-119h-7q-40 0 -72 26t-33 75q0 24 8.5 43.5t23.5 33t34 21t39 7.5zM630 456q-10 31 -30.5 68.5t-49.5 70.5t-65 55t-76 22
q-39 0 -74 -19.5t-61.5 -52t-42 -74t-15.5 -85.5q6 -23 28 -49.5t53.5 -50.5t70 -44t77.5 -30q16 6 45 21.5t58 40t52.5 56.5t29.5 71z" />
    <glyph glyph-name="uni066F.fina" unicode="&#x66f;" horiz-adv-x="1361" 
d="M1375 206v-206h-53q-3 -150 -47 -270.5t-129 -204.5t-210.5 -127.5t-291.5 -38.5q-188 5 -312.5 78.5t-176.5 213t-26.5 345t137.5 475.5l67 -38q-30 -100 -58.5 -199.5t-42.5 -191.5t-5.5 -172.5t52 -141.5t130 -99.5t229.5 -46.5q138 -2 243 30t177 88t111.5 133
t46.5 167h-11h-321q-55 -1 -100.5 24.5t-76 70t-42.5 105t0 130.5q11 82 38 158.5t67 135.5t91 95t110 36q57 0 102.5 -24t81 -65.5t62 -96t45.5 -115.5t31.5 -124.5t20.5 -123.5h61zM1176 207h31q-18 171 -89.5 261.5t-184.5 92.5q-32 0 -61 -14.5t-53 -38t-43 -53.5
t-32 -59t-19 -54.5t-4 -40.5q11 -32 35 -51t74 -29.5t133.5 -13t212.5 -0.5z" />
    <glyph glyph-name="uni06C1.init" unicode="&#x6c1;" horiz-adv-x="664" arabic-form="initial" 
d="M425 -469q-18 7 -38.5 18t-39 23.5t-33 27t-20.5 28.5q1 90 43 187t115 193l74 -45q-19 -26 -38.5 -54t-35 -56t-25.5 -54.5t-10 -48.5q23 -29 58.5 -47.5t85.5 -34.5q-12 -29 -31.5 -53.5t-40 -43t-38 -29t-26.5 -11.5zM424 904q4 1 20 -30t35 -87t36.5 -132.5t25 -166
t0 -187.5t-39.5 -196q-30 -27 -82 -46.5t-115 -32.5t-133 -19.5t-136 -6.5h-35q-27 0 -50 11q-20 9 -37 30t-19 61q2 39 18.5 60t36.5 31q23 11 51 13h31q32 0 74.5 2.5t87 6.5t88 9t78.5 10.5t57 11t25 10.5q4 18 -3 54.5t-20.5 81.5t-31.5 94t-35.5 92.5t-32 77
t-22.5 47.5q33 55 60 99q12 19 23 37t20.5 32t16 23t8.5 10z" />
    <glyph glyph-name="uni06C1.medi" unicode="&#x6c1;" horiz-adv-x="958" arabic-form="medial" 
d="M636 -455l-119 -115q-38 29 -94 78t-112.5 122t-104 172.5t-68.5 230.5q-16 -8 -32 -15t-38 -12q-21 -6 -37.5 -6.5t-31.5 0.5q-12 -1 -28 4.5t-30 17.5t-24 30.5t-10 44.5q0 29 9.5 49.5t23.5 34t30 19.5t29 6h93q9 0 17 1t16 5.5t16 13.5t17 26q19 31 37 56t50 58
l91 -71q-5 -20 -8.5 -32t-7 -25.5t-8 -32t-13.5 -51.5q6 -61 21 -121.5t39.5 -119t60.5 -114t84 -107.5q3 20 9 49t13.5 60.5t16 63t17.5 59t17.5 47.5t15.5 27q25 26 55.5 55t58.5 52q55 45 119.5 73t142.5 28q14 0 20 -12t6 -25v-142q0 -27 -26 -27q-60 0 -105.5 0.5
t-75.5 -3.5t-55 -13t-45 -17zM840 -525q-18 7 -38 18t-38.5 23.5t-33 27t-20.5 28.5q1 90 43 187t115 193l73 -45q-19 -26 -38 -54t-34.5 -56t-25.5 -54.5t-10 -48.5q23 -29 58.5 -47.5t85.5 -34.5q-12 -29 -31.5 -53.5t-40 -43t-38.5 -29t-27 -11.5z" />
    <glyph glyph-name="uni06BE" unicode="&#x6be;" horiz-adv-x="1293" arabic-form="isolated" 
d="M-18 315q49 -33 112 -60q54 -23 130 -45.5t173 -29.5q-51 91 -62 186.5t10 188.5q18 34 37 64t37.5 54.5t35 42t27.5 27.5l-84 37q34 42 62 75q12 14 24 27t22.5 22.5t19 15t12.5 4.5t36.5 -12.5t83 -31.5t114.5 -49t131 -66t132.5 -81t118.5 -94.5t89.5 -107
t45.5 -117.5q-8 -43 -15.5 -79.5t-17 -71t-23 -67.5t-32.5 -68q-47 -27 -102 -42.5t-111 -22t-109.5 -6t-97.5 5t-75.5 10.5t-42.5 10q-21 -15 -66 -20.5t-104 -3.5t-125.5 11.5t-129.5 24.5t-117.5 35t-87.5 44zM670 655q-46 3 -90 -11.5t-81 -41.5t-64.5 -64t-39.5 -79
q16 -61 45 -101.5t66.5 -67.5t82.5 -43.5t93 -29.5q5 1 19 15.5t30 32.5t31.5 36.5t23.5 28.5q13 36 5 81t-27.5 90t-45.5 86t-48 68zM1193 214q11 43 -2.5 83t-41.5 76.5t-66 67.5t-76.5 56t-72 43t-53.5 28q9 -27 13 -57t3.5 -61t-6.5 -60.5t-17 -56.5q-4 -13 -16 -38.5
t-26 -51.5q-16 -31 -36 -65q23 -8 56.5 -13.5t72 -7t79 1t77 9t66 18t46.5 28.5z" />
    <glyph glyph-name="uni06D2" unicode="&#x6d2;" horiz-adv-x="1737" arabic-form="isolated" 
d="M1667 278q-14 -47 -28 -87q-12 -34 -26 -66t-26 -43q-33 -17 -105.5 -34t-184.5 -33t-221 -23.5t-216 -7.5q-178 0 -368 18q-96 9 -174.5 20t-144.5 28q-34 9 -55 15t-34.5 11.5t-21.5 10t-16 10.5q0 4 4 25t10 50.5t13 62.5t13.5 61.5t12.5 49t10 24.5q13 13 45 30.5
t75.5 37.5t95.5 42t104.5 43t102.5 41.5t91 37.5q20 18 34 32t27 28.5t26 31t31 39.5l98 1q-106 -201 -179 -243q-16 -8 -55 -23.5t-90 -36.5t-108 -44.5t-109 -46.5t-92.5 -44.5t-59.5 -37.5q67 -28 147 -42.5t166 -25.5q87 -11 194 -16.5t238 -5.5q185 0 397 30
q107 15 201 35t178 45z" />
    <glyph glyph-name="uni06D2.fina" unicode="&#x6d2;" horiz-adv-x="1276" arabic-form="final" 
d="M218 -237q237 -70 550 -70q163 0 319 14t308 42q-8 -17 -35 -51t-60.5 -69.5t-66.5 -65.5t-54 -39q-104 -15 -343 -15q-237 0 -388 26q-25 4 -60.5 11.5t-74 16.5t-76.5 19.5t-68.5 20t-49.5 17.5t-19 12q0 5 4.5 22.5t11 41t14 50t14.5 49.5t12.5 40t7.5 21
q90 86 198.5 155t239.5 111q65 21 144.5 36.5t169.5 26t189.5 16t204.5 5.5v-206q-117 0 -239 -5.5t-224 -17.5q-101 -12 -188 -31t-162 -45q-149 -53 -279 -138z" />
    <glyph glyph-name="uni06A9" unicode="&#x6a9;" horiz-adv-x="1960" arabic-form="isolated" 
d="M2058 1547q1 -6 -4 -35.5t-12 -62.5q-8 -39 -19 -86l-644 -272q40 -50 86 -108t90 -124t81.5 -140t61 -157t29 -174.5t-16.5 -191.5q-34 -35 -85.5 -65t-115 -55t-136 -44t-147.5 -32t-149.5 -19.5t-141.5 -7.5l-112 1q-139 3 -252.5 16t-203 40t-155 69.5t-108.5 104.5
q-9 18 -15.5 63t-2 116t24 167.5t61.5 216.5l71 -34q-14 -68 -25.5 -135.5t-19 -124.5t-9 -97t5.5 -52q38 -38 108.5 -65.5t157 -45t181 -26.5t181.5 -11h112q105 5 208.5 14t196.5 28t172 52t134 86q-36 100 -85 186t-110.5 164t-136.5 150.5t-165 143.5l51 177
q240 107 428 190q80 35 157 68.5t137.5 59t97.5 40t38 12.5z" />
    <glyph glyph-name="uni06A9.fina" unicode="&#x6a9;" horiz-adv-x="2112" arabic-form="final" 
d="M2131 207v-207h-19q-38 2 -69 11.5t-57.5 23t-50.5 30t-47 33.5q-32 31 -59 63.5t-49 60t-37 48t-22 28.5l-1 1q-2 -23 -5 -45.5t-8 -45.5q-34 -35 -85.5 -65t-115 -54.5t-136 -43.5t-147.5 -32t-149.5 -19.5t-141.5 -7.5l-112 1q-139 3 -252.5 16t-203 40t-155.5 69.5
t-108 104.5q-9 18 -15.5 63t-2 116t24 167t61.5 216l71 -33q-14 -67 -25.5 -135t-19 -125t-9 -97t4.5 -52q39 -38 109.5 -65.5t157 -45.5t181 -27t181.5 -10h112q105 5 208.5 14t196.5 28t172 52t134 86q-36 99 -85 185.5t-110.5 164.5t-136.5 150t-165 144l51 177
q240 106 428 189q80 35 157 68.5t137.5 59t97.5 40t38 12.5q1 -6 -4 -35.5t-12 -62.5q-8 -39 -19 -85l-644 -273q21 -25 43 -51t46 -58t50.5 -72t57.5 -92.5t66 -119.5t77 -153q76 -116 139 -185t112 -106t85 -48t60 -11h19z" />
    <glyph glyph-name="uni06AF" unicode="&#x6af;" horiz-adv-x="1971" arabic-form="isolated" 
d="M2058 1547q1 -6 -4 -35.5t-12 -62.5q-8 -39 -19 -86l-644 -272q40 -50 86 -108t90 -124t81.5 -140t61 -157t29 -174.5t-16.5 -191.5q-34 -35 -85.5 -65t-115 -55t-136 -44t-147.5 -32t-149.5 -19.5t-141.5 -7.5l-112 1q-139 3 -252.5 16t-203 40t-155 69.5t-108.5 104.5
q-9 18 -15.5 63t-2 116t24 167.5t61.5 216.5l71 -34q-14 -68 -25.5 -135.5t-19 -124.5t-9 -97t5.5 -52q38 -38 108.5 -65.5t157 -45t181 -26.5t181.5 -11h112q105 5 208.5 14t196.5 28t172 52t134 86q-36 100 -85 186t-110.5 164t-136.5 150.5t-165 143.5l51 177
q240 107 428 190q80 35 157 68.5t137.5 59t97.5 40t38 12.5zM1963 1639l-740 -324l43 152l725 317z" />
    <glyph glyph-name="uni06AF.init" unicode="&#x6af;" horiz-adv-x="907" arabic-form="initial" 
d="M0 0q-12 1 -29.5 6t-34 16.5t-28.5 30.5t-12 48q1 31 12 51.5t26.5 32t33.5 16.5t32 5q107 2 195.5 0t158 8t120 40.5t82.5 96.5q-36 100 -84 189t-109 170.5t-135.5 156t-163.5 146.5l46 165q240 107 428 190q80 35 157 68.5t137.5 59t97.5 40t38 12.5q1 -6 -4 -35.5
t-12 -62.5q-8 -39 -19 -86l-644 -273q78 -82 153.5 -179.5t128.5 -214t71.5 -252.5t-17.5 -294q-53 -53 -114.5 -83.5t-137.5 -45.5t-168 -18.5t-205 -3.5zM866 1631l-740 -324l43 152l725 317z" />
    <glyph glyph-name="uni06AF.medi" unicode="&#x6af;" horiz-adv-x="1051" arabic-form="medial" 
d="M1073 207v-207h-17q-38 2 -67 8.5t-53 17t-45.5 24.5t-44.5 31q-26 27 -51.5 54.5t-48 53.5t-40.5 48t-30 37q-2 -17 -5 -37t-7.5 -41.5t-9 -42.5t-8.5 -39q-53 -53 -117 -77t-143 -32t-175 -6t-211 1q-11 0 -28.5 5t-34 16.5t-29 31t-12.5 48.5q1 31 12 51.5t27 32.5
t33.5 16.5t31.5 4.5q108 0 204.5 -0.5t175 9t136 34t87.5 74.5q-32 110 -81 203.5t-113 176t-142 157t-167 146.5l38 179q240 107 428 190q80 35 157 68.5t137.5 59t97.5 40t38 12.5q1 -6 -4 -35.5t-12 -62.5q-8 -39 -19 -86l-644 -273q94 -99 173.5 -220t145.5 -270
q76 -123 142 -201t119.5 -122.5t93.5 -61t65 -16.5h17zM916 1654l-740 -324l43 152l725 317z" />
    <glyph glyph-name="uni06AF.fina" unicode="&#x6af;" horiz-adv-x="2118" arabic-form="final" 
d="M2131 207v-207h-19q-38 2 -69 11.5t-57.5 23t-50.5 30t-47 33.5q-32 31 -59 63.5t-49 60t-37 48t-22 28.5l-1 1q-2 -23 -5 -45.5t-8 -45.5q-34 -35 -85.5 -65t-115 -54.5t-136 -43.5t-147.5 -32t-149.5 -19.5t-141.5 -7.5l-112 1q-139 3 -252.5 16t-203 40t-155.5 69.5
t-108 104.5q-9 18 -15.5 63t-2 116t24 167t61.5 216l71 -33q-14 -67 -25.5 -135t-19 -125t-9 -97t4.5 -52q39 -38 109.5 -65.5t157 -45.5t181 -27t181.5 -10h112q105 5 208.5 14t196.5 28t172 52t134 86q-36 99 -85 185.5t-110.5 164.5t-136.5 150t-165 144l51 177
q240 106 428 189q80 35 157 68.5t137.5 59t97.5 40t38 12.5q1 -6 -4 -35.5t-12 -62.5q-8 -39 -19 -85l-644 -273q21 -25 43 -51t46 -58t50.5 -72t57.5 -92.5t66 -119.5t77 -153q76 -116 139 -185t112 -106t85 -48t60 -11h19zM1978 1668l-740 -324l43 152l725 317z" />
    <glyph glyph-name="uni06BA" unicode="&#x6ba;" horiz-adv-x="1366" arabic-form="isolated" 
d="M1148 640q3 0 4 -1q2 -1 12.5 -23.5t25 -62t31 -93.5t30 -119.5t22.5 -139t9 -152.5q0 -150 -43 -270t-128 -204t-211 -129t-292 -45q-120 0 -218.5 29t-170 88.5t-112.5 150t-45 213.5t31.5 279t117.5 347l69 -38q-34 -108 -63 -211.5t-41 -195.5t-1 -170t57.5 -136
t135 -93t231.5 -40q152 1 263 40.5t181.5 107.5t102 158.5t24.5 192.5q-15 33 -34 73.5t-39 83.5t-40 87t-36 83q30 52 56 93q11 18 22 35t20.5 30.5t17 22t11.5 9.5z" />
    <glyph glyph-name="uni06BA.fina" unicode="&#x6ba;" horiz-adv-x="1543" arabic-form="final" 
d="M1154 681q12 -19 26 -58.5t32 -89.5t41.5 -105t55.5 -106q33 -54 90.5 -79t143.5 -37h16v-206h-16q-48 6 -90.5 16t-76.5 22.5t-57.5 26t-35.5 27.5q0 -150 -44.5 -273t-132 -210.5t-218 -135t-302.5 -45.5q-101 1 -192.5 28t-163 83t-117.5 143.5t-54 210.5t27.5 283
t125.5 362l69 -42q-25 -75 -47.5 -151t-37.5 -148.5t-21 -140.5t3 -127.5t35.5 -109t75 -86t122 -58t177.5 -24.5q135 4 244.5 38t186 98t116 158t33.5 219q-55 116 -91 199.5t-55 129.5q18 30 39.5 66t40.5 65.5t33.5 46.5t18.5 10z" />
    <glyph glyph-name="uni062F.fina" unicode="&#x62f;" horiz-adv-x="1051" arabic-form="final" 
d="M1059 206v-206h-19q-44 1 -81.5 15t-69 35t-56 48t-40.5 54q-10 -14 -30.5 -38.5t-58 -48.5t-94.5 -41.5t-138 -17.5q-71 0 -131.5 6.5t-105 15.5t-70.5 17.5t-28 13.5q-13 25 -20 59t-9.5 64.5t-1 53.5t6.5 27q3 3 28 -8t68.5 -25.5t105.5 -27t139 -12.5q55 1 102.5 5.5
t86.5 17.5t67.5 36.5t45.5 61.5q-32 73 -65 141.5t-67.5 138t-71 143.5t-75.5 159q28 48 52 87q10 16 20 31.5t19 28t15 20t9 7.5q7 0 29 -48t52.5 -129t68.5 -187t79 -222q19 -47 42 -96t50 -88.5t59.5 -65t72.5 -25.5h14z" />
    <glyph glyph-name="uni06C1.fina" unicode="&#x6c1;" horiz-adv-x="913" arabic-form="final" 
d="M939 206v-206q-56 -1 -112 19t-109 49.5t-101 64t-87.5 64.5t-69 50t-46.5 20q-13 0 -33.5 -5t-52 -29t-76.5 -75.5t-106 -144.5l-75 45q61 101 114 175t100 123t89.5 72.5t81.5 23.5q28 0 64 -18.5t76.5 -45.5t84 -59t88 -59.5t87.5 -45.5t83 -18z" />
    <glyph glyph-name="uni0686" unicode="&#x686;" horiz-adv-x="1383" arabic-form="isolated" 
d="M1338 451q-181 0 -327.5 -22.5t-262.5 -61t-204 -90t-151 -110t-102.5 -121.5t-59.5 -123q18 -98 66 -170t117.5 -121.5t155 -79.5t178 -44t186.5 -14.5t181 8t162 24.5t128 34v-2q-11 -29 -22.5 -59t-21.5 -55q-11 -29 -22 -56q-74 -38 -166 -62.5t-192.5 -33.5
t-203.5 -1.5t-199 34t-179 72.5t-142.5 114t-90.5 159t-23 207v1q10 53 27.5 117t50 131.5t84.5 135t132 126.5t192 106.5t264 74.5l28 3q-55 18 -113 37t-113 36.5t-104.5 32.5t-87.5 26.5t-61 18t-25 6.5q-5 0 -14 -2t-22.5 -10t-31 -23.5t-38.5 -42.5q-16 -20 -30 -41
t-30 -43l-68 45q39 67 71 122.5t64.5 95.5t68.5 62.5t84 23.5q45 1 101 -16.5t123 -44.5t146 -60.5t170 -64.5t195.5 -56.5t222.5 -36.5q5 2 0 -15q-7 -17 -21.5 -45.5t-30.5 -56.5q-18 -33 -39 -69zM821 7l-139 -140l-138 140l138 138zM1127 7l-137 -139l-140 139l140 139z
M836 -339l-132 131l132 132l131 -131z" />
    <glyph glyph-name="uni0686.fina" unicode="&#x686;" horiz-adv-x="1478" arabic-form="final" 
d="M714 -41l-139 -140l-138 140l138 138zM1020 -41l-137 -139l-140 139l140 139zM729 -387l-132 131l132 132l131 -131zM1413 206h80v-206h-80q-87 0 -146 16.5t-97.5 46t-59.5 70t-31 90.5t-13.5 107t-5.5 118q-201 -23 -348 -76.5t-248.5 -124.5t-161.5 -153t-86 -161
q18 -98 66 -169.5t117.5 -121.5t155 -79.5t178 -43.5t187 -14.5t181.5 8t162 24.5t128 34q1 -1 0 -2q-11 -29 -22.5 -59t-21.5 -55q-11 -29 -22 -56q-74 -38 -166.5 -62.5t-193 -33.5t-204.5 -1.5t-200 34t-179 72.5t-142.5 114t-91 159t-23.5 207q12 57 30 123t51 133.5
t85 133.5t131.5 124t191.5 104t264 74l29 3q-55 18 -113 37t-113.5 36t-105 32.5t-87.5 26.5t-61 18t-25 7q-5 0 -14 -2t-22.5 -10t-31 -23.5t-38.5 -42.5q-15 -20 -29 -41t-31 -43l-64 39q39 67 70.5 123.5t63 97.5t67 64.5t83.5 24.5q46 0 102 -17t123 -44.5t145.5 -61
t170 -64.5t195.5 -56t222 -36q0 -10 -6.5 -27.5t-17 -38t-22.5 -41.5l-22 -38.5t-17 -28.5t-6 -12q-43 0 -84 -1.5t-80 -3.5q0 -69 18.5 -116.5t52 -77.5t80 -43.5t103.5 -13.5z" />
    <glyph glyph-name="uni0623" unicode="&#x623;" horiz-adv-x="502" arabic-form="isolated" 
d="M211 -22q-8 -11 -11.5 -8.5t-3.5 7.5q-4 295 -12.5 536.5t-19.5 419.5q-3 51 -7.5 115t-8.5 121q-4 66 -9 134q47 44 85 78q16 15 32 28.5t29 24t22 16t11 4.5q1 -1 3 -5t3 -11t2 -20q2 -100 2.5 -201t-0.5 -206q0 -89 -1.5 -195.5t-5.5 -219t-9.5 -224t-12.5 -208.5
q-18 -41 -35 -77q-14 -31 -29 -62t-24 -47zM27 1426l27 87l116 65q-7 4 -22.5 16.5t-32 31.5t-30 44t-15.5 55q-2 29 17 68t49.5 74.5t68 60t72.5 24.5q50 0 94 -24t80 -88l-26 -13q-9 5 -42 16t-90 11q-29 0 -56 -13.5t-48 -31t-34 -34.5t-13 -24q0 -8 10 -26t31 -36.5
t55 -34.5t82 -20q30 4 53 8t42.5 8t36.5 8.5t35 9.5q1 1 -3.5 -14.5t-9.5 -33.5q-6 -22 -14 -49q-9 -2 -19.5 -3.5t-25.5 -4.5t-36.5 -8t-51.5 -12q-43 -9 -77 -19t-67.5 -23.5t-70.5 -31.5t-85 -43z" />
    <glyph glyph-name="uni0623.fina" unicode="&#x623;" horiz-adv-x="566" arabic-form="final" 
d="M525 0q-39 0 -77 12t-69.5 29t-54.5 36.5t-33 34.5q-8 12 -18 37t-19 55t-15 61.5t-6 55.5q0 75 -2.5 156.5t-6.5 165t-9 165t-10 155.5q-12 172 -28 343q12 11 37 35.5t51 48.5t46 40t23 12q3 -3 4.5 -12.5t1.5 -16.5q8 -139 12 -250.5t5.5 -204t1.5 -169.5t-1 -147.5
t-1 -137.5t1 -138q1 -30 1.5 -50.5t1.5 -35t2.5 -25t3.5 -19.5q19 -10 42.5 -16t47 -9.5t44.5 -4.5t35 -1h39v-205h-50zM15 1426l27 87l116 65q-7 4 -22.5 16.5t-32 31.5t-30 44t-15.5 55q-2 29 17 68t49.5 74.5t68 60t72.5 24.5q50 0 94 -24t80 -88l-26 -13q-9 5 -42 16
t-90 11q-29 0 -56 -13.5t-48 -31t-34 -34.5t-13 -24q0 -8 10 -26t31 -36.5t55 -34.5t82 -20q30 4 53 8t42.5 8t36.5 8.5t35 9.5q1 1 -3.5 -14.5t-9.5 -33.5q-6 -22 -14 -49q-9 -2 -19.5 -3.5t-25.5 -4.5t-36.5 -8t-51.5 -12q-43 -9 -77 -19t-67.5 -23.5t-70.5 -31.5t-85 -43
z" />
    <glyph glyph-name="uni0625" unicode="&#x625;" horiz-adv-x="468" arabic-form="isolated" 
d="M194 -22q-8 -11 -11.5 -8.5t-3.5 7.5q-4 295 -12.5 536.5t-19.5 419.5q-3 51 -7.5 115t-8.5 121q-4 66 -9 134q47 44 85 78q16 15 32 28.5t29 24t22 16t11 4.5q1 -1 3 -5t3 -11t2 -20q2 -100 2.5 -201t-0.5 -206q0 -89 -1.5 -195.5t-5.5 -219t-9.5 -224t-12.5 -208.5
q-18 -41 -35 -77q-14 -31 -29 -62t-24 -47zM11 -660l27 87l116 65q-7 4 -22.5 16.5t-32 31.5t-30 44t-15.5 55q-2 29 17 68t49.5 74.5t68 60t72.5 24.5q50 0 94 -24t80 -88l-26 -13q-9 5 -42 16t-90 11q-29 0 -56 -13.5t-48 -31t-34 -34.5t-13 -24q0 -8 10 -26t31 -36.5
t55 -34.5t82 -20q30 4 53 8t42.5 8t36.5 8.5t35 9.5q1 1 -3.5 -14.5t-9.5 -33.5q-6 -22 -14 -49q-9 -2 -19.5 -3.5t-25.5 -4.5t-36.5 -8t-51.5 -12q-43 -9 -77 -19t-67.5 -23.5t-70.5 -31.5t-85 -43z" />
    <glyph glyph-name="uni0625.fina" unicode="&#x625;" horiz-adv-x="501" arabic-form="final" 
d="M464 0q-39 0 -77 12t-69.5 29t-54.5 36.5t-33 34.5q-8 12 -18 37t-19 55t-15 61.5t-6 55.5q0 75 -2.5 156.5t-6.5 165t-9 165t-10 155.5q-12 172 -28 343q12 11 37 35.5t51 48.5t46 40t23 12q3 -3 4.5 -12.5t1.5 -16.5q8 -139 12 -250.5t5.5 -204t1.5 -169.5t-1 -147.5
t-1 -137.5t1 -138q1 -30 1.5 -50.5t1.5 -35t2.5 -25t3.5 -19.5q19 -10 42.5 -16t47 -9.5t44.5 -4.5t35 -1h39v-205h-50zM152 -667l27 87l116 65q-7 4 -22.5 16.5t-32 31.5t-30 44t-15.5 55q-2 29 17 68t49.5 74.5t68 60t72.5 24.5q50 0 94 -24t80 -88l-26 -13q-9 5 -42 16
t-90 11q-29 0 -56 -13.5t-48 -31t-34 -34.5t-13 -24q0 -8 10 -26t31 -36.5t55 -34.5t82 -20q30 4 53 8t42.5 8t36.5 8.5t35 9.5q1 1 -3.5 -14.5t-9.5 -33.5q-6 -22 -14 -49q-9 -2 -19.5 -3.5t-25.5 -4.5t-36.5 -8t-51.5 -12q-43 -9 -77 -19t-67.5 -23.5t-70.5 -31.5t-85 -43
z" />
    <glyph glyph-name="uni0622" unicode="&#x622;" horiz-adv-x="650" arabic-form="isolated" 
d="M324 -22q-8 -11 -11.5 -8.5t-3.5 7.5q-4 295 -12.5 536.5t-19.5 419.5q-3 51 -7.5 115t-8.5 121q-4 66 -9 134q47 44 85 78q16 15 32 28.5t29 24t22 16t11 4.5q1 -1 3 -5t3 -11t2 -20q2 -100 2.5 -201t-0.5 -206q0 -89 -1.5 -195.5t-5.5 -219t-9.5 -224t-12.5 -208.5
q-18 -41 -35 -77q-14 -31 -29 -62t-24 -47zM67 1527q5 24 15.5 55.5t24 59.5t30.5 48t35 21q34 2 71 -1.5t75 -8t76.5 -9t76.5 -4.5q28 0 53 4.5t46 11.5t37.5 14.5l27.5 12.5l14 -17q-10 -17 -29.5 -40.5t-46 -45t-60 -38.5t-70.5 -20q-31 -4 -64.5 -2t-66.5 6t-62.5 8
t-51.5 4q-21 0 -38 -7.5t-31 -18t-24.5 -23t-17.5 -23.5z" />
    <glyph glyph-name="uni0622.fina" unicode="&#x622;" horiz-adv-x="563" arabic-form="final" 
d="M525 0q-39 0 -77 12t-69.5 29t-54.5 36.5t-33 34.5q-8 12 -18 37t-19 55t-15 61.5t-6 55.5q0 75 -2.5 156.5t-6.5 165t-9 165t-10 155.5q-12 172 -28 343q12 11 37 35.5t51 48.5t46 40t23 12q3 -3 4.5 -12.5t1.5 -16.5q8 -139 12 -250.5t5.5 -204t1.5 -169.5t-1 -147.5
t-1 -137.5t1 -138q1 -30 1.5 -50.5t1.5 -35t2.5 -25t3.5 -19.5q19 -10 42.5 -16t47 -9.5t44.5 -4.5t35 -1h39v-205h-50zM-27 1532q5 24 15.5 55.5t24 59.5t30.5 48t35 21q34 2 71 -1.5t75 -8t76.5 -9t76.5 -4.5q28 0 53 4.5t46 11.5t37.5 14.5l27.5 12.5l14 -17
q-10 -17 -29.5 -40.5t-46 -45t-60 -38.5t-70.5 -20q-31 -4 -64.5 -2t-66.5 6t-62.5 8t-51.5 4q-21 0 -38 -7.5t-31 -18t-24.5 -23t-17.5 -23.5z" />
    <glyph glyph-name="uni0671" unicode="&#x671;" horiz-adv-x="518" arabic-form="isolated" 
d="M264 -22q-8 -11 -11.5 -8.5t-3.5 7.5q-4 295 -12.5 536.5t-19.5 419.5q-3 51 -7.5 115t-8.5 121q-4 66 -9 134q47 44 85 78q16 15 32 28.5t29 24t22 16t11 4.5q1 -1 3 -5t3 -11t2 -20q2 -100 2.5 -201t-0.5 -206q0 -89 -1.5 -195.5t-5.5 -219t-9.5 -224t-12.5 -208.5
q-18 -41 -35 -77q-14 -31 -29 -62t-24 -47zM520 1690q-5 -28 -26 -53t-45 -54q-21 -14 -40.5 -20.5t-37 -9t-33 -2t-27.5 0.5q-33 3 -65.5 13t-61 21t-51.5 19.5t-36 8.5q-8 0 -19.5 -6t-24.5 -15.5t-26 -21t-23 -21.5l-37 30q54 65 93.5 100.5t59.5 36.5q8 -2 18 -5.5
t36 -11.5q60 74 117 115t95 40q9 0 32 -15.5t46.5 -39.5t41 -53t14.5 -57zM467 1687q-9 16 -22 30.5t-27 25t-28 16t-25 4.5q-31 -3 -65.5 -26.5t-78.5 -55.5q10 -5 39.5 -12.5t66 -10.5t74.5 2.5t66 26.5z" />
    <glyph glyph-name="uni0671.fina" unicode="&#x671;" horiz-adv-x="564" arabic-form="final" 
d="M525 0q-39 0 -77 12t-69.5 29t-54.5 36.5t-33 34.5q-8 12 -18 37t-19 55t-15 61.5t-6 55.5q0 75 -2.5 156.5t-6.5 165t-9 165t-10 155.5q-12 172 -28 343q12 11 37 35.5t51 48.5t46 40t23 12q3 -3 4.5 -12.5t1.5 -16.5q8 -139 12 -250.5t5.5 -204t1.5 -169.5t-1 -147.5
t-1 -137.5t1 -138q1 -30 1.5 -50.5t1.5 -35t2.5 -25t3.5 -19.5q19 -10 42.5 -16t47 -9.5t44.5 -4.5t35 -1h39v-205h-50zM534 1690q-5 -28 -26 -53t-45 -54q-21 -14 -40.5 -20.5t-37 -9t-33 -2t-27.5 0.5q-33 3 -65.5 13t-61 21t-51.5 19.5t-36 8.5q-8 0 -19.5 -6
t-24.5 -15.5t-26 -21t-23 -21.5l-37 30q54 65 93.5 100.5t59.5 36.5q8 -2 18 -5.5t36 -11.5q60 74 117 115t95 40q9 0 32 -15.5t46.5 -39.5t41 -53t14.5 -57zM481 1687q-9 16 -22 30.5t-27 25t-28 16t-25 4.5q-31 -3 -65.5 -26.5t-78.5 -55.5q10 -5 39.5 -12.5t66 -10.5
t74.5 2.5t66 26.5z" />
    <glyph glyph-name="uni0628" unicode="&#x628;" horiz-adv-x="2003" arabic-form="isolated" 
d="M1806 893q4 1 19.5 -25.5t34 -76t35.5 -118t23.5 -151.5t-2 -176.5t-39.5 -191.5q-26 -33 -75.5 -58t-114 -44t-138 -31.5t-146.5 -21.5q-172 -20 -373 -24q-194 0 -349 13.5t-272.5 42.5t-198.5 76t-127 115q-9 17 -15.5 62t-2 116t24 167t62.5 216l67 -34
q-14 -67 -25.5 -135t-19 -125t-9 -97t5.5 -52q30 -30 89.5 -54t137 -42t165.5 -31t174.5 -20t165 -9t136.5 1q31 1 92.5 4t137 8.5t159 14.5t159.5 23t137.5 33t93.5 46q4 18 -2.5 49.5t-20 69t-30.5 77.5t-34 76t-31.5 64.5t-21.5 42.5q33 55 60 99q12 19 23 36.5t20.5 32
t16 23t8.5 9.5zM1140 -301l-146 -146l-147 147l146 146z" />
    <glyph glyph-name="uni0628.init" unicode="&#x628;" horiz-adv-x="515" arabic-form="initial" 
d="M314 906q4 1 20 -30t35.5 -87t37 -132.5t24.5 -166t-1 -187.5t-39 -196q-8 -13 -37 -28.5t-67.5 -30t-80 -26.5t-74.5 -17q-12 -2 -34.5 -2.5t-44.5 -1.5q-26 -1 -55 -1q-28 2 -51 13q-20 10 -36 30.5t-18 58.5q2 39 18.5 60.5t36.5 31.5q22 11 50 13h80q32 0 62 1t43 3
q18 3 41.5 8t46 11t40 13t21.5 15q4 18 -3.5 54.5t-21 81.5t-31.5 94t-35.5 92.5t-32.5 77t-22 47.5q33 55 60 99q12 19 23 37t20.5 32t16 23t8.5 10zM400 -376l-146 -146l-147 147l146 146z" />
    <glyph glyph-name="uni0628.medi" unicode="&#x628;" horiz-adv-x="635" arabic-form="medial" 
d="M-99 102q0 23 9 42.5t23.5 33t33.5 21t39 7.5q67 1 123 12q24 4 48 11.5t44.5 18t36 25t22.5 33.5q1 16 -0.5 36.5t-4 42.5t-6.5 44t-8 43q-10 48 -22 99q35 38 63 67q12 12 23.5 24t21.5 20.5t16 13t8 3.5q0 -1 7.5 -38.5t16 -94t14.5 -123t3 -125.5q8 -27 34 -49
q23 -20 67 -37.5t121 -25.5h16v-206h-16q-36 0 -79 14.5t-83.5 37.5t-74 52.5t-51.5 59.5q-21 -32 -52 -62t-70.5 -52.5t-86 -36t-98.5 -13.5h-33q-20 0 -39 7t-33.5 20.5t-23.5 32t-9 42.5zM493 -376l-146 -146l-147 147l146 146z" />
    <glyph glyph-name="uni0628.fina" unicode="&#x628;" horiz-adv-x="2153" arabic-form="final" 
d="M1957 612l57 -18q-6 -41 -10 -66.5t-8.5 -46.5t-11 -45t-16.5 -62q1 -62 23.5 -96t54 -50t64.5 -19t56 -3v-206q-97 1 -150.5 24.5t-77.5 53.5q-20 25 -31.5 45.5t-18 39t-9 36.5t-4.5 38q-53 -53 -122 -93t-147.5 -69.5t-165 -49t-175.5 -31t-177.5 -16.5t-171.5 -5
q-82 0 -168.5 6.5t-170.5 19t-162.5 31.5t-144 44t-115.5 56.5t-77 69.5q-5 20 -11 68t-2 121t22.5 171t61.5 218l68 -36q-14 -68 -25.5 -133.5t-18.5 -119t-9.5 -91t2.5 -47.5q30 -30 83.5 -53t120 -40.5t141 -29.5t147 -20t138.5 -12t114 -5q57 -1 135.5 3.5t168 15.5
t183.5 28t181.5 42t162.5 57t126 72q21 42 33.5 68t22 47t17 40.5t17.5 47.5zM1156 -378l-146 -146l-147 147l146 146z" />
    <glyph glyph-name="uni067E" unicode="&#x67e;" horiz-adv-x="1986" arabic-form="isolated" 
d="M1829 893q4 1 19.5 -25.5t34 -76t35.5 -118t23.5 -151.5t-2 -176.5t-39.5 -191.5q-26 -33 -75.5 -58t-114 -44t-138 -31.5t-146.5 -21.5q-172 -20 -373 -24q-194 0 -349 13.5t-272.5 42.5t-198.5 76t-127 115q-9 17 -15.5 62t-2 116t24 167t62.5 216l67 -34
q-14 -67 -25.5 -135t-19 -125t-9 -97t5.5 -52q30 -30 89.5 -54t137 -42t165.5 -31t174.5 -20t165 -9t136.5 1q31 1 92.5 4t137 8.5t159 14.5t159.5 23t137.5 33t93.5 46q4 18 -2.5 49.5t-20 69t-30.5 77.5t-34 76t-31.5 64.5t-21.5 42.5q33 55 60 99q12 19 23 36.5t20.5 32
t16 23t8.5 9.5zM1043 -309l-139 -140l-138 140l138 138zM1349 -309l-137 -139l-140 139l140 139zM1058 -655l-132 131l132 132l131 -131z" />
    <glyph glyph-name="uni067E.fina" unicode="&#x67e;" horiz-adv-x="2164" arabic-form="final" 
d="M1963 612l57 -18q-6 -41 -10 -66.5t-8.5 -46.5t-11 -45t-16.5 -62q1 -62 23.5 -96t54 -50t64.5 -19t56 -3v-206q-97 1 -150.5 24.5t-77.5 53.5q-20 25 -31.5 45.5t-18 39t-9 36.5t-4.5 38q-53 -53 -122 -93t-147.5 -69.5t-165 -49t-175.5 -31t-177.5 -16.5t-171.5 -5
q-82 0 -168.5 6.5t-170.5 19t-162.5 31.5t-144 44t-115.5 56.5t-77 69.5q-5 20 -11 68t-2 121t22.5 171t61.5 218l68 -36q-14 -68 -25.5 -133.5t-18.5 -119t-9.5 -91t2.5 -47.5q30 -30 83.5 -53t120 -40.5t141 -29.5t147 -20t138.5 -12t114 -5q57 -1 135.5 3.5t168 15.5
t183.5 28t181.5 42t162.5 57t126 72q21 42 33.5 68t22 47t17 40.5t17.5 47.5zM999 -308l-139 -140l-138 140l138 138zM1305 -308l-137 -139l-140 139l140 139zM1014 -654l-132 131l132 132l131 -131z" />
    <glyph glyph-name="uni067E.init" unicode="&#x67e;" horiz-adv-x="659" arabic-form="initial" 
d="M424 904q4 1 20 -30t35 -87t36.5 -132.5t25 -166t0 -187.5t-39.5 -196q-30 -27 -82 -46.5t-115 -32.5t-133 -19.5t-136 -6.5h-35q-27 0 -50 11q-20 9 -37 30t-19 61q2 39 18.5 60t36.5 31q23 11 51 13h31q32 0 74.5 2.5t87 6.5t88 9t78.5 10.5t57 11t25 10.5
q4 18 -3 54.5t-20.5 81.5t-31.5 94t-35.5 92.5t-32 77t-22.5 47.5q33 55 60 99q12 19 23 37t20.5 32t16 23t8.5 10zM293 -302l-139 -140l-138 140l138 138zM599 -302l-137 -139l-140 139l140 139zM308 -648l-132 131l132 132l131 -131z" />
    <glyph glyph-name="uni067E.medi" unicode="&#x67e;" horiz-adv-x="742" arabic-form="medial" 
d="M-105 103q0 23 9 42t23.5 32.5t33.5 21t39 7.5q83 1 153 12q30 4 59.5 11.5t54.5 18t44 25t27 33.5q2 34 -5.5 79t-16.5 87q-11 48 -25 99q35 37 63 66q24 25 45 44.5t25 16.5l3.5 -17.5t8.5 -46.5t10.5 -67.5t10 -80.5t7 -85.5t1.5 -82.5q19 -29 55 -53q31 -20 83.5 -38
t136.5 -21h9v-206h-9q-68 0 -121.5 13t-94.5 35.5t-72 52t-54 62.5q-21 -32 -61.5 -61.5t-90.5 -52t-105.5 -36t-107.5 -13.5h-33q-20 0 -39 7t-33.5 20.5t-23.5 32.5t-9 43zM357 -346l-139 -140l-138 140l138 138zM663 -346l-137 -139l-140 139l140 139zM372 -692l-132 131
l132 132l131 -131z" />
    <glyph glyph-name="uni062A" unicode="&#x62a;" horiz-adv-x="1970" arabic-form="isolated" 
d="M1805 893q4 1 19.5 -25.5t34 -76t35.5 -118t23.5 -151.5t-2 -176.5t-39.5 -191.5q-26 -33 -75.5 -58t-114 -44t-138 -31.5t-146.5 -21.5q-172 -20 -373 -24q-194 0 -349 13.5t-272.5 42.5t-198.5 76t-127 115q-9 17 -15.5 62t-2 116t24 167t62.5 216l67 -34
q-14 -67 -25.5 -135t-19 -125t-9 -97t5.5 -52q30 -30 89.5 -54t137 -42t165.5 -31t174.5 -20t165 -9t136.5 1q31 1 92.5 4t137 8.5t159 14.5t159.5 23t137.5 33t93.5 46q4 18 -2.5 49.5t-20 69t-30.5 77.5t-34 76t-31.5 64.5t-21.5 42.5q33 55 60 99q12 19 23 36.5t20.5 32
t16 23t8.5 9.5zM889 656l-138 139l137 139l140 -140zM1168 655l-140 139l139 139l138 -140z" />
    <glyph glyph-name="uni062A.init" unicode="&#x62a;" horiz-adv-x="591" arabic-form="initial" 
d="M158 1013l-138 139l137 139l140 -140zM437 1012l-140 139l139 139l138 -140zM416 904q4 1 20 -30t35 -87t36.5 -132.5t25 -166t0 -187.5t-39.5 -196q-30 -27 -82 -46.5t-115 -32.5t-133 -19.5t-136 -6.5h-35q-27 0 -50 11q-20 9 -37 30t-19 61q2 39 18.5 60t36.5 31
q23 11 51 13h31q32 0 74.5 2.5t87 6.5t88 9t78.5 10.5t57 11t25 10.5q4 18 -3 54.5t-20.5 81.5t-31.5 94t-35.5 92.5t-32 77t-22.5 47.5q33 55 60 99q12 19 23 37t20.5 32t16 23t8.5 10z" />
    <glyph glyph-name="uni062A.medi" unicode="&#x62a;" horiz-adv-x="737" arabic-form="medial" 
d="M-105 103q0 23 9 42t23.5 32.5t33.5 21t39 7.5q83 1 153 12q30 4 59.5 11.5t54.5 18t44 25t27 33.5q2 34 -5.5 79t-16.5 87q-11 48 -25 99q35 37 63 66q24 25 45 44.5t25 16.5l3.5 -17.5t8.5 -46.5t10.5 -67.5t10 -80.5t7 -85.5t1.5 -82.5q19 -29 55 -53q31 -20 83.5 -38
t136.5 -21h9v-206h-9q-68 0 -121.5 13t-94.5 35.5t-72 52t-54 62.5q-21 -32 -61.5 -61.5t-90.5 -52t-105.5 -36t-107.5 -13.5h-33q-20 0 -39 7t-33.5 20.5t-23.5 32.5t-9 43zM257 826l-138 139l137 139l140 -140zM536 825l-140 139l139 139l138 -140z" />
    <glyph glyph-name="uni062A.fina" unicode="&#x62a;" horiz-adv-x="2153" arabic-form="final" 
d="M1956 614l57 -18q-6 -41 -10 -66.5t-8.5 -46.5t-11 -45t-16.5 -62q1 -62 23.5 -96t54 -50t64.5 -19t56 -3v-206q-97 1 -150.5 24.5t-77.5 53.5q-20 25 -31.5 45.5t-18 39t-9 36.5t-4.5 38q-53 -53 -122 -93t-147.5 -69.5t-165 -49t-175.5 -31t-177.5 -16.5t-171.5 -5
q-82 0 -168.5 6.5t-170.5 19t-162.5 31.5t-144 44t-115.5 56.5t-77 69.5q-5 20 -11 68t-2 121t22.5 171t61.5 218l68 -36q-14 -68 -25.5 -133.5t-18.5 -119t-9.5 -91t2.5 -47.5q30 -30 83.5 -53t120 -40.5t141 -29.5t147 -20t138.5 -12t114 -5q57 -1 135.5 3.5t168 15.5
t183.5 28t181.5 42t162.5 57t126 72q21 42 33.5 68t22 47t17 40.5t17.5 47.5zM896 604l-138 139l137 139l140 -140zM1175 603l-140 139l139 139l138 -140z" />
    <glyph glyph-name="uni062B" unicode="&#x62b;" horiz-adv-x="1965" arabic-form="isolated" 
d="M1804 893q4 1 19.5 -25.5t34 -76t35.5 -118t23.5 -151.5t-2 -176.5t-39.5 -191.5q-26 -33 -75.5 -58t-114 -44t-138 -31.5t-146.5 -21.5q-172 -20 -373 -24q-194 0 -349 13.5t-272.5 42.5t-198.5 76t-127 115q-9 17 -15.5 62t-2 116t24 167t62.5 216l67 -34
q-14 -67 -25.5 -135t-19 -125t-9 -97t5.5 -52q30 -30 89.5 -54t137 -42t165.5 -31t174.5 -20t165 -9t136.5 1q31 1 92.5 4t137 8.5t159 14.5t159.5 23t137.5 33t93.5 46q4 18 -2.5 49.5t-20 69t-30.5 77.5t-34 76t-31.5 64.5t-21.5 42.5q33 55 60 99q12 19 23 36.5t20.5 32
t16 23t8.5 9.5zM889 574l-138 139l137 139l140 -140zM1197 574l-140 139l139 139l138 -140zM1174 927l-131 -131l-132 132l131 131z" />
    <glyph glyph-name="uni062B.init" unicode="&#x62b;" horiz-adv-x="601" arabic-form="initial" 
d="M148 1002l-138 139l137 139l140 -140zM456 1002l-140 139l139 139l138 -140zM433 1355l-131 -131l-132 132l131 131zM424 904q4 1 20 -30t35 -87t36.5 -132.5t25 -166t0 -187.5t-39.5 -196q-30 -27 -82 -46.5t-115 -32.5t-133 -19.5t-136 -6.5h-35q-27 0 -50 11
q-20 9 -37 30t-19 61q2 39 18.5 60t36.5 31q23 11 51 13h31q32 0 74.5 2.5t87 6.5t88 9t78.5 10.5t57 11t25 10.5q4 18 -3 54.5t-20.5 81.5t-31.5 94t-35.5 92.5t-32 77t-22.5 47.5q33 55 60 99q12 19 23 37t20.5 32t16 23t8.5 10z" />
    <glyph glyph-name="uni062B.medi" unicode="&#x62b;" horiz-adv-x="741" arabic-form="medial" 
d="M-105 103q0 23 9 42t23.5 32.5t33.5 21t39 7.5q83 1 153 12q30 4 59.5 11.5t54.5 18t44 25t27 33.5q2 34 -5.5 79t-16.5 87q-11 48 -25 99q35 37 63 66q24 25 45 44.5t25 16.5l3.5 -17.5t8.5 -46.5t10.5 -67.5t10 -80.5t7 -85.5t1.5 -82.5q19 -29 55 -53q31 -20 83.5 -38
t136.5 -21h9v-206h-9q-68 0 -121.5 13t-94.5 35.5t-72 52t-54 62.5q-21 -32 -61.5 -61.5t-90.5 -52t-105.5 -36t-107.5 -13.5h-33q-20 0 -39 7t-33.5 20.5t-23.5 32.5t-9 43zM233 792l-138 139l137 139l140 -140zM541 792l-140 139l139 139l138 -140zM518 1145l-131 -131
l-132 132l131 131z" />
    <glyph glyph-name="uni062B.fina" unicode="&#x62b;" horiz-adv-x="2191" arabic-form="final" 
d="M1986 612l57 -18q-6 -41 -10 -66.5t-8.5 -46.5t-11 -45t-16.5 -62q1 -62 23.5 -96t54 -50t64.5 -19t56 -3v-206q-97 1 -150.5 24.5t-77.5 53.5q-20 25 -31.5 45.5t-18 39t-9 36.5t-4.5 38q-53 -53 -122 -93t-147.5 -69.5t-165 -49t-175.5 -31t-177.5 -16.5t-171.5 -5
q-82 0 -168.5 6.5t-170.5 19t-162.5 31.5t-144 44t-115.5 56.5t-77 69.5q-5 20 -11 68t-2 121t22.5 171t61.5 218l68 -36q-14 -68 -25.5 -133.5t-18.5 -119t-9.5 -91t2.5 -47.5q30 -30 83.5 -53t120 -40.5t141 -29.5t147 -20t138.5 -12t114 -5q57 -1 135.5 3.5t168 15.5
t183.5 28t181.5 42t162.5 57t126 72q21 42 33.5 68t22 47t17 40.5t17.5 47.5zM936 569l-138 139l137 139l140 -140zM1244 569l-140 139l139 139l138 -140zM1221 922l-131 -131l-132 132l131 131z" />
    <glyph glyph-name="uni0679" unicode="&#x679;" horiz-adv-x="1976" arabic-form="isolated" 
d="M1814 893q4 1 19.5 -25.5t34 -76t35.5 -118t23.5 -151.5t-2 -176.5t-39.5 -191.5q-26 -33 -75.5 -58t-114 -44t-138 -31.5t-146.5 -21.5q-172 -20 -373 -24q-194 0 -349 13.5t-272.5 42.5t-198.5 76t-127 115q-9 17 -15.5 62t-2 116t24 167t62.5 216l67 -34
q-14 -67 -25.5 -135t-19 -125t-9 -97t5.5 -52q30 -30 89.5 -54t137 -42t165.5 -31t174.5 -20t165 -9t136.5 1q31 1 92.5 4t137 8.5t159 14.5t159.5 23t137.5 33t93.5 46q4 18 -2.5 49.5t-20 69t-30.5 77.5t-34 76t-31.5 64.5t-21.5 42.5q33 55 60 99q12 19 23 36.5t20.5 32
t16 23t8.5 9.5zM674 709q2 5 11 3q17 -3 37.5 -6l41 -6t39.5 -5t33 -2l35 45q8 14 12.5 35t6.5 41q3 23 3 47q-1 55 -4.5 118.5t-8.5 120.5t-10 99t-8 53q5 5 17.5 16.5t26 23.5t24.5 20.5t13 8.5t2.5 -3t1.5 -14q1 -12 2.5 -52.5t3.5 -92t3 -105t0 -90.5q0 -9 -1 -27
t-4.5 -40.5t-10 -46.5t-16.5 -43q29 37 67 78t79.5 75.5t83 56.5t77.5 22q41 0 69 -13.5t44.5 -34.5t24.5 -46.5t10.5 -50.5t0.5 -47t-5 -34q-10 -26 -21 -51q-9 -21 -18.5 -44t-17.5 -40q-12 -11 -36.5 -25.5t-60.5 -27t-81.5 -22t-99.5 -10.5q-24 0 -60 0.5t-75 2t-75 4
t-60 6.5q-15 9 -32 24t-31.5 31t-24 29.5t-8.5 18.5zM1319 771q3 10 5.5 26t2 35t-5 38t-17.5 34.5t-35 24.5t-56 8q-41 -2 -78 -17t-70 -37.5t-61.5 -50.5t-51 -55t-40 -50t-27.5 -37l65 -2.5t90 0.5q29 -1 70 4.5t81.5 16t75.5 26t52 36.5z" />
    <glyph glyph-name="uni0679.init" unicode="&#x679;" horiz-adv-x="618" arabic-form="initial" 
d="M-98 1201q2 5 11 3q17 -3 37.5 -6l41 -6t39.5 -5t33 -2l35 45q8 14 12.5 35t6.5 41q3 23 3 47q-1 55 -4.5 118.5t-8.5 120.5t-10 99t-8 53q5 5 17.5 16.5t26 23.5t24.5 20.5t13 8.5t2.5 -3t1.5 -14q1 -12 2.5 -52.5t3.5 -92t3 -105t0 -90.5q0 -9 -1 -27t-4.5 -40.5
t-10 -46.5t-16.5 -43q29 37 67 78t79.5 75.5t83 56.5t77.5 22q41 0 69 -13.5t44.5 -34.5t24.5 -46.5t10.5 -50.5t0.5 -47t-5 -34q-10 -26 -21 -51q-9 -21 -18.5 -44t-17.5 -40q-12 -11 -36.5 -25.5t-60.5 -27t-81.5 -22t-99.5 -10.5q-24 0 -60 0.5t-75 2t-75 4t-60 6.5
q-15 9 -32 24t-31.5 31t-24 29.5t-8.5 18.5zM547 1263q3 10 5.5 26t2 35t-5 38t-17.5 34.5t-35 24.5t-56 8q-41 -2 -78 -17t-70 -37.5t-61.5 -50.5t-51 -55t-40 -50t-27.5 -37l65 -2.5t90 0.5q29 -1 70 4.5t81.5 16t75.5 26t52 36.5zM424 904q4 1 20 -30t35 -87t36.5 -132.5
t25 -166t0 -187.5t-39.5 -196q-30 -27 -82 -46.5t-115 -32.5t-133 -19.5t-136 -6.5h-35q-27 0 -50 11q-20 9 -37 30t-19 61q2 39 18.5 60t36.5 31q23 11 51 13h31q32 0 74.5 2.5t87 6.5t88 9t78.5 10.5t57 11t25 10.5q4 18 -3 54.5t-20.5 81.5t-31.5 94t-35.5 92.5t-32 77
t-22.5 47.5q33 55 60 99q12 19 23 37t20.5 32t16 23t8.5 10z" />
    <glyph glyph-name="uni0679.medi" unicode="&#x679;" horiz-adv-x="733" arabic-form="medial" 
d="M-105 103q0 23 9 42t23.5 32.5t33.5 21t39 7.5q83 1 153 12q30 4 59.5 11.5t54.5 18t44 25t27 33.5q2 34 -5.5 79t-16.5 87q-11 48 -25 99q35 37 63 66q24 25 45 44.5t25 16.5l3.5 -17.5t8.5 -46.5t10.5 -67.5t10 -80.5t7 -85.5t1.5 -82.5q19 -29 55 -53q31 -20 83.5 -38
t136.5 -21h9v-206h-9q-68 0 -121.5 13t-94.5 35.5t-72 52t-54 62.5q-21 -32 -61.5 -61.5t-90.5 -52t-105.5 -36t-107.5 -13.5h-33q-20 0 -39 7t-33.5 20.5t-23.5 32.5t-9 43zM30 921q2 5 11 3q17 -3 37.5 -6l41 -6t39.5 -5t33 -2l35 45q8 14 12.5 35t6.5 41q3 23 3 47
q-1 55 -4.5 118.5t-8.5 120.5t-10 99t-8 53q5 5 17.5 16.5t26 23.5t24.5 20.5t13 8.5t2.5 -3t1.5 -14q1 -12 2.5 -52.5t3.5 -92t3 -105t0 -90.5q0 -9 -1 -27t-4.5 -40.5t-10 -46.5t-16.5 -43q29 37 67 78t79.5 75.5t83 56.5t77.5 22q41 0 69 -13.5t44.5 -34.5t24.5 -46.5
t10.5 -50.5t0.5 -47t-5 -34q-10 -26 -21 -51q-9 -21 -18.5 -44t-17.5 -40q-12 -11 -36.5 -25.5t-60.5 -27t-81.5 -22t-99.5 -10.5q-24 0 -60 0.5t-75 2t-75 4t-60 6.5q-15 9 -32 24t-31.5 31t-24 29.5t-8.5 18.5zM675 983q3 10 5.5 26t2 35t-5 38t-17.5 34.5t-35 24.5t-56 8
q-41 -2 -78 -17t-70 -37.5t-61.5 -50.5t-51 -55t-40 -50t-27.5 -37l65 -2.5t90 0.5q29 -1 70 4.5t81.5 16t75.5 26t52 36.5z" />
    <glyph glyph-name="uni0679.fina" unicode="&#x679;" horiz-adv-x="2169" arabic-form="final" 
d="M1970 612l57 -18q-6 -41 -10 -66.5t-8.5 -46.5t-11 -45t-16.5 -62q1 -62 23.5 -96t54 -50t64.5 -19t56 -3v-206q-97 1 -150.5 24.5t-77.5 53.5q-20 25 -31.5 45.5t-18 39t-9 36.5t-4.5 38q-53 -53 -122 -93t-147.5 -69.5t-165 -49t-175.5 -31t-177.5 -16.5t-171.5 -5
q-82 0 -168.5 6.5t-170.5 19t-162.5 31.5t-144 44t-115.5 56.5t-77 69.5q-5 20 -11 68t-2 121t22.5 171t61.5 218l68 -36q-14 -68 -25.5 -133.5t-18.5 -119t-9.5 -91t2.5 -47.5q30 -30 83.5 -53t120 -40.5t141 -29.5t147 -20t138.5 -12t114 -5q57 -1 135.5 3.5t168 15.5
t183.5 28t181.5 42t162.5 57t126 72q21 42 33.5 68t22 47t17 40.5t17.5 47.5zM685 657q2 5 11 3q17 -3 37.5 -6l41 -6t39.5 -5t33 -2l35 45q8 14 12.5 35t6.5 41q3 23 3 47q-1 55 -4.5 118.5t-8.5 120.5t-10 99t-8 53q5 5 17.5 16.5t26 23.5t24.5 20.5t13 8.5t2.5 -3
t1.5 -14q1 -12 2.5 -52.5t3.5 -92t3 -105t0 -90.5q0 -9 -1 -27t-4.5 -40.5t-10 -46.5t-16.5 -43q29 37 67 78t79.5 75.5t83 56.5t77.5 22q41 0 69 -13.5t44.5 -34.5t24.5 -46.5t10.5 -50.5t0.5 -47t-5 -34q-10 -26 -21 -51q-9 -21 -18.5 -44t-17.5 -40q-12 -11 -36.5 -25.5
t-60.5 -27t-81.5 -22t-99.5 -10.5q-24 0 -60 0.5t-75 2t-75 4t-60 6.5q-15 9 -32 24t-31.5 31t-24 29.5t-8.5 18.5zM1330 719q3 10 5.5 26t2 35t-5 38t-17.5 34.5t-35 24.5t-56 8q-41 -2 -78 -17t-70 -37.5t-61.5 -50.5t-51 -55t-40 -50t-27.5 -37l65 -2.5t90 0.5
q29 -1 70 4.5t81.5 16t75.5 26t52 36.5z" />
    <glyph glyph-name="uni0629" unicode="&#x629;" horiz-adv-x="874" arabic-form="isolated" 
d="M802 353q-21 -183 -115.5 -275.5t-257.5 -92.5q-70 0 -129.5 23.5t-100.5 69t-59 113t-4 154.5q5 29 23.5 78.5t44.5 107t56 117t56.5 107t46.5 78t27 30.5q3 0 35 -15t77.5 -44t98 -72.5t97.5 -100t74.5 -126.5t29.5 -152zM436 166q37 0 84 8.5t91 25.5t80 42t52 58
q-2 37 -25 75t-59 74.5t-80.5 69t-89 58.5t-84 43.5t-65.5 24.5q-80 -102 -104 -189.5t-5.5 -152t73.5 -101t132 -36.5zM277 1026l-138 139l137 139l140 -140zM556 1025l-140 139l139 139l138 -140z" />
    <glyph glyph-name="uni0629.fina" unicode="&#x629;" horiz-adv-x="919" arabic-form="final" 
d="M935 206v-206h-39q-84 4 -139.5 30.5t-90 65.5t-52.5 86.5t-26 93.5l-133 -131q-6 -2 -34.5 -5t-71 -2t-96 9t-109.5 28q-12 16 -23 42.5t-19 59t-12.5 68t-4.5 68.5t6 61t20 45q27 31 72 74t97.5 88t107 86.5t98.5 71.5q-3 19 -4 33.5t-2 25.5l-3 21l155 135
q25 -195 46 -353q9 -68 18 -134t17 -121t14 -93.5t9 -50.5q4 -18 16 -35.5t33.5 -31t54 -21.5t78.5 -8h17zM171 444q-4 -50 31 -78t93.5 -39.5t134 -10.5t152.5 9q-8 54 -18.5 105t-21.5 98.5t-20.5 90t-13.5 79.5q-62 -31 -115.5 -62.5t-97 -63.5t-75 -64t-49.5 -64z
M306 1214l-138 139l137 139l140 -140zM585 1213l-140 139l139 139l138 -140z" />
    <glyph glyph-name="uni0686.init" unicode="&#x686;" horiz-adv-x="1315" arabic-form="initial" 
d="M-104 103q2 38 18.5 59t35.5 31q22 11 50 13q43 -1 104 3.5t135 15.5t157.5 29t171 45t176 63t171.5 83l50 28q-55 18 -122.5 40t-137.5 44.5t-136.5 43.5t-119 37.5t-85.5 26.5t-35 10q-5 0 -14.5 -2t-23 -10t-31 -24t-38.5 -43q-15 -19 -29 -40t-30 -43l-61 51
q39 67 70 121.5t62 93t66 60t83 22.5q45 1 100.5 -16t122 -44t144.5 -60t168.5 -64t194 -56t221.5 -36q0 -11 -7 -28.5t-17.5 -38t-23 -41t-23 -37.5t-17.5 -28t-6 -12q-62 -26 -141 -66t-173 -84.5t-201 -89t-224.5 -80t-243.5 -58t-257 -22.5q-27 1 -49 12
q-19 10 -36 30.5t-19 60.5zM588 -224l-139 -140l-138 140l138 138zM894 -224l-137 -139l-140 139l140 139zM603 -570l-132 131l132 132l131 -131z" />
    <glyph glyph-name="uni0686.medi" unicode="&#x686;" horiz-adv-x="1369" arabic-form="medial" 
d="M1311 206h80v-206h-80q-79 0 -130.5 12.5t-86 34t-56.5 49.5t-42 59q-6 17 -10 31t-7 26.5t-5 26t-4 30.5q-97 -44 -211 -92t-238.5 -87.5t-256.5 -64.5t-264 -25q-27 1 -49 12q-19 10 -36 31t-19 60q2 38 18.5 59t35.5 31q22 11 50 13q64 -2 169 9.5t234 42t273.5 82.5
t288.5 133q-55 18 -122.5 40.5t-137.5 45t-136.5 43.5t-119 37.5t-85.5 26.5t-35 10q-5 0 -14.5 -2t-23 -10t-31 -24t-38.5 -43q-15 -19 -29 -40.5t-30 -42.5l-66 44q39 67 70.5 122.5t63.5 95.5t68 62.5t84 23.5q45 1 100.5 -16t122 -44t144.5 -60t168.5 -64t194 -56.5
t221.5 -36.5q5 -2 3 -8q-1 -4 -3 -7q-7 -17 -22 -45.5t-31 -56.5q-18 -33 -41 -68q-18 -4 -36.5 -13.5t-39 -21.5t-43 -24.5t-47.5 -23.5q8 -47 34.5 -70t61.5 -32t73 -8.5t68 -0.5zM641 -221l-139 -140l-138 140l138 138zM947 -221l-137 -139l-140 139l140 139zM656 -567
l-132 131l132 132l131 -131z" />
    <glyph glyph-name="uni062C" unicode="&#x62c;" horiz-adv-x="1428" arabic-form="isolated" 
d="M1338 451q-181 0 -327.5 -22.5t-262.5 -61t-204 -90t-151 -110t-102.5 -121.5t-59.5 -123q18 -98 66 -170t117.5 -121.5t155 -79.5t178 -44t186.5 -14.5t181 8t162 24.5t128 34v-2q-11 -29 -22.5 -59t-21.5 -55q-11 -29 -22 -56q-74 -38 -166 -62.5t-192.5 -33.5
t-203.5 -1.5t-199 34t-179 72.5t-142.5 114t-90.5 159t-23 207v1q10 53 27.5 117t50 131.5t84.5 135t132 126.5t192 106.5t264 74.5l28 3q-55 18 -113 37t-113 36.5t-104.5 32.5t-87.5 26.5t-61 18t-25 6.5q-5 0 -14 -2t-22.5 -10t-31 -23.5t-38.5 -42.5q-16 -20 -30 -41
t-30 -43l-68 45q39 67 71 122.5t64.5 95.5t68.5 62.5t84 23.5q45 1 101 -16.5t123 -44.5t146 -60.5t170 -64.5t195.5 -56.5t222.5 -36.5q5 2 0 -15q-7 -17 -21.5 -45.5t-30.5 -56.5q-18 -33 -39 -69zM1007 -52l-146 -146l-147 147l146 146z" />
    <glyph glyph-name="uni062C.init" unicode="&#x62c;" horiz-adv-x="1342" arabic-form="initial" 
d="M-104 103q2 38 18.5 59t35.5 31q22 11 50 13q43 -1 104 3.5t135 15.5t157.5 29t171 45t176 63t171.5 83l50 28q-55 18 -122.5 40t-137.5 44.5t-136.5 43.5t-119 37.5t-85.5 26.5t-35 10q-5 0 -14.5 -2t-23 -10t-31 -24t-38.5 -43q-15 -19 -29 -40t-30 -43l-61 51
q39 67 70 121.5t62 93t66 60t83 22.5q45 1 100.5 -16t122 -44t144.5 -60t168.5 -64t194 -56t221.5 -36q0 -11 -7 -28.5t-17.5 -38t-23 -41t-23 -37.5t-17.5 -28t-6 -12q-62 -26 -141 -66t-173 -84.5t-201 -89t-224.5 -80t-243.5 -58t-257 -22.5q-27 1 -49 12
q-19 10 -36 30.5t-19 60.5zM742 -254l-146 -146l-147 147l146 146z" />
    <glyph glyph-name="uni062C.medi" unicode="&#x62c;" horiz-adv-x="1356" arabic-form="medial" 
d="M1311 206h80v-206h-80q-79 0 -130.5 12.5t-86 34t-56.5 49.5t-42 59q-6 17 -10 31t-7 26.5t-5 26t-4 30.5q-97 -44 -211 -92t-238.5 -87.5t-256.5 -64.5t-264 -25q-27 1 -49 12q-19 10 -36 31t-19 60q2 38 18.5 59t35.5 31q22 11 50 13q64 -2 169 9.5t234 42t273.5 82.5
t288.5 133q-55 18 -122.5 40.5t-137.5 45t-136.5 43.5t-119 37.5t-85.5 26.5t-35 10q-5 0 -14.5 -2t-23 -10t-31 -24t-38.5 -43q-15 -19 -29 -40.5t-30 -42.5l-66 44q39 67 70.5 122.5t63.5 95.5t68 62.5t84 23.5q45 1 100.5 -16t122 -44t144.5 -60t168.5 -64t194 -56.5
t221.5 -36.5q5 -2 3 -8q-1 -4 -3 -7q-7 -17 -22 -45.5t-31 -56.5q-18 -33 -41 -68q-18 -4 -36.5 -13.5t-39 -21.5t-43 -24.5t-47.5 -23.5q8 -47 34.5 -70t61.5 -32t73 -8.5t68 -0.5zM750 -230l-146 -146l-147 147l146 146z" />
    <glyph glyph-name="uni062C.fina" unicode="&#x62c;" horiz-adv-x="1475" arabic-form="final" 
d="M1413 206h80v-206h-80q-87 0 -146 16.5t-97.5 46t-59.5 70t-31 90.5t-13.5 107t-5.5 118q-201 -23 -348 -76.5t-248.5 -124.5t-161.5 -153t-86 -161q18 -98 66 -169.5t117.5 -121.5t155 -79.5t178 -43.5t187 -14.5t181.5 8t162 24.5t128 34q1 -1 0 -2q-11 -29 -22.5 -59
t-21.5 -55q-11 -29 -22 -56q-74 -38 -166.5 -62.5t-193 -33.5t-204.5 -1.5t-200 34t-179 72.5t-142.5 114t-91 159t-23.5 207q12 57 30 123t51 133.5t85 133.5t131.5 124t191.5 104t264 74l29 3q-55 18 -113 37t-113.5 36t-105 32.5t-87.5 26.5t-61 18t-25 7q-5 0 -14 -2
t-22.5 -10t-31 -23.5t-38.5 -42.5q-15 -20 -29 -41t-31 -43l-64 39q39 67 70.5 123.5t63 97.5t67 64.5t83.5 24.5q46 0 102 -17t123 -44.5t145.5 -61t170 -64.5t195.5 -56t222 -36q0 -10 -6.5 -27.5t-17 -38t-22.5 -41.5l-22 -38.5t-17 -28.5t-6 -12q-43 0 -84 -1.5
t-80 -3.5q0 -69 18.5 -116.5t52 -77.5t80 -43.5t103.5 -13.5zM931 -90l-146 -146l-147 147l146 146z" />
    <glyph glyph-name="uni062E" unicode="&#x62e;" horiz-adv-x="1408" arabic-form="isolated" 
d="M1338 451q-181 0 -327.5 -22.5t-262.5 -61t-204 -90t-151 -110t-102.5 -121.5t-59.5 -123q18 -98 66 -170t117.5 -121.5t155 -79.5t178 -44t186.5 -14.5t181 8t162 24.5t128 34v-2q-11 -29 -22.5 -59t-21.5 -55q-11 -29 -22 -56q-74 -38 -166 -62.5t-192.5 -33.5
t-203.5 -1.5t-199 34t-179 72.5t-142.5 114t-90.5 159t-23 207v1q10 53 27.5 117t50 131.5t84.5 135t132 126.5t192 106.5t264 74.5l28 3q-55 18 -113 37t-113 36.5t-104.5 32.5t-87.5 26.5t-61 18t-25 6.5q-5 0 -14 -2t-22.5 -10t-31 -23.5t-38.5 -42.5q-16 -20 -30 -41
t-30 -43l-68 45q39 67 71 122.5t64.5 95.5t68.5 62.5t84 23.5q45 1 101 -16.5t123 -44.5t146 -60.5t170 -64.5t195.5 -56.5t222.5 -36.5q5 2 0 -15q-7 -17 -21.5 -45.5t-30.5 -56.5q-18 -33 -39 -69zM603 1227l-146 -146l-147 147l146 146z" />
    <glyph glyph-name="uni062E.init" unicode="&#x62e;" horiz-adv-x="1267" arabic-form="initial" 
d="M-104 103q2 38 18.5 59t35.5 31q22 11 50 13q43 -1 104 3.5t135 15.5t157.5 29t171 45t176 63t171.5 83l50 28q-55 18 -122.5 40t-137.5 44.5t-136.5 43.5t-119 37.5t-85.5 26.5t-35 10q-5 0 -14.5 -2t-23 -10t-31 -24t-38.5 -43q-15 -19 -29 -40t-30 -43l-61 51
q39 67 70 121.5t62 93t66 60t83 22.5q45 1 100.5 -16t122 -44t144.5 -60t168.5 -64t194 -56t221.5 -36q0 -11 -7 -28.5t-17.5 -38t-23 -41t-23 -37.5t-17.5 -28t-6 -12q-62 -26 -141 -66t-173 -84.5t-201 -89t-224.5 -80t-243.5 -58t-257 -22.5q-27 1 -49 12
q-19 10 -36 30.5t-19 60.5zM534 1227l-146 -146l-147 147l146 146z" />
    <glyph glyph-name="uni062E.medi" unicode="&#x62e;" horiz-adv-x="1357" arabic-form="medial" 
d="M1311 206h80v-206h-80q-79 0 -130.5 12.5t-86 34t-56.5 49.5t-42 59q-6 17 -10 31t-7 26.5t-5 26t-4 30.5q-97 -44 -211 -92t-238.5 -87.5t-256.5 -64.5t-264 -25q-27 1 -49 12q-19 10 -36 31t-19 60q2 38 18.5 59t35.5 31q22 11 50 13q64 -2 169 9.5t234 42t273.5 82.5
t288.5 133q-55 18 -122.5 40.5t-137.5 45t-136.5 43.5t-119 37.5t-85.5 26.5t-35 10q-5 0 -14.5 -2t-23 -10t-31 -24t-38.5 -43q-15 -19 -29 -40.5t-30 -42.5l-66 44q39 67 70.5 122.5t63.5 95.5t68 62.5t84 23.5q45 1 100.5 -16t122 -44t144.5 -60t168.5 -64t194 -56.5
t221.5 -36.5q5 -2 3 -8q-1 -4 -3 -7q-7 -17 -22 -45.5t-31 -56.5q-18 -33 -41 -68q-18 -4 -36.5 -13.5t-39 -21.5t-43 -24.5t-47.5 -23.5q8 -47 34.5 -70t61.5 -32t73 -8.5t68 -0.5zM515 1212l-146 -146l-147 147l146 146z" />
    <glyph glyph-name="uni062E.fina" unicode="&#x62e;" horiz-adv-x="1477" arabic-form="final" 
d="M1413 206h80v-206h-80q-87 0 -146 16.5t-97.5 46t-59.5 70t-31 90.5t-13.5 107t-5.5 118q-201 -23 -348 -76.5t-248.5 -124.5t-161.5 -153t-86 -161q18 -98 66 -169.5t117.5 -121.5t155 -79.5t178 -43.5t187 -14.5t181.5 8t162 24.5t128 34q1 -1 0 -2q-11 -29 -22.5 -59
t-21.5 -55q-11 -29 -22 -56q-74 -38 -166.5 -62.5t-193 -33.5t-204.5 -1.5t-200 34t-179 72.5t-142.5 114t-91 159t-23.5 207q12 57 30 123t51 133.5t85 133.5t131.5 124t191.5 104t264 74l29 3q-55 18 -113 37t-113.5 36t-105 32.5t-87.5 26.5t-61 18t-25 7q-5 0 -14 -2
t-22.5 -10t-31 -23.5t-38.5 -42.5q-15 -20 -29 -41t-31 -43l-64 39q39 67 70.5 123.5t63 97.5t67 64.5t83.5 24.5q46 0 102 -17t123 -44.5t145.5 -61t170 -64.5t195.5 -56t222 -36q0 -10 -6.5 -27.5t-17 -38t-22.5 -41.5l-22 -38.5t-17 -28.5t-6 -12q-43 0 -84 -1.5
t-80 -3.5q0 -69 18.5 -116.5t52 -77.5t80 -43.5t103.5 -13.5zM651 1227l-146 -146l-147 147l146 146z" />
    <glyph glyph-name="uni0630" unicode="&#x630;" horiz-adv-x="958" arabic-form="isolated" 
d="M283 889q28 48 53 86q10 16 20.5 31.5t19 27.5t15 19.5t9.5 7.5t32.5 -24t73 -66t95 -98.5t99.5 -121.5t86.5 -136t55.5 -141q3 -12 7 -52.5t2.5 -94.5t-11 -114.5t-33.5 -113.5q-4 -9 -23.5 -26t-60 -34t-104 -30t-155.5 -13q-71 0 -131.5 7t-105 17t-70.5 19t-28 14
q-13 25 -20.5 60t-10.5 67t-1 54.5t8 22.5t28.5 -8t64.5 -18.5t103.5 -19t144.5 -8.5q55 1 104 3t91 11t75.5 28t56.5 54q-9 47 -38.5 100.5t-72 109t-93.5 110.5t-102.5 104.5t-99.5 92t-84 73.5zM528 1342l-146 -146l-147 147l146 146z" />
    <glyph glyph-name="uni0630.fina" unicode="&#x630;" horiz-adv-x="1046" arabic-form="final" 
d="M1059 206v-206h-19q-44 1 -81.5 15t-69 35t-56 48t-40.5 54q-10 -14 -30.5 -38.5t-58 -48.5t-94.5 -41.5t-138 -17.5q-71 0 -131.5 6.5t-105 15.5t-70.5 17.5t-28 13.5q-13 25 -20 59t-9.5 64.5t-1 53.5t6.5 27q3 3 28 -8t68.5 -25.5t105.5 -27t139 -12.5q55 1 102.5 5.5
t86.5 17.5t67.5 36.5t45.5 61.5q-32 73 -65 141.5t-67.5 138t-71 143.5t-75.5 159q28 48 52 87q10 16 20 31.5t19 28t15 20t9 7.5q7 0 29 -48t52.5 -129t68.5 -187t79 -222q19 -47 42 -96t50 -88.5t59.5 -65t72.5 -25.5h14zM734 1343l-146 -146l-147 147l146 146z" />
    <glyph glyph-name="uni0688" unicode="&#x688;" horiz-adv-x="962" arabic-form="isolated" 
d="M291 889q28 48 53 86q10 16 20.5 31.5t19 27.5t15 19.5t9.5 7.5t32.5 -24t73 -66t95 -98.5t99.5 -121.5t86.5 -136t55.5 -141q3 -12 7 -52.5t2.5 -94.5t-11 -114.5t-33.5 -113.5q-4 -9 -23.5 -26t-60 -34t-104 -30t-155.5 -13q-71 0 -131.5 7t-105 17t-70.5 19t-28 14
q-13 25 -20.5 60t-10.5 67t-1 54.5t8 22.5t28.5 -8t64.5 -18.5t103.5 -19t144.5 -8.5q55 1 104 3t91 11t75.5 28t56.5 54q-9 47 -38.5 100.5t-72 109t-93.5 110.5t-102.5 104.5t-99.5 92t-84 73.5zM70 1269q2 5 11 3q17 -3 37.5 -6l41 -6t39.5 -5t33 -2l35 45q8 14 12.5 35
t6.5 41q3 23 3 47q-1 55 -4.5 118.5t-8.5 120.5t-10 99t-8 53q5 5 17.5 16.5t26 23.5t24.5 20.5t13 8.5t2.5 -3t1.5 -14q1 -12 2.5 -52.5t3.5 -92t3 -105t0 -90.5q0 -9 -1 -27t-4.5 -40.5t-10 -46.5t-16.5 -43q29 37 67 78t79.5 75.5t83 56.5t77.5 22q41 0 69 -13.5
t44.5 -34.5t24.5 -46.5t10.5 -50.5t0.5 -47t-5 -34q-10 -26 -21 -51q-9 -21 -18.5 -44t-17.5 -40q-12 -11 -36.5 -25.5t-60.5 -27t-81.5 -22t-99.5 -10.5q-24 0 -60 0.5t-75 2t-75 4t-60 6.5q-15 9 -32 24t-31.5 31t-24 29.5t-8.5 18.5zM715 1331q3 10 5.5 26t2 35t-5 38
t-17.5 34.5t-35 24.5t-56 8q-41 -2 -78 -17t-70 -37.5t-61.5 -50.5t-51 -55t-40 -50t-27.5 -37l65 -2.5t90 0.5q29 -1 70 4.5t81.5 16t75.5 26t52 36.5z" />
    <glyph glyph-name="uni0688.fina" unicode="&#x688;" horiz-adv-x="1051" arabic-form="final" 
d="M1059 206v-206h-19q-44 1 -81.5 15t-69 35t-56 48t-40.5 54q-10 -14 -30.5 -38.5t-58 -48.5t-94.5 -41.5t-138 -17.5q-71 0 -131.5 6.5t-105 15.5t-70.5 17.5t-28 13.5q-13 25 -20 59t-9.5 64.5t-1 53.5t6.5 27q3 3 28 -8t68.5 -25.5t105.5 -27t139 -12.5q55 1 102.5 5.5
t86.5 17.5t67.5 36.5t45.5 61.5q-32 73 -65 141.5t-67.5 138t-71 143.5t-75.5 159q28 48 52 87q10 16 20 31.5t19 28t15 20t9 7.5q7 0 29 -48t52.5 -129t68.5 -187t79 -222q19 -47 42 -96t50 -88.5t59.5 -65t72.5 -25.5h14zM102 1269q2 5 11 3q17 -3 37.5 -6l41 -6t39.5 -5
t33 -2l35 45q8 14 12.5 35t6.5 41q3 23 3 47q-1 55 -4.5 118.5t-8.5 120.5t-10 99t-8 53q5 5 17.5 16.5t26 23.5t24.5 20.5t13 8.5t2.5 -3t1.5 -14q1 -12 2.5 -52.5t3.5 -92t3 -105t0 -90.5q0 -9 -1 -27t-4.5 -40.5t-10 -46.5t-16.5 -43q29 37 67 78t79.5 75.5t83 56.5
t77.5 22q41 0 69 -13.5t44.5 -34.5t24.5 -46.5t10.5 -50.5t0.5 -47t-5 -34q-10 -26 -21 -51q-9 -21 -18.5 -44t-17.5 -40q-12 -11 -36.5 -25.5t-60.5 -27t-81.5 -22t-99.5 -10.5q-24 0 -60 0.5t-75 2t-75 4t-60 6.5q-15 9 -32 24t-31.5 31t-24 29.5t-8.5 18.5zM747 1331
q3 10 5.5 26t2 35t-5 38t-17.5 34.5t-35 24.5t-56 8q-41 -2 -78 -17t-70 -37.5t-61.5 -50.5t-51 -55t-40 -50t-27.5 -37l65 -2.5t90 0.5q29 -1 70 4.5t81.5 16t75.5 26t52 36.5z" />
    <glyph glyph-name="uni0632" unicode="&#x632;" horiz-adv-x="813" arabic-form="isolated" 
d="M512 622l1 -1q9 -7 25.5 -38.5t36 -78t39.5 -104t35.5 -116.5t24 -115t5.5 -100q-7 -92 -38.5 -178t-75.5 -162t-96 -139.5t-99 -109t-83.5 -70.5t-51.5 -25q-2 0 -6 2q-20 12 -57.5 32t-74.5 40q-44 23 -93 49q-11 9 -6.5 13t8.5 6q79 30 151 73t134.5 93.5t113.5 104
t88.5 104.5t59.5 96t27 78q-25 86 -75 170.5t-115 183.5q15 30 34 63.5t36.5 62t31.5 47.5t20 19zM665 1003l-146 -146l-147 147l146 146z" />
    <glyph glyph-name="uni0632.fina" unicode="&#x632;" horiz-adv-x="952" arabic-form="final" 
d="M949 206h14v-206h-43q-50 0 -84 2.5t-59 7.5t-43 12t-37 17v-8q-10 -95 -45 -181.5t-81.5 -160.5t-99 -133.5t-99 -100t-80 -61t-41.5 -16.5q-21 10 -58.5 29.5t-73.5 39.5q-42 23 -89 49q-11 10 -6.5 13.5t7.5 5.5q79 30 152 75.5t136.5 98.5t115 110t88 110.5t57 100
t21.5 77.5q-15 44 -33 82t-40.5 75.5t-50 79t-61.5 93.5q4 9 14 27t22 39.5t25 44t25 41t21 30t13 11.5q1 0 4 -3q4 -3 13.5 -19.5t21.5 -40.5t26 -53.5t27.5 -58.5t25.5 -54.5l20 -42.5q27 -57 96.5 -94.5t178.5 -37.5zM704 1003l-146 -146l-147 147l146 146z" />
    <glyph glyph-name="uni0691" unicode="&#x691;" horiz-adv-x="792" arabic-form="isolated" 
d="M512 622l1 -1q9 -7 25.5 -38.5t36 -78t39.5 -104t35.5 -116.5t24 -115t5.5 -100q-7 -92 -38.5 -178t-75.5 -162t-96 -139.5t-99 -109t-83.5 -70.5t-51.5 -25q-2 0 -6 2q-20 12 -57.5 32t-74.5 40q-44 23 -93 49q-11 9 -6.5 13t8.5 6q79 30 151 73t134.5 93.5t113.5 104
t88.5 104.5t59.5 96t27 78q-25 86 -75 170.5t-115 183.5q15 30 34 63.5t36.5 62t31.5 47.5t20 19zM21 885q2 5 11 3q17 -3 37.5 -6l41 -6t39.5 -5t33 -2l35 45q8 14 12.5 35t6.5 41q3 23 3 47q-1 55 -4.5 118.5t-8.5 120.5t-10 99t-8 53q5 5 17.5 16.5t26 23.5t24.5 20.5
t13 8.5t2.5 -3t1.5 -14q1 -12 2.5 -52.5t3.5 -92t3 -105t0 -90.5q0 -9 -1 -27t-4.5 -40.5t-10 -46.5t-16.5 -43q29 37 67 78t79.5 75.5t83 56.5t77.5 22q41 0 69 -13.5t44.5 -34.5t24.5 -46.5t10.5 -50.5t0.5 -47t-5 -34q-10 -26 -21 -51q-9 -21 -18.5 -44t-17.5 -40
q-12 -11 -36.5 -25.5t-60.5 -27t-81.5 -22t-99.5 -10.5q-24 0 -60 0.5t-75 2t-75 4t-60 6.5q-15 9 -32 24t-31.5 31t-24 29.5t-8.5 18.5zM666 947q3 10 5.5 26t2 35t-5 38t-17.5 34.5t-35 24.5t-56 8q-41 -2 -78 -17t-70 -37.5t-61.5 -50.5t-51 -55t-40 -50t-27.5 -37
l65 -2.5t90 0.5q29 -1 70 4.5t81.5 16t75.5 26t52 36.5z" />
    <glyph glyph-name="uni0691.fina" unicode="&#x691;" horiz-adv-x="940" arabic-form="final" 
d="M949 206h14v-206h-43q-50 0 -84 2.5t-59 7.5t-43 12t-37 17v-8q-10 -95 -45 -181.5t-81.5 -160.5t-99 -133.5t-99 -100t-80 -61t-41.5 -16.5q-21 10 -58.5 29.5t-73.5 39.5q-42 23 -89 49q-11 10 -6.5 13.5t7.5 5.5q79 30 152 75.5t136.5 98.5t115 110t88 110.5t57 100
t21.5 77.5q-15 44 -33 82t-40.5 75.5t-50 79t-61.5 93.5q4 9 14 27t22 39.5t25 44t25 41t21 30t13 11.5q1 0 4 -3q4 -3 13.5 -19.5t21.5 -40.5t26 -53.5t27.5 -58.5t25.5 -54.5l20 -42.5q27 -57 96.5 -94.5t178.5 -37.5zM35 954q2 5 11 3q17 -3 37.5 -6l41 -6t39.5 -5t33 -2
l35 45q8 14 12.5 35t6.5 41q3 23 3 47q-1 55 -4.5 118.5t-8.5 120.5t-10 99t-8 53q5 5 17.5 16.5t26 23.5t24.5 20.5t13 8.5t2.5 -3t1.5 -14q1 -12 2.5 -52.5t3.5 -92t3 -105t0 -90.5q0 -9 -1 -27t-4.5 -40.5t-10 -46.5t-16.5 -43q29 37 67 78t79.5 75.5t83 56.5t77.5 22
q41 0 69 -13.5t44.5 -34.5t24.5 -46.5t10.5 -50.5t0.5 -47t-5 -34q-10 -26 -21 -51q-9 -21 -18.5 -44t-17.5 -40q-12 -11 -36.5 -25.5t-60.5 -27t-81.5 -22t-99.5 -10.5q-24 0 -60 0.5t-75 2t-75 4t-60 6.5q-15 9 -32 24t-31.5 31t-24 29.5t-8.5 18.5zM680 1016q3 10 5.5 26
t2 35t-5 38t-17.5 34.5t-35 24.5t-56 8q-41 -2 -78 -17t-70 -37.5t-61.5 -50.5t-51 -55t-40 -50t-27.5 -37l65 -2.5t90 0.5q29 -1 70 4.5t81.5 16t75.5 26t52 36.5z" />
    <glyph glyph-name="uni0698" unicode="&#x698;" horiz-adv-x="845" arabic-form="isolated" 
d="M512 622l1 -1q9 -7 25.5 -38.5t36 -78t39.5 -104t35.5 -116.5t24 -115t5.5 -100q-7 -92 -38.5 -178t-75.5 -162t-96 -139.5t-99 -109t-83.5 -70.5t-51.5 -25q-2 0 -6 2q-20 12 -57.5 32t-74.5 40q-44 23 -93 49q-11 9 -6.5 13t8.5 6q79 30 151 73t134.5 93.5t113.5 104
t88.5 104.5t59.5 96t27 78q-25 86 -75 170.5t-115 183.5q15 30 34 63.5t36.5 62t31.5 47.5t20 19zM375 785l-138 139l137 139l140 -140zM683 785l-140 139l139 139l138 -140zM660 1138l-131 -131l-132 132l131 131z" />
    <glyph glyph-name="uni0698.fina" unicode="&#x698;" horiz-adv-x="940" arabic-form="final" 
d="M949 206h14v-206h-43q-50 0 -84 2.5t-59 7.5t-43 12t-37 17v-8q-10 -95 -45 -181.5t-81.5 -160.5t-99 -133.5t-99 -100t-80 -61t-41.5 -16.5q-21 10 -58.5 29.5t-73.5 39.5q-42 23 -89 49q-11 10 -6.5 13.5t7.5 5.5q79 30 152 75.5t136.5 98.5t115 110t88 110.5t57 100
t21.5 77.5q-15 44 -33 82t-40.5 75.5t-50 79t-61.5 93.5q4 9 14 27t22 39.5t25 44t25 41t21 30t13 11.5q1 0 4 -3q4 -3 13.5 -19.5t21.5 -40.5t26 -53.5t27.5 -58.5t25.5 -54.5l20 -42.5q27 -57 96.5 -94.5t178.5 -37.5zM406 788l-138 139l137 139l140 -140zM714 788
l-140 139l139 139l138 -140zM691 1141l-131 -131l-132 132l131 131z" />
    <glyph glyph-name="uni0634" unicode="&#x634;" horiz-adv-x="2522" arabic-form="isolated" 
d="M2310 872q5 0 17 -26.5t26.5 -71t30 -102t27 -119.5t17.5 -123.5t2 -113.5q-23 -72 -51.5 -127.5t-66 -95t-85.5 -63t-110 -30.5q-57 -1 -101 18t-77 49.5t-56 69.5t-38 79q-24 -50 -48 -88.5t-55 -66t-74 -43t-104 -18.5q-22 -1 -42 0.5t-40.5 7.5t-43.5 16t-50 25l-1 2
q0 -162 -48.5 -288.5t-138.5 -213t-219.5 -129.5t-291.5 -38q-100 3 -191.5 28.5t-163 80t-117 139.5t-54 207t26 283.5t123.5 367.5l73 -37q-36 -102 -65.5 -202.5t-41.5 -193t-0.5 -172.5t58 -140t133 -96t224.5 -40q135 4 241 36.5t180.5 96t114.5 158.5t43 224
q-54 115 -90 200t-55 131q18 30 40.5 65.5t42 65t33.5 46.5t16 11q25 -60 42 -109.5t34 -95.5q28 -68 51.5 -109.5t49.5 -66t57.5 -37t76.5 -21.5q52 6 86.5 24.5t56.5 46.5t34.5 65t21 81t15.5 93.5t17 103.5l98 -4q-1 -68 -5.5 -126t-10.5 -114q9 -20 25.5 -49.5t44 -56.5
t67.5 -45.5t96 -16.5q15 1 46 3.5t64.5 13t63 32.5t41.5 63q-1 32 -10.5 69.5t-23.5 75t-31 73.5t-33 65.5t-29.5 50t-19.5 28.5q31 54 57 97q11 18 22 35.5t20.5 31t16 22t9.5 8.5zM1695 846l-138 139l137 139l140 -140zM2003 846l-140 139l139 139l138 -140zM1980 1199
l-131 -131l-132 132l131 131z" />
    <glyph glyph-name="uni0634.init" unicode="&#x634;" horiz-adv-x="1450" arabic-form="initial" 
d="M1250 871q5 0 16 -26.5t24.5 -70.5t27 -101.5t23.5 -119t15 -123.5t1 -114q-23 -71 -51.5 -130t-66 -101t-87 -64.5t-113.5 -20.5q-56 1 -95 16t-66 40.5t-44.5 59.5t-28.5 72q-23 -43 -51.5 -78t-64 -59t-78 -37t-94.5 -12q-33 -1 -66.5 8t-62 32t-49 63t-26.5 101
q-12 -53 -40.5 -89t-64 -59.5t-73.5 -35.5t-69.5 -17.5t-52 -5.5t-20.5 1v206q84 0 139 32.5t91.5 87.5t60 127.5t45.5 153.5l81 -19q-1 -17 -4 -33q-2 -14 -5 -28.5t-5 -25.5q-29 -143 5 -215t122 -80q51 2 89 18.5t66 44t48 63.5t35.5 77.5t29.5 87.5t30 92l92 -20
q-5 -48 -17 -101.5t-28 -113.5q9 -29 19.5 -55.5t29.5 -47t49.5 -33t78.5 -12.5q26 0 58 2t63 12.5t56 32.5t37 63q-2 49 -19 107t-39.5 110.5t-44.5 92t-32 51.5l53 96q10 18 21 36t20.5 31.5t17.5 22t14 8.5zM703 844l-138 139l137 139l140 -140zM1011 844l-140 139
l139 139l138 -140zM988 1197l-131 -131l-132 132l131 131z" />
    <glyph glyph-name="uni0634.medi" unicode="&#x634;" horiz-adv-x="1597" arabic-form="medial" 
d="M1378 347q32 -80 88 -111t135 -30v-206q-69 1 -116 17t-78 43t-48.5 63.5t-26.5 78.5q-52 -101 -114.5 -150t-147.5 -51q-55 1 -92 16.5t-62.5 41.5t-43 62t-35.5 79q-21 -41 -49 -77.5t-64 -64t-79.5 -43t-95.5 -14.5q-58 2 -94.5 27.5t-59.5 63t-35 81.5t-21 82
q-35 -77 -70 -126t-75.5 -78t-89.5 -40t-112 -11v206h34q50 -1 89.5 15t71 44t57 66.5t46.5 83t40 92.5l38 96l73 -5q-2 -11 -6 -24q-3 -11 -6.5 -27t-6.5 -33q-8 -51 -5.5 -103t18.5 -95t46.5 -73t77.5 -37q77 0 126 35t82.5 92t57 129t49.5 146l72 -7q-5 -50 -18.5 -114
t-32.5 -133q7 -32 25 -59.5t42.5 -47t53 -30.5t56.5 -11q50 1 87 19.5t63.5 48.5t44 69.5t29 83.5t18.5 91t12 91l80 -2q1 -26 -0.5 -60t-5.5 -70t-9.5 -70t-12.5 -60zM722 790l-138 139l137 139l140 -140zM1030 790l-140 139l139 139l138 -140zM1007 1143l-131 -131
l-132 132l131 131z" />
    <glyph glyph-name="uni0634.fina" unicode="&#x634;" horiz-adv-x="2655" arabic-form="final" 
d="M2434 356q32 -80 93.5 -115t141.5 -35v-206q-100 0 -170 55.5t-121 162.5q-38 -99 -107 -157t-159 -60h-5q-66 0 -105.5 19t-62.5 50.5t-36.5 71t-28.5 78.5q-19 -49 -43 -88.5t-56.5 -68t-73 -45t-92.5 -18.5q-47 -2 -91.5 8t-96.5 42q1 -11 1 -12.5t0 1t-0.5 6.5
l-0.5 4q-2 -167 -49.5 -293t-139 -210t-225 -125.5t-305.5 -39.5q-97 4 -185.5 31t-157 82.5t-111 141.5t-49 208t29 282.5t124.5 364.5l67 -41q-39 -110 -67.5 -215t-38 -198.5t6 -172.5t65 -136.5t138.5 -89.5t227 -33q135 4 239.5 41.5t175.5 104t107 160t34 210.5
q-23 57 -46 107t-43 92t-36 75.5t-25 56.5q36 57 65 101q12 19 24 36t22 30t16.5 19.5t7.5 3.5q25 -63 42.5 -111.5t35.5 -93.5q28 -68 52 -109.5t50.5 -66.5t59 -38t77.5 -22q51 6 86.5 25.5t58.5 49t37 68t24 84t17.5 96t17.5 104.5l90 -16q-5 -58 -9 -116.5t-16 -125.5
q9 -20 22.5 -48t37 -54t60.5 -44t93 -18q52 0 92.5 33t72.5 88.5t58.5 129.5t52.5 155l83 -23q-12 -47 -19.5 -80t-13.5 -59t-10.5 -48t-9.5 -46zM1758 855l-138 139l137 139l140 -140zM2066 855l-140 139l139 139l138 -140zM2043 1208l-131 -131l-132 132l131 131z" />
    <glyph glyph-name="uni0636" unicode="&#x636;" horiz-adv-x="2566" arabic-form="isolated" 
d="M2191 846q64 4 110.5 -10t80 -39t54.5 -58t34 -68q29 -83 25 -189q-10 -33 -23 -72.5t-28 -79t-31.5 -76.5t-33.5 -66q-53 -56 -122.5 -94.5t-147 -62.5t-160.5 -34.5t-163 -11.5t-154 7t-133.5 22.5t-101.5 33t-58 39.5q1 -150 -43.5 -273.5t-132.5 -212t-218.5 -136.5
t-301.5 -45q-97 4 -187.5 29t-162 77.5t-118 136.5t-55.5 206t25.5 285t124.5 373l69 -39q-33 -101 -61.5 -201.5t-40.5 -193t-2 -173t55 -141t130.5 -96.5t223.5 -40q135 4 245 38.5t186.5 99t116 159.5t33.5 220q-55 116 -91 199.5t-55 129.5q18 30 40 65.5t41.5 64.5
t34 46.5t17.5 10.5q8 -20 21 -53.5t29 -74t33.5 -83t35.5 -80.5t35 -67t32 -42q33 36 83 91t111.5 117t133.5 124.5t149 114t157.5 85.5t158.5 38zM2368 339q16 74 10.5 132t-36 96.5t-87.5 55.5t-143 10q-69 -14 -136.5 -42.5t-130 -65t-118.5 -78.5t-101.5 -83.5
t-79 -79.5t-52.5 -66q18 -5 70 -14.5t125.5 -16t162.5 -6t180 15.5t178 48.5t158 93.5zM2256 1158l-146 -146l-147 147l146 146z" />
    <glyph glyph-name="uni0636.init" unicode="&#x636;" horiz-adv-x="1564" arabic-form="initial" 
d="M1205 830q68 4 116.5 -10.5t81.5 -42t52.5 -64t28.5 -75.5q22 -92 5 -210q-20 -66 -45 -136.5t-55 -128.5q-41 -46 -98.5 -78.5t-124.5 -53.5t-140.5 -31.5t-146.5 -12.5t-141.5 3t-127 15t-103 24t-67.5 30q-39 48 -71.5 101t-41.5 106q-20 -74 -45.5 -124t-63 -81.5
t-90.5 -45.5t-128 -15q-28 2 -51 13q-20 10 -36.5 30.5t-17.5 58.5q2 39 18 60t36 31q23 11 51 13q67 0 114 15.5t80 43.5t55 66t40 83t35 95t39 101l62 -18l-3 -12q-2 -6 -4.5 -14t-4.5 -19q-24 -120 -7.5 -195t78.5 -113q22 34 62 89.5t94 119t119.5 129.5t138.5 120.5
t150.5 91t156.5 41.5zM1377 338q16 73 11.5 129t-34.5 91.5t-86.5 50.5t-142.5 7q-69 -14 -132 -42t-119.5 -64t-104.5 -77.5t-87.5 -82t-69 -78t-48.5 -65.5q18 -5 65.5 -14t114.5 -14t148 -3.5t165 18t167 50.5t153 94zM1275 1158l-146 -146l-147 147l146 146z" />
    <glyph glyph-name="uni0636.medi" unicode="&#x636;" horiz-adv-x="1553" arabic-form="medial" 
d="M1409 206h156v-206h-95q-38 0 -73.5 -0.5t-48.5 0.5q-24 1 -57.5 1.5t-66 2t-59 4t-36.5 7.5q-59 -20 -127 -31t-138 -14.5t-138.5 0.5t-128.5 13.5t-107.5 24.5t-75.5 34q-44 60 -61.5 118.5t-24.5 106.5q-20 -72 -48.5 -122.5t-68.5 -82.5t-92 -47t-119 -15
q-29 3 -51 14q-20 10 -35.5 31t-17.5 59q2 39 17.5 59.5t35.5 30.5q22 11 51 12q69 0 117 15.5t81 43.5t55 66t39.5 83t33.5 95t37 102l62 -17l-3 -12q-2 -6 -3.5 -15t-3.5 -20q-25 -120 -9 -196.5t78 -114.5q22 34 62.5 90t94.5 120.5t119.5 131t138.5 121.5t151 91.5
t156 40.5q69 4 118 -11.5t82 -43t52 -64t28 -74.5q22 -91 4 -207q-17 -59 -36 -112t-45 -113zM565 209q18 -5 65.5 -13.5t114.5 -14t148 -4t165 18t167 50.5t153 94q16 74 11.5 129.5t-34 90.5t-86 49.5t-142.5 7.5q-69 -14 -132.5 -41.5t-119.5 -63.5t-104.5 -77t-88 -82
t-69 -78.5t-48.5 -65.5zM1297 1163l-146 -146l-147 147l146 146z" />
    <glyph glyph-name="uni0636.fina" unicode="&#x636;" horiz-adv-x="2533" arabic-form="final" 
d="M2525 206h17v-206h-17q-77 0 -136 16t-99 62q-80 -48 -174.5 -75t-191.5 -38t-191 -7.5t-171 17.5t-132 35t-74 46q0 -150 -44.5 -272.5t-132 -208.5t-218 -132.5t-301.5 -43.5q-98 3 -188.5 28t-162 78t-118 136.5t-56 205.5t25 285t124.5 373l70 -38
q-33 -101 -61.5 -201t-40.5 -192.5t-1.5 -173t55.5 -141t130.5 -97t223.5 -40.5q135 4 244.5 38.5t186 99.5t116 159.5t33.5 219.5q-54 116 -90.5 199.5t-54.5 128.5q18 30 40 65.5t41.5 65t33.5 47t17 11.5q8 -20 21 -52t29 -70t33.5 -78t35.5 -75.5t35.5 -63t32.5 -39.5
q33 36 82.5 89.5t111.5 113t134 119t149 108.5t157 81.5t159 36.5q64 3 110.5 -10.5t80 -38.5t54.5 -58t34 -68q29 -83 25 -190q-15 -50 -36 -110t-45 -114q3 -6 13 -12t23 -10.5t28.5 -7t29.5 -1.5zM1510 222q18 -5 70 -14.5t126 -16t162.5 -6t180 15.5t178.5 48.5
t158 93.5q16 73 10.5 127.5t-36 88.5t-87.5 47t-144 5q-69 -14 -136.5 -40.5t-130 -60t-118 -72.5t-101 -77.5t-79.5 -74.5t-53 -64zM2250 1169l-146 -146l-147 147l146 146z" />
    <glyph glyph-name="uni0638" unicode="&#x638;" horiz-adv-x="1481" arabic-form="isolated" 
d="M12 235q2 6 9 7.5t15 -0.5q36 -6 81 -13t90.5 -12.5t87 -9.5t70.5 -5l73 94q17 31 25 75t10 86q3 48 1 99q-2 76 -6 165t-10 179t-12.5 176t-13.5 155.5t-13 118t-11 63.5q10 11 36 35.5t54 49t51.5 42.5t28.5 17q2 0 4 -6t4 -29q1 -17 3 -64.5t4.5 -113t5 -144t4 -156
t2 -148.5t-0.5 -123q0 -18 -0.5 -57t-5.5 -86.5t-15.5 -97.5t-31.5 -91q61 78 128.5 152.5t140 133.5t148 94.5t151.5 35.5q87 0 145 -24t93.5 -62t52 -85t21 -93.5t0.5 -88t-9 -67.5q-20 -50 -40 -98q-17 -41 -36.5 -87.5t-34.5 -81.5q-25 -24 -68.5 -53.5t-109 -56
t-153 -45.5t-200.5 -22q-33 -1 -78.5 -1t-97.5 1t-107 3.5t-106.5 5.5t-97.5 7.5t-80 9.5q-32 18 -68 50.5t-66.5 66t-49.5 61.5t-17 38zM1303 348q6 21 11.5 51.5t5 64t-10.5 66.5t-36.5 58.5t-73 40t-118.5 12.5q-77 -3 -147 -29t-132 -65.5t-116 -89t-98 -98t-78 -92
t-56 -72.5q55 0 137.5 -3t190.5 -1q60 -2 135.5 6.5t149.5 27.5t137 49.5t99 73.5zM1242 1181l-146 -146l-147 147l146 146z" />
    <glyph glyph-name="uni0638.init" unicode="&#x638;" horiz-adv-x="1191" arabic-form="initial" 
d="M-104 108q0 22 9 40t23.5 31t33 20t38.5 7h109l73 97q17 31 24.5 74.5t9.5 85.5q3 48 1 99q-1 77 -5 166t-10 179t-13 175.5t-13.5 155t-13 117.5t-11.5 64q10 11 36 35.5t54 49t51.5 43t28.5 17.5q3 -1 4.5 -7t3.5 -29q1 -17 3 -64t4.5 -113t5 -144t4 -156t2 -149
t-0.5 -123q0 -18 -0.5 -57t-5 -86t-15.5 -97t-31 -91q41 48 85 97.5t90 95.5t94.5 86.5t97.5 70.5t99.5 47.5t101.5 17.5q87 0 144.5 -24t92.5 -62t50.5 -84.5t19.5 -93t-0.5 -88t-9.5 -67.5q-15 -41 -28 -74.5t-25 -64.5t-24.5 -62t-28.5 -67q-23 -26 -72 -57t-119 -57.5
t-158 -44.5t-187 -17h-503h-15q-20 0 -39 7t-33.5 20.5t-23 34t-8.5 46.5zM1046 354q6 21 12 51.5t5.5 64t-11 66.5t-37 58.5t-73 40.5t-118.5 13q-77 -3 -147 -28.5t-132 -65t-115.5 -88.5t-97.5 -97t-78 -91t-56 -72q55 -1 138.5 0t190.5 0q59 -2 134.5 4.5t149 24
t136.5 47t99 72.5zM954 1184l-146 -146l-147 147l146 146z" />
    <glyph glyph-name="uni0638.medi" unicode="&#x638;" horiz-adv-x="1241" arabic-form="medial" 
d="M1067 206h210v-206h-95q-38 0 -73 -0.5t-48 0.5q-24 0 -68.5 2.5t-90.5 6.5t-85 9.5t-51 12.5q-57 -14 -119 -23t-130 -8h-517q-20 0 -39 7t-34 21t-23.5 34t-8.5 47q1 22 10 39.5t23.5 30.5t33 20t38.5 7h108l73 97q17 31 25 74.5t10 85.5q3 48 1 99q-2 77 -6.5 166
t-11 179t-14 175.5t-14 155t-12 117.5t-8.5 64q10 11 36 35.5t54 49.5t51.5 43t28.5 17q2 -1 4 -6.5t4 -28.5q1 -17 3 -64.5t4.5 -113.5t5 -144t4 -156t2 -149t-0.5 -123q0 -18 -0.5 -57t-5.5 -86.5t-15.5 -97.5t-31.5 -90q41 48 85 97.5t90 95.5t94.5 86.5t97.5 71t99.5 48
t101.5 17.5q87 -1 144.5 -25t92.5 -61.5t51 -84.5t20 -93.5t-0.5 -88t-9.5 -67.5q-14 -36 -25.5 -66.5t-22 -59t-21.5 -56t-24 -56.5zM526 207q60 -1 135.5 6t149 24t136.5 45.5t99 71.5q6 21 11.5 51.5t5 64t-10.5 66.5t-36.5 58.5t-73 40.5t-118.5 13q-77 -3 -147 -28.5
t-132 -65t-115.5 -88.5t-97.5 -97t-78 -91.5t-56 -71.5q55 -2 138 0t190 1zM986 1181l-146 -146l-147 147l146 146z" />
    <glyph glyph-name="uni0638.fina" unicode="&#x638;" horiz-adv-x="1509" arabic-form="final" 
d="M1324 206h200v-206h-95q-38 0 -73 -0.5t-48 0.5q-15 0 -42 0.5t-59 1.5t-67 2.5t-66 3.5t-55.5 4.5t-36.5 5.5q-45 -12 -106.5 -19t-121.5 -9q-33 -1 -77 -0.5t-93 2.5t-101 5t-101 7t-93 9t-78 10q-21 12 -45 31t-46.5 40.5t-43.5 44.5t-36 43t-23.5 35.5t-6.5 21.5
q2 5 8.5 7t14.5 0q36 -6 81.5 -13t91 -13t87 -10t70.5 -5l73 95q17 31 25 75t10 86q3 48 1 99q-1 77 -6 165.5t-12 178t-14.5 174.5t-14.5 154.5t-12.5 118t-6.5 65.5l21 21t32 30.5t37 33.5t35.5 30.5t28.5 22t15 8.5q3 -1 5 -7t4 -29q1 -17 2.5 -64.5t3.5 -113.5t4 -144.5
t3.5 -156t2.5 -148.5t1 -122q0 -19 -0.5 -58t-5 -86t-15 -97t-31.5 -91q61 78 128.5 152.5t140 133t148 94.5t151.5 36q89 0 148 -23.5t94.5 -61.5t51 -85.5t19.5 -94t-0.5 -88t-9.5 -67.5q-16 -40 -33 -81q-14 -35 -31 -76.5t-32 -77.5zM780 195q60 -1 135.5 7t149 27
t137 49t98.5 73q6 21 12 51.5t5.5 64t-11 66.5t-37 58.5t-72.5 40.5t-118 13q-77 -3 -147 -29t-132.5 -65.5t-116 -89t-97.5 -98t-78 -92t-56 -72.5q55 -1 137.5 -3.5t190.5 -0.5zM1240 1181l-146 -146l-147 147l146 146z" />
    <glyph glyph-name="uni063A" unicode="&#x63a;" horiz-adv-x="1186" arabic-form="isolated" 
d="M783 -510q88 0 157 11t122 26t93 30.5t71 23.5l-80 -195q-139 -63 -273 -84.5t-253.5 -9.5t-220.5 54.5t-174.5 108t-115 151.5t-42.5 185q1 49 15.5 101t40 103.5t61 101t79 93t93 80t103.5 61.5q-58 28 -98 61t-65.5 70t-37 75.5t-11.5 76.5q0 37 16.5 83t45.5 94
t67.5 93.5t82 81t89.5 57t91 21.5q47 0 92 -10.5t86.5 -35t79.5 -65t72 -101.5l-49 -25q-8 4 -28.5 12.5t-52 17t-74 15t-95.5 6.5q-37 0 -72.5 -12t-67 -31t-58.5 -42t-46.5 -44.5t-30.5 -39.5t-11 -26q0 -16 21.5 -50t65 -71t109 -68.5t154.5 -41.5q87 26 168.5 45.5
t150.5 36.5q1 1 -1.5 -7.5t-6.5 -22.5t-9.5 -32t-11.5 -37q-14 -45 -32 -101q-77 -16 -167 -40t-181 -56.5t-176 -74.5t-153 -94.5t-112 -115.5t-52 -138q28 -65 71 -120.5t115 -96.5t180 -64.5t266 -23.5zM814 1345l-146 -146l-147 147l146 146z" />
    <glyph glyph-name="uni063A.init" unicode="&#x63a;" horiz-adv-x="985" arabic-form="initial" 
d="M0 0q-28 1 -51 12q-20 9 -37 30t-19 61q0 29 11 49t27.5 32t35 17t33.5 5q51 2 94 3q37 1 71.5 1.5t47.5 0.5q-68 51 -96 110.5t-28 119.5q0 37 16.5 83t45.5 94t67.5 93.5t82 81t90 57t90.5 21.5q48 0 92.5 -10.5t86 -35t79.5 -65t72 -100.5l-48 -26q-8 4 -28.5 12.5
t-52 17t-74.5 15t-96 6.5q-37 0 -72 -12t-66.5 -31t-58.5 -42t-46.5 -44.5t-30.5 -39.5t-11 -26q0 -10 9 -29.5t28 -42.5t48 -48.5t68 -47.5t88 -39t108 -23q51 4 94.5 11.5t82.5 19t76.5 26.5t77.5 33q1 1 -1 -6.5t-5.5 -20.5t-8 -29.5t-9.5 -33.5q-11 -40 -27 -93
q-95 -51 -203 -81t-219 -47t-222 -25t-212 -14zM618 1219l-146 -146l-147 147l146 146z" />
    <glyph glyph-name="uni063A.medi" unicode="&#x63a;" horiz-adv-x="979" arabic-form="medial" 
d="M-104 104q0 22 9 40.5t23.5 32t33 21.5t38.5 8h71q57 2 109.5 4t97 6t79.5 10.5t57 18.5l-358 298q15 55 26 99q10 38 18.5 68.5t8.5 32.5q9 9 46 29t95 40t133.5 35t161.5 13q50 -1 99 -9t93.5 -20.5t82.5 -27.5t67 -31q47 -27 63 -47q-2 -20 -5.5 -41t-10.5 -43
q-12 -41 -35 -89.5t-56 -100.5t-74.5 -105.5t-91.5 -104.5q17 -9 44.5 -15t60 -10t66.5 -6t63.5 -3t51.5 -1h31v-206q-73 0 -128 -1.5t-104.5 9t-98.5 41t-110 93.5q-47 -47 -100.5 -73.5t-113 -40t-126 -19t-138.5 -9.5h-75q-20 0 -38.5 7.5t-33 21.5t-23.5 33t-9 42z
M225 627q9 -9 28 -26t44.5 -39t55 -47.5t59.5 -50.5q69 -60 151 -130q30 22 63 55.5t65 74t60 85t46 89.5q-12 9 -46 17.5t-81.5 14t-104.5 7.5t-116.5 -2t-117.5 -15.5t-106 -32.5zM653 1227l-146 -146l-147 147l146 146z" />
    <glyph glyph-name="uni063A.fina" unicode="&#x63a;" horiz-adv-x="1164" arabic-form="final" 
d="M361 656q9 -9 25.5 -23.5t38 -33.5t45.5 -40l48 -42q55 -49 121 -106q32 13 70.5 32.5t76 42t72 47.5t60.5 49t39.5 45.5t9.5 37.5q-12 9 -43 20.5t-76 21.5t-101.5 15t-120 1t-131 -19.5t-134.5 -47.5zM624 229q-111 -35 -203 -88t-158 -109.5t-104 -109.5t-42 -88
q28 -65 72 -125t117 -106.5t182 -74.5t267 -28q88 0 154.5 7.5t117.5 18.5t88.5 22.5t68.5 19.5l-67 -172q-139 -63 -273 -84.5t-253.5 -9.5t-220 54.5t-174 108t-115 151.5t-42.5 185q1 48 13 100.5t35 105t56 102.5t76 92q2 2 23 20.5t54.5 43t77 50t90.5 42.5l-256 224
q11 52 21 93q4 17 7.5 34t6.5 30t5 21.5l2 8.5q9 9 46.5 30t97 42.5t135.5 37t162 13.5q51 -2 106.5 -12t107 -28t94 -44t66.5 -59q0 -55 -0.5 -99t-7 -81.5t-22.5 -69.5t-46.5 -63.5t-78.5 -64.5t-119 -72q8 -6 39.5 -20.5t75 -30.5t94 -28t97.5 -12q14 -1 29 -1h28h30
v-206h-117q-31 0 -75 13t-91 33.5t-91.5 45.5t-75.5 49q-12 8 -18 12.5l-10 7.5l-8 6t-12 10t-22.5 19t-39.5 33zM792 1223l-146 -146l-147 147l146 146z" />
    <glyph glyph-name="uni06A9.init" unicode="&#x6a9;" horiz-adv-x="874" arabic-form="initial" 
d="M0 0q-12 1 -29.5 6t-34 16.5t-28.5 30.5t-12 48q1 31 12 51.5t26.5 32t33.5 16.5t32 5q107 2 195.5 0t158 8t120 40.5t82.5 96.5q-36 100 -84 189t-109 170.5t-135.5 156t-163.5 146.5l46 165q240 107 428 190q80 35 157 68.5t137.5 59t97.5 40t38 12.5q1 -6 -4 -35.5
t-12 -62.5q-8 -39 -19 -86l-644 -273q78 -82 153.5 -179.5t128.5 -214t71.5 -252.5t-17.5 -294q-53 -53 -114.5 -83.5t-137.5 -45.5t-168 -18.5t-205 -3.5z" />
    <glyph glyph-name="uni06A9.medi" unicode="&#x6a9;" horiz-adv-x="1053" arabic-form="medial" 
d="M1073 207v-207h-17q-38 2 -67 8.5t-53 17t-45.5 24.5t-44.5 31q-26 27 -51.5 54.5t-48 53.5t-40.5 48t-30 37q-2 -17 -5 -37t-7.5 -41.5t-9 -42.5t-8.5 -39q-53 -53 -117 -77t-143 -32t-175 -6t-211 1q-11 0 -28.5 5t-34 16.5t-29 31t-12.5 48.5q1 31 12 51.5t27 32.5
t33.5 16.5t31.5 4.5q108 0 204.5 -0.5t175 9t136 34t87.5 74.5q-32 110 -81 203.5t-113 176t-142 157t-167 146.5l38 179q240 107 428 190q80 35 157 68.5t137.5 59t97.5 40t38 12.5q1 -6 -4 -35.5t-12 -62.5q-8 -39 -19 -86l-644 -273q94 -99 173.5 -220t145.5 -270
q76 -123 142 -201t119.5 -122.5t93.5 -61t65 -16.5h17z" />
    <glyph glyph-name="uni0641" unicode="&#x641;" horiz-adv-x="1986" arabic-form="isolated" 
d="M1828 547q-4 12 -12 38t-22 58.5t-34 67t-46.5 63t-61 46.5t-76.5 18q-44 0 -76.5 -13.5t-56.5 -34.5t-40 -46t-25.5 -48.5t-13.5 -42t-4 -25.5q10 -21 35 -36t60 -25t76 -16.5t82 -9.5q58 -5 98.5 -4.5t66.5 2.5q30 3 50 8zM1940 513q3 -27 4 -67t-1 -82t-7 -80t-14 -60
q-28 -52 -90.5 -91.5t-146 -68t-182.5 -47t-200.5 -29.5t-200 -15t-180.5 -4q-49 0 -120.5 4.5t-152.5 15t-166 27.5t-160.5 43.5t-136 62t-92.5 82.5q-13 18 -21.5 64.5t-4 119t24.5 170t64 217.5l70 -31q-14 -69 -25.5 -137.5t-19 -126t-9.5 -98t5 -52.5q24 -23 71 -43
t108.5 -36.5t133 -29.5t144 -22t142.5 -14t127 -5q65 0 155 3t189.5 10t199.5 18t185 27t147 37t85 48q1 23 -1.5 36t-5.5 15q-35 -13 -75 -22q-35 -8 -82 -12t-103 1q-78 7 -137.5 27t-97.5 55t-54.5 86t-10.5 121q1 11 6.5 43.5t19 75.5t35.5 90t55.5 86.5t80 65.5
t108.5 27q81 0 140 -41.5t99 -111t63.5 -161t34.5 -191.5zM1751 1360l-146 -146l-147 147l146 146z" />
    <glyph glyph-name="uni0641.init" unicode="&#x641;" horiz-adv-x="829" arabic-form="initial" 
d="M0 206h101q86 0 169 3.5t156.5 12.5t133.5 24.5t100 40.5q1 23 0 38t-4 17q-33 -8 -73 -13q-35 -5 -81 -6.5t-102 3.5q-158 15 -236.5 84t-61.5 188q1 11 7 43.5t19.5 75.5t35.5 90t55 86.5t79.5 65t108.5 26.5q81 1 140 -38t99 -107.5t63.5 -161t34.5 -198.5
q1 -35 1 -76t-1.5 -81.5t-4.5 -77.5t-8 -64q-32 -54 -88 -89.5t-135 -55.5t-180.5 -28t-224.5 -8h-103q-16 0 -34.5 6t-34 19t-25.5 32t-10 45q1 27 10.5 46.5t24.5 32.5t33.5 19t35.5 6zM628 514q-4 12 -11.5 38t-21 58.5t-32.5 67t-45 63t-59.5 46.5t-75.5 18
q-44 0 -77 -13.5t-57 -34.5t-40 -46t-25.5 -48.5t-14 -42t-4.5 -25.5q10 -21 35.5 -36.5t60 -25.5t76 -16.5t82.5 -9.5q58 -5 98 -4t65 3q29 3 46 8zM584 1343l-146 -146l-147 147l146 146z" />
    <glyph glyph-name="uni0641.medi" unicode="&#x641;" horiz-adv-x="868" arabic-form="medial" 
d="M2 206h9h78h35.5h47t47.5 0.5t37 0.5q-12 15 -25.5 32t-27.5 42t-27.5 59t-25.5 84q0 39 8 88t24.5 99t41.5 97.5t58.5 84.5t76 59t93.5 22q48 0 86 -20.5t67.5 -54.5t51 -78t36 -91t22.5 -94t10 -87q-9 -51 -18.5 -83t-21.5 -55.5t-27 -45t-34 -52.5q14 -3 37.5 -4.5
t49 -2t48.5 -0.5h36h96v-206h-105q-25 -1 -74.5 4t-103.5 14t-101.5 20.5t-69.5 22.5q-16 -12 -56 -23t-87.5 -19.5t-93 -13.5t-72.5 -5h-119h-7q-40 0 -72 26t-33 75q0 24 8.5 43.5t23.5 33t34 21t39 7.5zM632 456q-10 31 -30.5 68.5t-49.5 70.5t-65 55t-76 22
q-39 0 -74 -19.5t-61.5 -52t-42 -74t-15.5 -85.5q6 -23 28 -49.5t53.5 -50.5t70 -44t77.5 -30q16 6 45 21.5t58 40t52.5 56.5t29.5 71zM583 1230l-146 -146l-147 147l146 146z" />
    <glyph glyph-name="uni0641.fina" unicode="&#x641;" horiz-adv-x="2126" arabic-form="final" 
d="M2101 206h36v-206h-46q-17 -1 -47.5 1t-68 5.5t-78 8.5t-77.5 11.5t-66.5 14t-44.5 14.5q-25 -14 -75.5 -25.5t-115 -20.5t-137 -16.5t-139.5 -12.5t-123.5 -7.5t-88.5 -2.5q-162 0 -307.5 13.5t-265 43.5t-207.5 77.5t-134 115.5q-9 17 -15.5 62t-2 115.5t24 166.5
t62.5 216l67 -32q-14 -67 -26 -135t-19.5 -125t-9 -97t5.5 -52q30 -30 87.5 -54t131 -42t157.5 -30.5t167 -20t158.5 -9.5t133.5 1q97 2 187 5q38 1 78.5 2.5t78.5 3.5t72 4.5t59 5.5l1 1q-12 15 -23 32.5t-22.5 42t-22.5 59t-23 84.5q2 39 12 87.5t27 98.5t41.5 97t57 84
t73.5 59.5t90 23.5q51 1 90.5 -19.5t69.5 -54t50.5 -78t33.5 -92t20 -94.5t10 -87q-9 -51 -16 -83t-16 -56t-21.5 -45.5t-31.5 -52.5q13 -2 39 -3.5t54.5 -2t55 -0.5h39.5zM1724 267q16 6 45 21.5t58 40t52.5 56.5t29.5 70q-10 31 -30.5 69t-49.5 71t-65 55t-76 22
q-39 0 -74 -19.5t-61.5 -52t-42 -74t-15.5 -85.5q6 -23 28 -49.5t53.5 -50.5t70 -44t77.5 -30zM1869 1191l-146 -146l-147 147l146 146z" />
    <glyph glyph-name="veh.isol" unicode="&#x6a4;" horiz-adv-x="1787" arabic-form="isolated" 
d="M1828 547q-4 12 -12 38t-22 58.5t-34 67t-46.5 63t-61 46.5t-76.5 18q-44 0 -76.5 -13.5t-56.5 -34.5t-40 -46t-25.5 -48.5t-13.5 -42t-4 -25.5q10 -21 35 -36t60 -25t76 -16.5t82 -9.5q58 -5 98.5 -4.5t66.5 2.5q30 3 50 8zM1940 513q3 -27 4 -67t-1 -82t-7 -80t-14 -60
q-28 -52 -90.5 -91.5t-146 -68t-182.5 -47t-200.5 -29.5t-200 -15t-180.5 -4q-49 0 -120.5 4.5t-152.5 15t-166 27.5t-160.5 43.5t-136 62t-92.5 82.5q-13 18 -21.5 64.5t-4 119t24.5 170t64 217.5l70 -31q-14 -69 -25.5 -137.5t-19 -126t-9.5 -98t5 -52.5q24 -23 71 -43
t108.5 -36.5t133 -29.5t144 -22t142.5 -14t127 -5q65 0 155 3t189.5 10t199.5 18t185 27t147 37t85 48q1 23 -1.5 36t-5.5 15q-35 -13 -75 -22q-35 -8 -82 -12t-103 1q-78 7 -137.5 27t-97.5 55t-54.5 86t-10.5 121q1 11 6.5 43.5t19 75.5t35.5 90t55.5 86.5t80 65.5
t108.5 27q81 0 140 -41.5t99 -111t63.5 -161t34.5 -191.5zM1213 1224l-138 139l137 139l140 -140zM1521 1224l-140 139l139 139l138 -140zM1498 1577l-131 -131l-132 132l131 131z" />
    <glyph glyph-name="veh.init" unicode="&#x6a4;" horiz-adv-x="807" arabic-form="initial" 
d="M0 206h101q86 0 169 3.5t156.5 12.5t133.5 24.5t100 40.5q1 23 0 38t-4 17q-33 -8 -73 -13q-35 -5 -81 -6.5t-102 3.5q-158 15 -236.5 84t-61.5 188q1 11 7 43.5t19.5 75.5t35.5 90t55 86.5t79.5 65t108.5 26.5q81 1 140 -38t99 -107.5t63.5 -161t34.5 -198.5
q1 -35 1 -76t-1.5 -81.5t-4.5 -77.5t-8 -64q-32 -54 -88 -89.5t-135 -55.5t-180.5 -28t-224.5 -8h-103q-16 0 -34.5 6t-34 19t-25.5 32t-10 45q1 27 10.5 46.5t24.5 32.5t33.5 19t35.5 6zM628 514q-4 12 -11.5 38t-21 58.5t-32.5 67t-45 63t-59.5 46.5t-75.5 18
q-44 0 -77 -13.5t-57 -34.5t-40 -46t-25.5 -48.5t-14 -42t-4.5 -25.5q10 -21 35.5 -36.5t60 -25.5t76 -16.5t82.5 -9.5q58 -5 98 -4t65 3q29 3 46 8zM256 1138l-138 139l137 139l140 -140zM564 1138l-140 139l139 139l138 -140zM541 1491l-131 -131l-132 132l131 131z" />
    <glyph glyph-name="veh.medi" unicode="&#x6a4;" horiz-adv-x="869" arabic-form="medial" 
d="M2 206h9h78h35.5h47t47.5 0.5t37 0.5q-12 15 -25.5 32t-27.5 42t-27.5 59t-25.5 84q0 39 8 88t24.5 99t41.5 97.5t58.5 84.5t76 59t93.5 22q48 0 86 -20.5t67.5 -54.5t51 -78t36 -91t22.5 -94t10 -87q-9 -51 -18.5 -83t-21.5 -55.5t-27 -45t-34 -52.5q14 -3 37.5 -4.5
t49 -2t48.5 -0.5h36h96v-206h-105q-25 -1 -74.5 4t-103.5 14t-101.5 20.5t-69.5 22.5q-16 -12 -56 -23t-87.5 -19.5t-93 -13.5t-72.5 -5h-119h-7q-40 0 -72 26t-33 75q0 24 8.5 43.5t23.5 33t34 21t39 7.5zM632 456q-10 31 -30.5 68.5t-49.5 70.5t-65 55t-76 22
q-39 0 -74 -19.5t-61.5 -52t-42 -74t-15.5 -85.5q6 -23 28 -49.5t53.5 -50.5t70 -44t77.5 -30q16 6 45 21.5t58 40t52.5 56.5t29.5 71zM289 1003l-138 139l137 139l140 -140zM597 1003l-140 139l139 139l138 -140zM574 1356l-131 -131l-132 132l131 131z" />
    <glyph glyph-name="veh.fina" unicode="&#x6a4;" horiz-adv-x="2126" arabic-form="final" 
d="M2101 206h36v-206h-46q-17 -1 -47.5 1t-68 5.5t-78 8.5t-77.5 11.5t-66.5 14t-44.5 14.5q-25 -14 -75.5 -25.5t-115 -20.5t-137 -16.5t-139.5 -12.5t-123.5 -7.5t-88.5 -2.5q-162 0 -307.5 13.5t-265 43.5t-207.5 77.5t-134 115.5q-9 17 -15.5 62t-2 115.5t24 166.5
t62.5 216l67 -32q-14 -67 -26 -135t-19.5 -125t-9 -97t5.5 -52q30 -30 87.5 -54t131 -42t157.5 -30.5t167 -20t158.5 -9.5t133.5 1q97 2 187 5q38 1 78.5 2.5t78.5 3.5t72 4.5t59 5.5l1 1q-12 15 -23 32.5t-22.5 42t-22.5 59t-23 84.5q2 39 12 87.5t27 98.5t41.5 97t57 84
t73.5 59.5t90 23.5q51 1 90.5 -19.5t69.5 -54t50.5 -78t33.5 -92t20 -94.5t10 -87q-9 -51 -16 -83t-16 -56t-21.5 -45.5t-31.5 -52.5q13 -2 39 -3.5t54.5 -2t55 -0.5h39.5zM1724 267q16 6 45 21.5t58 40t52.5 56.5t29.5 70q-10 31 -30.5 69t-49.5 71t-65 55t-76 22
q-39 0 -74 -19.5t-61.5 -52t-42 -74t-15.5 -85.5q6 -23 28 -49.5t53.5 -50.5t70 -44t77.5 -30zM1592 1019l-138 139l137 139l140 -140zM1900 1019l-140 139l139 139l138 -140zM1877 1372l-131 -131l-132 132l131 131z" />
    <glyph glyph-name="uni0642.init" unicode="&#x642;" horiz-adv-x="835" arabic-form="initial" 
d="M0 206h101q86 0 169 3.5t156.5 12.5t133.5 24.5t100 40.5q1 23 0 38t-4 17q-33 -8 -73 -13q-35 -5 -81 -6.5t-102 3.5q-158 15 -236.5 84t-61.5 188q1 11 7 43.5t19.5 75.5t35.5 90t55 86.5t79.5 65t108.5 26.5q81 1 140 -38t99 -107.5t63.5 -161t34.5 -198.5
q1 -35 1 -76t-1.5 -81.5t-4.5 -77.5t-8 -64q-32 -54 -88 -89.5t-135 -55.5t-180.5 -28t-224.5 -8h-103q-16 0 -34.5 6t-34 19t-25.5 32t-10 45q1 27 10.5 46.5t24.5 32.5t33.5 19t35.5 6zM628 514q-4 12 -11.5 38t-21 58.5t-32.5 67t-45 63t-59.5 46.5t-75.5 18
q-44 0 -77 -13.5t-57 -34.5t-40 -46t-25.5 -48.5t-14 -42t-4.5 -25.5q10 -21 35.5 -36.5t60 -25.5t76 -16.5t82.5 -9.5q58 -5 98 -4t65 3q29 3 46 8zM248 1219l-138 139l137 139l140 -140zM527 1218l-140 139l139 139l138 -140z" />
    <glyph glyph-name="uni0642.medi" unicode="&#x642;" horiz-adv-x="868" arabic-form="medial" 
d="M2 206h9h78h35.5h47t47.5 0.5t37 0.5q-12 15 -25.5 32t-27.5 42t-27.5 59t-25.5 84q0 39 8 88t24.5 99t41.5 97.5t58.5 84.5t76 59t93.5 22q48 0 86 -20.5t67.5 -54.5t51 -78t36 -91t22.5 -94t10 -87q-9 -51 -18.5 -83t-21.5 -55.5t-27 -45t-34 -52.5q14 -3 37.5 -4.5
t49 -2t48.5 -0.5h36h96v-206h-105q-25 -1 -74.5 4t-103.5 14t-101.5 20.5t-69.5 22.5q-16 -12 -56 -23t-87.5 -19.5t-93 -13.5t-72.5 -5h-119h-7q-40 0 -72 26t-33 75q0 24 8.5 43.5t23.5 33t34 21t39 7.5zM632 456q-10 31 -30.5 68.5t-49.5 70.5t-65 55t-76 22
q-39 0 -74 -19.5t-61.5 -52t-42 -74t-15.5 -85.5q6 -23 28 -49.5t53.5 -50.5t70 -44t77.5 -30q16 6 45 21.5t58 40t52.5 56.5t29.5 71zM299 1091l-138 139l137 139l140 -140zM578 1090l-140 139l139 139l138 -140z" />
    <glyph glyph-name="uni0642" unicode="&#x642;" horiz-adv-x="1347" arabic-form="isolated" 
d="M1225 465q13 -41 25.5 -90.5t22.5 -106t16 -118t6 -125.5q0 -150 -43 -270t-128 -204t-211 -129t-291 -45q-120 0 -218.5 29t-170 88t-112 149.5t-45 213.5t31.5 279t118 347l67 -38q-34 -108 -63 -211.5t-41 -195.5t-1 -170t57.5 -136t135 -92.5t231.5 -39.5
q144 0 249.5 31.5t174.5 88t103.5 135t35.5 172.5q-20 -7 -55 -11q-30 -5 -80.5 -8t-127.5 -2q-30 0 -66 8.5t-71 25.5t-67 44t-54 64.5t-31.5 87t0.5 110.5q2 24 11 66t25 90.5t40.5 98t57.5 89.5t76 65t97 24q63 -4 111 -31t83.5 -70t60 -98t40.5 -115zM946 211
q43 0 81.5 2.5t67.5 5.5q34 4 63 8q-4 16 -11 49t-19.5 72.5t-32 81.5t-47.5 76.5t-65.5 56t-86.5 21.5q-39 0 -71 -17t-57 -42.5t-43 -56t-29.5 -59t-16 -51t-3.5 -30.5q4 -24 26.5 -45.5t58.5 -37.5t83.5 -25t101.5 -9zM804 1047l-138 139l137 139l140 -140zM1083 1046
l-140 139l139 139l138 -140z" />
    <glyph glyph-name="uni0642.fina" unicode="&#x642;" horiz-adv-x="1364" arabic-form="final" 
d="M1375 206v-206h-53q-3 -150 -47 -270.5t-129 -204.5t-210.5 -127.5t-291.5 -38.5q-188 5 -312.5 78.5t-176.5 213t-26.5 345t137.5 475.5l67 -38q-30 -100 -58.5 -199.5t-42.5 -191.5t-5.5 -172.5t52 -141.5t130 -99.5t229.5 -46.5q138 -2 243 30t177 88t111.5 133
t46.5 167h-11h-321q-55 -1 -100.5 24.5t-76 70t-42.5 105t0 130.5q11 82 38 158.5t67 135.5t91 95t110 36q57 0 102.5 -24t81 -65.5t62 -96t45.5 -115.5t31.5 -124.5t20.5 -123.5h61zM1176 207h31q-18 171 -89.5 261.5t-184.5 92.5q-32 0 -61 -14.5t-53 -38t-43 -53.5
t-32 -59t-19 -54.5t-4 -40.5q11 -32 35 -51t74 -29.5t133.5 -13t212.5 -0.5zM838 1052l-138 139l137 139l140 -140zM1117 1051l-140 139l139 139l138 -140z" />
    <glyph glyph-name="uni0646.init" unicode="&#x646;" horiz-adv-x="513" arabic-form="initial" 
d="M314 906q4 1 20 -30t35.5 -87t37 -132.5t24.5 -166t-1 -187.5t-39 -196q-8 -13 -37 -28.5t-67.5 -30t-80 -26.5t-74.5 -17q-12 -2 -34.5 -2.5t-44.5 -1.5q-26 -1 -55 -1q-28 2 -51 13q-20 10 -36 30.5t-18 58.5q2 39 18.5 60.5t36.5 31.5q22 11 50 13h80q32 0 62 1t43 3
q18 3 41.5 8t46 11t40 13t21.5 15q4 18 -3.5 54.5t-21 81.5t-31.5 94t-35.5 92.5t-32.5 77t-22 47.5q33 55 60 99q12 19 23 37t20.5 32t16 23t8.5 10zM425 1185l-146 -146l-147 147l146 146z" />
    <glyph glyph-name="uni0646.medi" unicode="&#x646;" horiz-adv-x="627" arabic-form="medial" 
d="M-103 102q0 23 9 42.5t23.5 33t33.5 21t39 7.5q67 1 123 12q24 4 48 11.5t44.5 18t36 25t22.5 33.5q1 16 -0.5 36.5t-4 42.5t-6.5 44t-8 43q-10 48 -22 99q35 38 63 67q12 12 23.5 24t21.5 20.5t16 13t8 3.5q0 -1 7.5 -38.5t16 -94t14.5 -123t3 -125.5q8 -27 34 -49
q23 -20 67 -37.5t121 -25.5h16v-206h-16q-36 0 -79 14.5t-83.5 37.5t-74 52.5t-51.5 59.5q-21 -32 -52 -62t-70.5 -52.5t-86 -36t-98.5 -13.5h-33q-20 0 -39 7t-33.5 20.5t-23.5 32t-9 42.5zM483 984l-146 -146l-147 147l146 146z" />
    <glyph glyph-name="uni0646" unicode="&#x646;" horiz-adv-x="1351" arabic-form="isolated" 
d="M1148 640q3 0 4 -1q2 -1 12.5 -23.5t25 -62t31 -93.5t30 -119.5t22.5 -139t9 -152.5q0 -150 -43 -270t-128 -204t-211 -129t-292 -45q-120 0 -218.5 29t-170 88.5t-112.5 150t-45 213.5t31.5 279t117.5 347l69 -38q-34 -108 -63 -211.5t-41 -195.5t-1 -170t57.5 -136
t135 -93t231.5 -40q152 1 263 40.5t181.5 107.5t102 158.5t24.5 192.5q-15 33 -34 73.5t-39 83.5t-40 87t-36 83q30 52 56 93q11 18 22 35t20.5 30.5t17 22t11.5 9.5zM796 482l-146 -146l-147 147l146 146z" />
    <glyph glyph-name="uni0646.fina" unicode="&#x646;" horiz-adv-x="1547" arabic-form="final" 
d="M1154 681q12 -19 26 -58.5t32 -89.5t41.5 -105t55.5 -106q33 -54 90.5 -79t143.5 -37h16v-206h-16q-48 6 -90.5 16t-76.5 22.5t-57.5 26t-35.5 27.5q0 -150 -44.5 -273t-132 -210.5t-218 -135t-302.5 -45.5q-101 1 -192.5 28t-163 83t-117.5 143.5t-54 210.5t27.5 283
t125.5 362l69 -42q-25 -75 -47.5 -151t-37.5 -148.5t-21 -140.5t3 -127.5t35.5 -109t75 -86t122 -58t177.5 -24.5q135 4 244.5 38t186 98t116 158t33.5 219q-55 116 -91 199.5t-55 129.5q18 30 39.5 66t40.5 65.5t33.5 46.5t18.5 10zM839 584l-146 -146l-147 147l146 146z
" />
    <glyph glyph-name="uni06C0" unicode="&#x6c0;" horiz-adv-x="843" arabic-form="isolated" 
d="M765 353q-21 -183 -115.5 -275.5t-257.5 -92.5q-70 0 -129.5 23.5t-100.5 69t-59 113t-4 154.5q5 29 23.5 78.5t44.5 107t56 117t56.5 107t46.5 78t27 30.5q3 0 35 -15t77.5 -44t98 -72.5t97.5 -100t74.5 -126.5t29.5 -152zM399 166q37 0 84 8.5t91 25.5t80 42t52 58
q-2 37 -25 75t-59 74.5t-80.5 69t-89 58.5t-84 43.5t-65.5 24.5q-80 -102 -104 -189.5t-5.5 -152t73.5 -101t132 -36.5zM118 989l27 86l116 66q-8 4 -23.5 16.5t-32 31.5t-29.5 43.5t-15 54.5q-1 19 7.5 43t23.5 49t35.5 49t43.5 42.5t48 30t48 11.5q50 0 93.5 -23.5
t78.5 -87.5l-25 -13q-9 4 -42 15.5t-89 11.5q-29 0 -56 -13.5t-48 -31t-33.5 -34.5t-12.5 -24q0 -8 9.5 -25.5t31 -36.5t55 -34.5t81.5 -19.5q30 4 52.5 8t42 8t36.5 8.5t35 9.5q1 1 -3.5 -14t-9.5 -33q-6 -21 -15 -49q-8 -2 -18.5 -3.5t-25.5 -4.5t-36.5 -8t-51.5 -12
q-43 -9 -77 -19t-67 -23.5t-69.5 -31.5t-84.5 -43z" />
    <glyph glyph-name="uni06C0.fina" unicode="&#x6c0;" horiz-adv-x="929" arabic-form="final" 
d="M948 206v-206h-39q-84 4 -139.5 30.5t-90 65.5t-52.5 86.5t-26 93.5l-133 -131q-6 -2 -34.5 -5t-71 -2t-96 9t-109.5 28q-12 16 -23 42.5t-19 59t-12.5 68t-4.5 68.5t6 61t20 45q27 31 72 74t97.5 88t107 86.5t98.5 71.5q-3 19 -4 33.5t-2 25.5l-3 21l155 135
q25 -195 46 -353q9 -68 18 -134t17 -121t14 -93.5t9 -50.5q4 -18 16 -35.5t33.5 -31t54 -21.5t78.5 -8h17zM184 444q-4 -50 31 -78t93.5 -39.5t134 -10.5t152.5 9q-8 54 -18.5 105t-21.5 98.5t-20.5 90t-13.5 79.5q-62 -31 -115.5 -62.5t-97 -63.5t-75 -64t-49.5 -64z
M285 1082l27 86l116 66q-8 4 -23.5 16.5t-32 31.5t-29.5 43.5t-15 54.5q-1 19 7.5 43t23.5 49t35.5 49t43.5 42.5t48 30t48 11.5q50 0 93.5 -23.5t78.5 -87.5l-25 -13q-9 4 -42 15.5t-89 11.5q-29 0 -56 -13.5t-48 -31t-33.5 -34.5t-12.5 -24q0 -8 9.5 -25.5t31 -36.5
t55 -34.5t81.5 -19.5q30 4 52.5 8t42 8t36.5 8.5t35 9.5q1 1 -3.5 -14t-9.5 -33q-6 -21 -15 -49q-8 -2 -18.5 -3.5t-25.5 -4.5t-36.5 -8t-51.5 -12q-43 -9 -77 -19t-67 -23.5t-69.5 -31.5t-84.5 -43z" />
    <glyph glyph-name="uni0624" unicode="&#x624;" horiz-adv-x="852" arabic-form="isolated" 
d="M475 196q38 0 72.5 2t60.5 4q31 3 57 6q-4 16 -11 48.5t-19.5 71.5t-32 80t-47 74.5t-65 55t-86.5 21.5h-2q-39 0 -70 -16.5t-55 -42t-41.5 -56.5t-28 -59.5t-15 -50.5t-2.5 -31q8 -48 80.5 -77.5t204.5 -29.5zM439 756h2q73 -5 127 -45.5t92 -102.5t62 -139t37 -154
t16.5 -147.5t0.5 -119.5q-6 -98 -40 -185t-83.5 -160t-107.5 -131.5t-112 -99t-96 -62t-60 -21.5q-5 0 -7 1q-21 10 -54 28.5t-65.5 38t-59 36.5t-34.5 25q-9 8 -4 11.5t7 4.5q149 57 253.5 117t175 119t111 117.5t60.5 112.5q-22 -3 -51 -5q-25 -2 -61.5 -3.5t-82.5 -1.5
q-38 0 -80.5 7.5t-82.5 24t-75 42.5t-59 62.5t-33.5 85.5t0.5 110q2 26 10.5 68.5t24.5 91t40 97.5t57 88t76 64t96 25zM215 875l27 86l116 66q-8 4 -23.5 16.5t-32 31.5t-29.5 43.5t-15 54.5q-1 19 7.5 43t23.5 49t35.5 49t43.5 42.5t48 30t48 11.5q50 0 93.5 -23.5
t78.5 -87.5l-25 -13q-9 4 -42 15.5t-89 11.5q-29 0 -56 -13.5t-48 -31t-33.5 -34.5t-12.5 -24q0 -8 9.5 -25.5t31 -36.5t55 -34.5t81.5 -19.5q30 4 52.5 8t42 8t36.5 8.5t35 9.5q1 1 -3.5 -14t-9.5 -33q-6 -21 -15 -49q-8 -2 -18.5 -3.5t-25.5 -4.5t-36.5 -8t-51.5 -12
q-43 -9 -77 -19t-67 -23.5t-69.5 -31.5t-84.5 -43z" />
    <glyph glyph-name="uni0624.fina" unicode="&#x624;" horiz-adv-x="818" arabic-form="final" 
d="M828 0h-68q-13 -95 -52 -179t-91 -153.5t-110.5 -123.5t-109.5 -90t-89 -52.5t-49 -11.5q-21 10 -54 28.5t-65 38t-58.5 36.5t-34.5 25q-9 8 -4 11.5t7 4.5q151 57 257.5 117t177.5 120t110.5 118t54.5 111h-196q-38 0 -80.5 7t-82.5 22t-75 39.5t-59 60.5t-33.5 84
t0.5 109q2 26 10.5 69t25 91t40.5 97.5t57.5 88.5t76.5 64t96 24q57 -4 103 -30.5t81 -68.5t60.5 -96.5t43.5 -114.5t28.5 -122t15.5 -118h66v-206zM474 206h179q-4 17 -11 49.5t-19.5 72t-32 81t-47 75t-65.5 55t-87 20.5q-39 0 -70 -16.5t-55 -42t-41.5 -56.5t-28 -59.5
t-15 -50.5t-2.5 -31q9 -48 86 -72.5t209 -24.5zM217 873l27 86l116 66q-8 4 -23.5 16.5t-32 31.5t-29.5 43.5t-15 54.5q-1 19 7.5 43t23.5 49t35.5 49t43.5 42.5t48 30t48 11.5q50 0 93.5 -23.5t78.5 -87.5l-25 -13q-9 4 -42 15.5t-89 11.5q-29 0 -56 -13.5t-48 -31
t-33.5 -34.5t-12.5 -24q0 -8 9.5 -25.5t31 -36.5t55 -34.5t81.5 -19.5q30 4 52.5 8t42 8t36.5 8.5t35 9.5q1 1 -3.5 -14t-9.5 -33q-6 -21 -15 -49q-8 -2 -18.5 -3.5t-25.5 -4.5t-36.5 -8t-51.5 -12q-43 -9 -77 -19t-67 -23.5t-69.5 -31.5t-84.5 -43z" />
    <glyph glyph-name="uni0649.init" unicode="&#x649;" horiz-adv-x="475" arabic-form="initial" 
d="M314 906q4 1 20 -30t35.5 -87t37 -132.5t24.5 -166t-1 -187.5t-39 -196q-8 -13 -37 -28.5t-67.5 -30t-80 -26.5t-74.5 -17q-12 -2 -34.5 -2.5t-44.5 -1.5q-26 -1 -55 -1q-28 2 -51 13q-20 10 -36 30.5t-18 58.5q2 39 18.5 60.5t36.5 31.5q22 11 50 13h80q32 0 62 1t43 3
q18 3 41.5 8t46 11t40 13t21.5 15q4 18 -3.5 54.5t-21 81.5t-31.5 94t-35.5 92.5t-32.5 77t-22 47.5q33 55 60 99q12 19 23 37t20.5 32t16 23t8.5 10z" />
    <glyph glyph-name="uni0649.medi" unicode="&#x649;" horiz-adv-x="629" arabic-form="medial" 
d="M-105 102q0 23 9 42.5t23.5 33t33.5 21t39 7.5q67 1 123 12q24 4 48 11.5t44.5 18t36 25t22.5 33.5q1 16 -0.5 36.5t-4 42.5t-6.5 44t-8 43q-10 48 -22 99q35 38 63 67q12 12 23.5 24t21.5 20.5t16 13t8 3.5q0 -1 7.5 -38.5t16 -94t14.5 -123t3 -125.5q8 -27 34 -49
q23 -20 67 -37.5t121 -25.5h16v-206h-16q-36 0 -79 14.5t-83.5 37.5t-74 52.5t-51.5 59.5q-21 -32 -52 -62t-70.5 -52.5t-86 -36t-98.5 -13.5h-33q-20 0 -39 7t-33.5 20.5t-23.5 32t-9 42.5z" />
    <glyph glyph-name="uni064A.init" unicode="&#x64a;" horiz-adv-x="651" arabic-form="initial" 
d="M424 904q4 1 20 -30t35 -87t36.5 -132.5t25 -166t0 -187.5t-39.5 -196q-30 -27 -82 -46.5t-115 -32.5t-133 -19.5t-136 -6.5h-35q-27 0 -50 11q-20 9 -37 30t-19 61q2 39 18.5 60t36.5 31q23 11 51 13h31q32 0 74.5 2.5t87 6.5t88 9t78.5 10.5t57 11t25 10.5
q4 18 -3 54.5t-20.5 81.5t-31.5 94t-35.5 92.5t-32 77t-22.5 47.5q33 55 60 99q12 19 23 37t20.5 32t16 23t8.5 10zM160 -486l-138 139l137 139l140 -140zM439 -487l-140 139l139 139l138 -140z" />
    <glyph glyph-name="uni064A.medi" unicode="&#x64a;" horiz-adv-x="738" arabic-form="medial" 
d="M-105 103q0 23 9 42t23.5 32.5t33.5 21t39 7.5q83 1 153 12q30 4 59.5 11.5t54.5 18t44 25t27 33.5q2 34 -5.5 79t-16.5 87q-11 48 -25 99q35 37 63 66q24 25 45 44.5t25 16.5l3.5 -17.5t8.5 -46.5t10.5 -67.5t10 -80.5t7 -85.5t1.5 -82.5q19 -29 55 -53q31 -20 83.5 -38
t136.5 -21h9v-206h-9q-68 0 -121.5 13t-94.5 35.5t-72 52t-54 62.5q-21 -32 -61.5 -61.5t-90.5 -52t-105.5 -36t-107.5 -13.5h-33q-20 0 -39 7t-33.5 20.5t-23.5 32.5t-9 43zM267 -505l-138 139l137 139l140 -140zM546 -506l-140 139l139 139l138 -140z" />
    <glyph glyph-name="uni064A" unicode="&#x64a;" horiz-adv-x="1592" arabic-form="isolated" 
d="M1502 25q21 -83 13 -159.5t-31 -133.5q-31 -65 -90.5 -123.5t-145 -104.5t-196.5 -77t-244 -42q-111 -7 -216.5 4.5t-194.5 49t-154.5 105.5t-96 174t-19.5 254.5t75 347.5q7 21 18 53.5t23.5 66.5t25 66t21.5 53l68 -39q-14 -38 -29.5 -86.5t-34.5 -116.5
q-13 -53 -24 -114.5t-14 -125t3.5 -127t28 -120.5t61 -104.5t102 -79.5t150.5 -45.5t207 -2.5q139 13 235.5 39t164 60.5t111.5 76.5t79 86q-23 18 -71.5 42t-108.5 50t-124 52.5t-118.5 50.5t-92 43t-44.5 29q4 115 34 219.5t80.5 191.5t119 153.5t150.5 105.5t174.5 47
t190.5 -22l-65 -199q-110 18 -196.5 -6t-155.5 -75.5t-122 -124t-95 -151.5q42 -23 105 -47.5t136.5 -53.5t153 -63.5t153.5 -76.5zM736 -1160l-138 139l137 139l140 -140zM1015 -1161l-140 139l139 139l138 -140z" />
    <glyph glyph-name="uni064A.fina" unicode="&#x64a;" horiz-adv-x="1525" arabic-form="final" 
d="M1531 0q-63 0 -108.5 1.5t-75.5 3.5q6 -5 24 -18t37 -28t33.5 -30t14.5 -23l-12 -168q-15 -43 -66.5 -98.5t-133 -106t-191 -88t-240.5 -44.5q-111 -6 -217 6t-194 50t-153.5 106.5t-95.5 175t-19.5 255t73.5 347.5l15.5 46.5t21.5 61t24.5 64t23.5 55.5l69 -36
q-12 -37 -29 -88.5t-34 -108.5q-13 -52 -24 -112.5t-14.5 -124.5t2.5 -127.5t28 -121t61.5 -105t102 -80t151 -46.5t208.5 -3q115 9 213 29.5t171.5 47.5t117.5 58.5t52 62.5q-17 15 -65 46t-116 68.5t-149 76.5t-162 72q-3 0 2.5 12.5t15 31.5t21 40.5t22.5 40.5t19.5 31.5
t10.5 12.5q105 -14 180 -21.5t137 -11.5t120 -4.5t128 -0.5v-207zM605 -1092l-138 139l137 139l140 -140zM884 -1093l-140 139l139 139l138 -140z" />
    <glyph glyph-name="uni06CC" unicode="&#x6cc;" horiz-adv-x="1559" arabic-form="isolated" 
d="M1502 25q21 -83 13 -159.5t-31 -133.5q-31 -65 -90.5 -123.5t-145 -104.5t-196.5 -77t-244 -42q-111 -7 -216.5 4.5t-194.5 49t-154.5 105.5t-96 174t-19.5 254.5t75 347.5q7 21 18 53.5t23.5 66.5t25 66t21.5 53l68 -39q-14 -38 -29.5 -86.5t-34.5 -116.5
q-13 -53 -24 -114.5t-14 -125t3.5 -127t28 -120.5t61 -104.5t102 -79.5t150.5 -45.5t207 -2.5q139 13 235.5 39t164 60.5t111.5 76.5t79 86q-23 18 -71.5 42t-108.5 50t-124 52.5t-118.5 50.5t-92 43t-44.5 29q4 115 34 219.5t80.5 191.5t119 153.5t150.5 105.5t174.5 47
t190.5 -22l-65 -199q-110 18 -196.5 -6t-155.5 -75.5t-122 -124t-95 -151.5q42 -23 105 -47.5t136.5 -53.5t153 -63.5t153.5 -76.5z" />
    <glyph glyph-name="uni06CC.init" unicode="&#x6cc;" horiz-adv-x="645" arabic-form="initial" 
d="M424 904q4 1 20 -30t35 -87t36.5 -132.5t25 -166t0 -187.5t-39.5 -196q-30 -27 -82 -46.5t-115 -32.5t-133 -19.5t-136 -6.5h-35q-27 0 -50 11q-20 9 -37 30t-19 61q2 39 18.5 60t36.5 31q23 11 51 13h31q32 0 74.5 2.5t87 6.5t88 9t78.5 10.5t57 11t25 10.5
q4 18 -3 54.5t-20.5 81.5t-31.5 94t-35.5 92.5t-32 77t-22.5 47.5q33 55 60 99q12 19 23 37t20.5 32t16 23t8.5 10zM193 -494l-138 139l137 139l140 -140zM472 -495l-140 139l139 139l138 -140z" />
    <glyph glyph-name="uni06CC.medi" unicode="&#x6cc;" horiz-adv-x="737" arabic-form="medial" 
d="M-105 103q0 23 9 42t23.5 32.5t33.5 21t39 7.5q83 1 153 12q30 4 59.5 11.5t54.5 18t44 25t27 33.5q2 34 -5.5 79t-16.5 87q-11 48 -25 99q35 37 63 66q24 25 45 44.5t25 16.5l3.5 -17.5t8.5 -46.5t10.5 -67.5t10 -80.5t7 -85.5t1.5 -82.5q19 -29 55 -53q31 -20 83.5 -38
t136.5 -21h9v-206h-9q-68 0 -121.5 13t-94.5 35.5t-72 52t-54 62.5q-21 -32 -61.5 -61.5t-90.5 -52t-105.5 -36t-107.5 -13.5h-33q-20 0 -39 7t-33.5 20.5t-23.5 32.5t-9 43zM229 -464l-138 139l137 139l140 -140zM508 -465l-140 139l139 139l138 -140z" />
    <glyph glyph-name="uni06CC.fina" unicode="&#x6cc;" horiz-adv-x="1521" arabic-form="final" 
d="M1531 0q-63 0 -108.5 1.5t-75.5 3.5q6 -5 24 -18t37 -28t33.5 -30t14.5 -23l-12 -168q-15 -43 -66.5 -98.5t-133 -106t-191 -88t-240.5 -44.5q-111 -6 -217 6t-194 50t-153.5 106.5t-95.5 175t-19.5 255t73.5 347.5l15.5 46.5t21.5 61t24.5 64t23.5 55.5l69 -36
q-12 -37 -29 -88.5t-34 -108.5q-13 -52 -24 -112.5t-14.5 -124.5t2.5 -127.5t28 -121t61.5 -105t102 -80t151 -46.5t208.5 -3q115 9 213 29.5t171.5 47.5t117.5 58.5t52 62.5q-17 15 -65 46t-116 68.5t-149 76.5t-162 72q-3 0 2.5 12.5t15 31.5t21 40.5t22.5 40.5t19.5 31.5
t10.5 12.5q105 -14 180 -21.5t137 -11.5t120 -4.5t128 -0.5v-207z" />
    <glyph glyph-name="uni06D3" unicode="&#x6d3;" horiz-adv-x="1818" arabic-form="isolated" 
d="M1700 278q-14 -47 -28 -87q-12 -34 -26 -66t-26 -43q-33 -17 -105.5 -34t-184.5 -33t-221 -23.5t-216 -7.5q-178 0 -368 18q-96 9 -174.5 20t-144.5 28q-34 9 -55 15t-34.5 11.5t-21.5 10t-16 10.5q0 4 4 25t10 50.5t13 62.5t13.5 61.5t12.5 49t10 24.5q13 13 45 30.5
t75.5 37.5t95.5 42t104.5 43t102.5 41.5t91 37.5q20 18 34 32t27 28.5t26 31t31 39.5l98 1q-106 -201 -179 -243q-16 -8 -55 -23.5t-90 -36.5t-108 -44.5t-109 -46.5t-92.5 -44.5t-59.5 -37.5q67 -28 147 -42.5t166 -25.5q87 -11 194 -16.5t238 -5.5q185 0 397 30
q107 15 201 35t178 45zM310 736l27 86l116 66q-8 4 -23.5 16.5t-32 31.5t-29.5 43.5t-15 54.5q-1 19 7.5 43t23.5 49t35.5 49t43.5 42.5t48 30t48 11.5q50 0 93.5 -23.5t78.5 -87.5l-25 -13q-9 4 -42 15.5t-89 11.5q-29 0 -56 -13.5t-48 -31t-33.5 -34.5t-12.5 -24
q0 -8 9.5 -25.5t31 -36.5t55 -34.5t81.5 -19.5q30 4 52.5 8t42 8t36.5 8.5t35 9.5q1 1 -3.5 -14t-9.5 -33q-6 -21 -15 -49q-8 -2 -18.5 -3.5t-25.5 -4.5t-36.5 -8t-51.5 -12q-43 -9 -77 -19t-67 -23.5t-69.5 -31.5t-84.5 -43z" />
    <glyph glyph-name="uni06D3.fina" unicode="&#x6d3;" horiz-adv-x="1235" arabic-form="final" 
d="M179 -237q237 -70 550 -70q163 0 319 14t308 42q-8 -17 -35 -51t-60.5 -69.5t-66.5 -65.5t-54 -39q-104 -15 -343 -15q-237 0 -388 26q-25 4 -60.5 11.5t-74 16.5t-76.5 19.5t-68.5 20t-49.5 17.5t-19 12q0 5 4.5 22.5t11 41t14 50t14.5 49.5t12.5 40t7.5 21
q90 86 198.5 155t239.5 111q65 21 144.5 36.5t169.5 26t189.5 16t204.5 5.5v-206q-117 0 -239 -5.5t-224 -17.5q-101 -12 -188 -31t-162 -45q-149 -53 -279 -138zM240 150l27 86l116 66q-8 4 -23.5 16.5t-32 31.5t-29.5 43.5t-15 54.5q-1 19 7.5 43t23.5 49t35.5 49
t43.5 42.5t48 30t48 11.5q50 0 93.5 -23.5t78.5 -87.5l-25 -13q-9 4 -42 15.5t-89 11.5q-29 0 -56 -13.5t-48 -31t-33.5 -34.5t-12.5 -24q0 -8 9.5 -25.5t31 -36.5t55 -34.5t81.5 -19.5q30 4 52.5 8t42 8t36.5 8.5t35 9.5q1 1 -3.5 -14t-9.5 -33q-6 -21 -15 -49
q-8 -2 -18.5 -3.5t-25.5 -4.5t-36.5 -8t-51.5 -12q-43 -9 -77 -19t-67 -23.5t-69.5 -31.5t-84.5 -43z" />
    <glyph glyph-name="uni0626" unicode="&#x626;" horiz-adv-x="1536" arabic-form="isolated" 
d="M1458 25q21 -83 13 -159.5t-31 -133.5q-31 -65 -90.5 -123.5t-145 -104.5t-196.5 -77t-244 -42q-111 -7 -216.5 4.5t-194.5 49t-154.5 105.5t-96 174t-19.5 254.5t75 347.5q7 21 18 53.5t23.5 66.5t25 66t21.5 53l68 -39q-14 -38 -29.5 -86.5t-34.5 -116.5
q-13 -53 -24 -114.5t-14 -125t3.5 -127t28 -120.5t61 -104.5t102 -79.5t150.5 -45.5t207 -2.5q139 13 235.5 39t164 60.5t111.5 76.5t79 86q-23 18 -71.5 42t-108.5 50t-124 52.5t-118.5 50.5t-92 43t-44.5 29q4 115 34 219.5t80.5 191.5t119 153.5t150.5 105.5t174.5 47
t190.5 -22l-65 -199q-110 18 -196.5 -6t-155.5 -75.5t-122 -124t-95 -151.5q42 -23 105 -47.5t136.5 -53.5t153 -63.5t153.5 -76.5zM377 293l27 86l116 66q-8 4 -23.5 16.5t-32 31.5t-29.5 43.5t-15 54.5q-1 19 7.5 43t23.5 49t35.5 49t43.5 42.5t48 30t48 11.5
q50 0 93.5 -23.5t78.5 -87.5l-25 -13q-9 4 -42 15.5t-89 11.5q-29 0 -56 -13.5t-48 -31t-33.5 -34.5t-12.5 -24q0 -8 9.5 -25.5t31 -36.5t55 -34.5t81.5 -19.5q30 4 52.5 8t42 8t36.5 8.5t35 9.5q1 1 -3.5 -14t-9.5 -33q-6 -21 -15 -49q-8 -2 -18.5 -3.5t-25.5 -4.5
t-36.5 -8t-51.5 -12q-43 -9 -77 -19t-67 -23.5t-69.5 -31.5t-84.5 -43z" />
    <glyph glyph-name="uni0626.init" unicode="&#x626;" horiz-adv-x="585" arabic-form="initial" 
d="M6 909l27 86l116 66q-8 4 -23.5 16.5t-32 31.5t-29.5 43.5t-15 54.5q-1 19 7.5 43t23.5 49t35.5 49t43.5 42.5t48 30t48 11.5q50 0 93.5 -23.5t78.5 -87.5l-25 -13q-9 4 -42 15.5t-89 11.5q-29 0 -56 -13.5t-48 -31t-33.5 -34.5t-12.5 -24q0 -8 9.5 -25.5t31 -36.5
t55 -34.5t81.5 -19.5q30 4 52.5 8t42 8t36.5 8.5t35 9.5q1 1 -3.5 -14t-9.5 -33q-6 -21 -15 -49q-8 -2 -18.5 -3.5t-25.5 -4.5t-36.5 -8t-51.5 -12q-43 -9 -77 -19t-67 -23.5t-69.5 -31.5t-84.5 -43zM414 904q4 1 20 -30t35 -87t36.5 -132.5t25 -166t0 -187.5t-39.5 -196
q-30 -27 -82 -46.5t-115 -32.5t-133 -19.5t-136 -6.5h-35q-27 0 -50 11q-20 9 -37 30t-19 61q2 39 18.5 60t36.5 31q23 11 51 13h31q32 0 74.5 2.5t87 6.5t88 9t78.5 10.5t57 11t25 10.5q4 18 -3 54.5t-20.5 81.5t-31.5 94t-35.5 92.5t-32 77t-22.5 47.5q33 55 60 99
q12 19 23 37t20.5 32t16 23t8.5 10z" />
    <glyph glyph-name="uni0626.medi" unicode="&#x626;" horiz-adv-x="626" arabic-form="medial" 
d="M-105 102q0 23 9 42.5t23.5 33t33.5 21t39 7.5q67 1 123 12q24 4 48 11.5t44.5 18t36 25t22.5 33.5q1 16 -0.5 36.5t-4 42.5t-6.5 44t-8 43q-10 48 -22 99q35 38 63 67q12 12 23.5 24t21.5 20.5t16 13t8 3.5q0 -1 7.5 -38.5t16 -94t14.5 -123t3 -125.5q8 -27 34 -49
q23 -20 67 -37.5t121 -25.5h16v-206h-16q-36 0 -79 14.5t-83.5 37.5t-74 52.5t-51.5 59.5q-21 -32 -52 -62t-70.5 -52.5t-86 -36t-98.5 -13.5h-33q-20 0 -39 7t-33.5 20.5t-23.5 32t-9 42.5zM89 685l27 86l116 66q-8 4 -23.5 16.5t-32 31.5t-29.5 43.5t-15 54.5
q-1 19 7.5 43t23.5 49t35.5 49t43.5 42.5t48 30t48 11.5q50 0 93.5 -23.5t78.5 -87.5l-25 -13q-9 4 -42 15.5t-89 11.5q-29 0 -56 -13.5t-48 -31t-33.5 -34.5t-12.5 -24q0 -8 9.5 -25.5t31 -36.5t55 -34.5t81.5 -19.5q30 4 52.5 8t42 8t36.5 8.5t35 9.5q1 1 -3.5 -14
t-9.5 -33q-6 -21 -15 -49q-8 -2 -18.5 -3.5t-25.5 -4.5t-36.5 -8t-51.5 -12q-43 -9 -77 -19t-67 -23.5t-69.5 -31.5t-84.5 -43z" />
    <glyph glyph-name="uni0626.fina" unicode="&#x626;" horiz-adv-x="1516" arabic-form="final" 
d="M1531 0q-63 0 -108.5 1.5t-75.5 3.5q6 -5 24 -18t37 -28t33.5 -30t14.5 -23l-12 -168q-15 -43 -66.5 -98.5t-133 -106t-191 -88t-240.5 -44.5q-111 -6 -217 6t-194 50t-153.5 106.5t-95.5 175t-19.5 255t73.5 347.5l15.5 46.5t21.5 61t24.5 64t23.5 55.5l69 -36
q-12 -37 -29 -88.5t-34 -108.5q-13 -52 -24 -112.5t-14.5 -124.5t2.5 -127.5t28 -121t61.5 -105t102 -80t151 -46.5t208.5 -3q115 9 213 29.5t171.5 47.5t117.5 58.5t52 62.5q-17 15 -65 46t-116 68.5t-149 76.5t-162 72q-3 0 2.5 12.5t15 31.5t21 40.5t22.5 40.5t19.5 31.5
t10.5 12.5q105 -14 180 -21.5t137 -11.5t120 -4.5t128 -0.5v-207zM437 123l27 86l116 66q-8 4 -23.5 16.5t-32 31.5t-29.5 43.5t-15 54.5q-1 19 7.5 43t23.5 49t35.5 49t43.5 42.5t48 30t48 11.5q50 0 93.5 -23.5t78.5 -87.5l-25 -13q-9 4 -42 15.5t-89 11.5
q-29 0 -56 -13.5t-48 -31t-33.5 -34.5t-12.5 -24q0 -8 9.5 -25.5t31 -36.5t55 -34.5t81.5 -19.5q30 4 52.5 8t42 8t36.5 8.5t35 9.5q1 1 -3.5 -14t-9.5 -33q-6 -21 -15 -49q-8 -2 -18.5 -3.5t-25.5 -4.5t-36.5 -8t-51.5 -12q-43 -9 -77 -19t-67 -23.5t-69.5 -31.5t-84.5 -43
z" />
    <glyph glyph-name="uni06C2" unicode="&#x6c2;" horiz-adv-x="841" 
d="M775 353q-21 -183 -115.5 -275.5t-257.5 -92.5q-70 0 -129.5 23.5t-100.5 69t-59 113t-4 154.5q5 29 23.5 78.5t44.5 107t56 117t56.5 107t46.5 78t27 30.5q3 0 35 -15t77.5 -44t98 -72.5t97.5 -100t74.5 -126.5t29.5 -152zM409 166q37 0 84 8.5t91 25.5t80 42t52 58
q-2 37 -25 75t-59 74.5t-80.5 69t-89 58.5t-84 43.5t-65.5 24.5q-80 -102 -104 -189.5t-5.5 -152t73.5 -101t132 -36.5zM129 872l27 86l116 66q-8 4 -23.5 16.5t-32 31.5t-29.5 43.5t-15 54.5q-1 19 7.5 43t23.5 49t35.5 49t43.5 42.5t48 30t48 11.5q50 0 93.5 -23.5
t78.5 -87.5l-25 -13q-9 4 -42 15.5t-89 11.5q-29 0 -56 -13.5t-48 -31t-33.5 -34.5t-12.5 -24q0 -8 9.5 -25.5t31 -36.5t55 -34.5t81.5 -19.5q30 4 52.5 8t42 8t36.5 8.5t35 9.5q1 1 -3.5 -14t-9.5 -33q-6 -21 -15 -49q-8 -2 -18.5 -3.5t-25.5 -4.5t-36.5 -8t-51.5 -12
q-43 -9 -77 -19t-67 -23.5t-69.5 -31.5t-84.5 -43z" />
    <glyph glyph-name="uni06C1" unicode="&#x6c1;" horiz-adv-x="835" arabic-form="isolated" 
d="M765 353q-21 -183 -115.5 -275.5t-257.5 -92.5q-70 0 -129.5 23.5t-100.5 69t-59 113t-4 154.5q5 29 23.5 78.5t44.5 107t56 117t56.5 107t46.5 78t27 30.5q3 0 35 -15t77.5 -44t98 -72.5t97.5 -100t74.5 -126.5t29.5 -152zM399 166q37 0 84 8.5t91 25.5t80 42t52 58
q-2 37 -25 75t-59 74.5t-80.5 69t-89 58.5t-84 43.5t-65.5 24.5q-80 -102 -104 -189.5t-5.5 -152t73.5 -101t132 -36.5z" />
    <glyph glyph-name="uni06C3" unicode="&#x6c3;" horiz-adv-x="822" 
d="M760 353q-21 -183 -115.5 -275.5t-257.5 -92.5q-70 0 -129.5 23.5t-100.5 69t-59 113t-4 154.5q5 29 23.5 78.5t44.5 107t56 117t56.5 107t46.5 78t27 30.5q3 0 35 -15t77.5 -44t98 -72.5t97.5 -100t74.5 -126.5t29.5 -152zM394 166q37 0 84 8.5t91 25.5t80 42t52 58
q-2 37 -25 75t-59 74.5t-80.5 69t-89 58.5t-84 43.5t-65.5 24.5q-80 -102 -104 -189.5t-5.5 -152t73.5 -101t132 -36.5zM213 929l-138 139l137 139l140 -140zM492 928l-140 139l139 139l138 -140z" />
    <glyph glyph-name="uni06BE.fina" unicode="&#x6be;" horiz-adv-x="846" arabic-form="final" 
d="M203 211q8 123 38.5 229.5t70.5 190t82.5 140t75.5 79.5q36 -12 74.5 -56t69.5 -106t48.5 -134t10.5 -141q-29 -88 -60.5 -156.5t-75 -117.5t-102 -78.5t-140.5 -39.5q11 -48 20.5 -82.5t20 -61.5t23.5 -49t29.5 -45t39 -50l52.5 -63q1 12 0.5 21t-2 18.5t-2.5 21
t-2 27.5q0 48 8 106.5t43 120.5q19 32 44 62.5t52.5 56t56 45.5t55.5 31q27 12 54.5 18t54.5 8h8v-206h-8q-67 -2 -122 -24q-24 -9 -47 -20.5t-45.5 -29.5t-42.5 -45t-38 -66q0 -34 4 -68t20 -66.5t47 -61.5t85 -54l-89 -166q-82 51 -142 99t-102.5 96t-71 96t-47 99.5
t-30.5 106t-22 115.5q-28 0 -60 -8q-27 -7 -62 -21.5t-73 -40.5l-47 128q29 33 62.5 59t66.5 44t63.5 28t53.5 11zM461 659q-19 -7 -47.5 -44.5t-55.5 -97.5t-47.5 -137t-21.5 -163q47 6 96 16t91 28.5t72.5 46.5t41.5 69q-3 24 -11 62t-23 78.5t-38.5 79t-56.5 62.5z" />
    <glyph glyph-name="uni06BE.init" unicode="&#x6be;" horiz-adv-x="1147" arabic-form="initial" 
d="M-104 102q0 24 8.5 43t23 33t33.5 21t39 7h255q-51 91 -62.5 186.5t10.5 187.5q18 34 37 64.5t37.5 54.5t34.5 42t28 28l-84 36q36 48 67 86q13 16 26 31t24 26.5t19.5 18t12.5 5.5t38.5 -13.5t88 -35t121 -54.5t138.5 -72t140 -87t125.5 -99.5t94.5 -110.5t47 -119
q-8 -42 -16.5 -86.5t-20 -87.5t-26 -83.5t-33.5 -75.5q-47 -27 -103.5 -39t-115.5 -13.5t-115.5 4.5t-103 15t-79.5 18t-45 13q-21 -15 -55.5 -24t-77 -14t-89 -7t-91.5 -2t-84.5 0.5t-66.5 0.5h-76q-21 0 -40 7.5t-33.5 21t-22.5 32t-8 41.5zM551 674q-45 3 -90.5 -7.5
t-84 -33t-67 -56t-40.5 -76.5q16 -61 46.5 -103t70.5 -71t87 -47.5t95 -31.5q5 1 16 14.5t23 30.5t24.5 35t20.5 28q13 36 7.5 79.5t-22.5 87.5t-40.5 84t-45.5 67zM1102 231q11 43 -4.5 83.5t-47 76.5t-73 67.5t-82.5 57t-77 43.5t-55 28q9 -27 13.5 -60.5t4 -68.5
t-6 -68.5t-16.5 -60.5q-4 -13 -15.5 -32.5t-25.5 -39.5q-16 -23 -35 -48q22 -8 57.5 -14t76.5 -9.5t84.5 -3t82.5 6t70.5 15.5t48.5 27z" />
    <glyph glyph-name="uni06BE.medi" unicode="&#x6be;" horiz-adv-x="785" arabic-form="medial" 
d="M0 206q30 0 60 4t76 6q5 82 22 160t40.5 148.5t52 131.5t58 109.5t56.5 82.5t49 49q24 -8 49.5 -34.5t50 -65t46 -86.5t37 -99t22.5 -102.5t2 -97.5q-29 -88 -60.5 -156.5t-75 -117.5t-102 -78.5t-139.5 -39.5q11 -48 20.5 -82t20 -61t23 -49t29.5 -45.5t39.5 -50
t52.5 -62.5q0 12 -0.5 21t-1.5 18.5t-2.5 21t-1.5 27.5q-1 47 7 106t44 122q19 32 43.5 62.5t52 56.5t56 45.5t55.5 30.5q27 12 53 17.5t53 7.5h12v-206h-12q-33 0 -62 -7t-57 -18q-24 -9 -47 -20t-45.5 -29t-42.5 -44.5t-38 -65.5q0 -35 4.5 -69.5t20 -66.5t46.5 -61.5
t85 -54.5l-89 -165q-123 76 -200.5 147.5t-124 144.5t-69.5 151.5t-38 169.5q-15 -3 -34 -6q-17 -2 -41 -4t-55 -2q-20 0 -38.5 6t-33 19t-23.5 31.5t-10 44.5q0 23 9 42t24 33t34 22t38 8zM409 659q-19 -7 -47.5 -45t-55.5 -97.5t-47.5 -136.5t-21.5 -163q47 6 96 16
t91 28.5t72.5 46.5t41.5 69q-3 24 -11 62t-23 78.5t-38.5 79t-56.5 62.5z" />
    <glyph glyph-name="fathatan_01" unicode="&#xfe70;" arabic-form="isolated" 
d="M344 1156l-392 -161v102l392 156v-97zM344 1396l-392 -161v103l392 154v-96z" />
    <glyph glyph-name="dammatan_01" unicode="&#xfe72;" arabic-form="isolated" 
d="M358 1128l-18 3l-15 1q-26 -37 -62.5 -66t-79.5 -49.5t-89.5 -31t-92.5 -10.5h-17h-8t-9 1l-2 6q15 39 21.5 72t6.5 56q0 53 -22 53q-14 0 -51 -13t-80 -36l-4 4l17 95q15 9 33.5 18t36.5 16.5t33 12.5t24 5q19 0 32 -9.5t20.5 -26t10.5 -38t3 -45.5q0 -21 -1.5 -42
t-5.5 -40q20 -1 48 5t58.5 16.5t60.5 26t54 34.5q-51 12 -83.5 26t-51.5 31.5t-26 37.5t-7 43q0 30 14 60t38 54.5t55 40t65 15.5q31 0 51.5 -15.5t33 -40.5t17.5 -55t5 -59q0 -41 -10 -75q11 -2 23 -2.5t25 -1.5zM153 1328q0 -8 5.5 -21.5t22 -28.5t48 -30.5t83.5 -27.5
q3 7 4 14t1 15q0 26 -7.5 49t-20 40t-29 27t-34.5 10q-30 0 -51.5 -15t-21.5 -32z" />
    <glyph glyph-name="kasratan_01" unicode="&#xfe74;" arabic-form="isolated" 
d="M351 -521l-392 -161v102l392 155v-96zM351 -281l-392 -161v103l392 154v-96z" />
    <glyph glyph-name="fatha_01" unicode="&#xfe76;" arabic-form="isolated" 
d="M377 1188l-392 -161v103l392 155v-97z" />
    <glyph glyph-name="damma_01" unicode="&#xfe78;" arabic-form="isolated" 
d="M283 1143q-27 -35 -63.5 -62.5t-74 -48t-73.5 -35t-61 -23.5q-7 0 -26.5 1.5t-41 4.5t-39.5 7t-22 10l-2 7q43 17 88.5 35t88.5 37.5t81 40t67 41.5q-78 15 -117 45t-39 88q0 37 16 69.5t41 56.5t56.5 38t61.5 14q19 0 38.5 -9.5t36 -31t27 -57t10.5 -86.5q0 -15 -2 -28
t-6 -27q-5 -20 -12 -36t-15 -27q-9 -13 -18 -24zM110 1335q0 -34 43.5 -58.5t118.5 -38.5q3 12 3 23q0 22 -7.5 45t-20 41.5t-29 30t-33.5 11.5q-15 0 -28.5 -5t-24 -12.5t-16.5 -17.5t-6 -19z" />
    <glyph glyph-name="kasra_01" unicode="&#xfe7a;" arabic-form="isolated" 
d="M390 -337l-392 -161v103l392 155v-97z" />
    <glyph glyph-name="shadda_01" unicode="&#xfe7c;" arabic-form="isolated" 
d="M351 1413q3 0 12 -24t18.5 -58.5t16 -74t4.5 -69.5q-9 -27 -20 -51t-25.5 -42t-33 -29t-42.5 -14q-30 0 -56.5 11t-40.5 43q-9 -17 -20 -31t-27.5 -24t-39.5 -15.5t-55 -3.5q-40 5 -62 23t-31.5 43t-9 54.5t6 56.5t13.5 49.5t13 34.5l30 -13q0 -2 -1 -5q-2 -5 -3 -13
q-11 -55 1.5 -94t54.5 -47q28 3 46.5 19.5t30.5 40.5t19 53t13 57l37 4q3 -22 4.5 -43t-6.5 -55q7 -23 25 -38t47 -14q6 0 19.5 1t28.5 5.5t28 13t17 23.5q0 19 -8 43t-18.5 46.5t-20 39.5t-13.5 22l19 38q8 14 16 25.5t13 11.5z" />
    <glyph glyph-name="sukun_01" unicode="&#xfe7e;" arabic-form="isolated" 
d="M188 1394q22 0 48.5 -13t50.5 -38.5t41 -63.5t19 -89q2 -38 -15 -69t-42.5 -53.5t-54.5 -34.5t-50 -12q-35 1 -62.5 17t-47 41t-30 55t-10.5 59q0 47 16.5 84.5t39.5 63.5t49.5 39.5t47.5 13.5zM182 1122q51 2 85 23.5t45 44.5q2 4 -7 21t-28 35t-46 32.5t-61 14.5
q-13 0 -30 -5t-32 -15.5t-25.5 -25.5t-10.5 -35q12 -46 40 -69t70 -21z" />
    <glyph glyph-name="uni0651064C" unicode="&#xfc5e;" arabic-form="isolated" 
d="M351 1413q3 0 12 -24t18.5 -58.5t16 -74t4.5 -69.5q-9 -27 -20 -51t-25.5 -42t-33 -29t-42.5 -14q-30 0 -56.5 11t-40.5 43q-9 -17 -20 -31t-27.5 -24t-39.5 -15.5t-55 -3.5q-40 5 -62 23t-31.5 43t-9 54.5t6 56.5t13.5 49.5t13 34.5l30 -13q0 -2 -1 -5q-2 -5 -3 -13
q-11 -55 1.5 -94t54.5 -47q28 3 46.5 19.5t30.5 40.5t19 53t13 57l37 4q3 -22 4.5 -43t-6.5 -55q7 -23 25 -38t47 -14q6 0 19.5 1t28.5 5.5t28 13t17 23.5q0 19 -8 43t-18.5 46.5t-20 39.5t-13.5 22l19 38q8 14 16 25.5t13 11.5zM298 1514l-18 3l-15 1q-26 -37 -62.5 -66
t-79.5 -49.5t-89.5 -31t-92.5 -10.5h-17h-8t-9 1l-2 6q15 39 21.5 72t6.5 56q0 53 -22 53q-14 0 -51 -13t-80 -36l-4 4l17 95q15 9 33.5 18t36.5 16.5t33 12.5t24 5q19 0 32 -9.5t20.5 -26t10.5 -38t3 -45.5q0 -21 -1.5 -42t-5.5 -40q20 -1 48 5t58.5 16.5t60.5 26t54 34.5
q-51 12 -83.5 26t-51.5 31.5t-26 37.5t-7 43q0 30 14 60t38 54.5t55 40t65 15.5q31 0 51.5 -15.5t33 -40.5t17.5 -55t5 -59q0 -41 -10 -75q11 -2 23 -2.5t25 -1.5zM93 1714q0 -8 5.5 -21.5t22 -28.5t48 -30.5t83.5 -27.5q3 7 4 14t1 15q0 26 -7.5 49t-20 40t-29 27t-34.5 10
q-30 0 -51.5 -15t-21.5 -32z" />
    <glyph glyph-name="uni0651064D" unicode="&#xfc5f;" arabic-form="isolated" 
d="M351 1413q3 0 12 -24t18.5 -58.5t16 -74t4.5 -69.5q-9 -27 -20 -51t-25.5 -42t-33 -29t-42.5 -14q-30 0 -56.5 11t-40.5 43q-9 -17 -20 -31t-27.5 -24t-39.5 -15.5t-55 -3.5q-40 5 -62 23t-31.5 43t-9 54.5t6 56.5t13.5 49.5t13 34.5l30 -13q0 -2 -1 -5q-2 -5 -3 -13
q-11 -55 1.5 -94t54.5 -47q28 3 46.5 19.5t30.5 40.5t19 53t13 57l37 4q3 -22 4.5 -43t-6.5 -55q7 -23 25 -38t47 -14q6 0 19.5 1t28.5 5.5t28 13t17 23.5q0 19 -8 43t-18.5 46.5t-20 39.5t-13.5 22l19 38q8 14 16 25.5t13 11.5zM408 655l-392 -161v102l392 155v-96z
M408 895l-392 -161v103l392 154v-96z" />
    <glyph glyph-name="uni0651064E" unicode="&#xfc60;" arabic-form="isolated" 
d="M351 1413q3 0 12 -24t18.5 -58.5t16 -74t4.5 -69.5q-9 -27 -20 -51t-25.5 -42t-33 -29t-42.5 -14q-30 0 -56.5 11t-40.5 43q-9 -17 -20 -31t-27.5 -24t-39.5 -15.5t-55 -3.5q-40 5 -62 23t-31.5 43t-9 54.5t6 56.5t13.5 49.5t13 34.5l30 -13q0 -2 -1 -5q-2 -5 -3 -13
q-11 -55 1.5 -94t54.5 -47q28 3 46.5 19.5t30.5 40.5t19 53t13 57l37 4q3 -22 4.5 -43t-6.5 -55q7 -23 25 -38t47 -14q6 0 19.5 1t28.5 5.5t28 13t17 23.5q0 19 -8 43t-18.5 46.5t-20 39.5t-13.5 22l19 38q8 14 16 25.5t13 11.5zM325 1509l-392 -161v103l392 155v-97z" />
    <glyph glyph-name="uni0651064F" unicode="&#xfc61;" arabic-form="isolated" 
d="M351 1413q3 0 12 -24t18.5 -58.5t16 -74t4.5 -69.5q-9 -27 -20 -51t-25.5 -42t-33 -29t-42.5 -14q-30 0 -56.5 11t-40.5 43q-9 -17 -20 -31t-27.5 -24t-39.5 -15.5t-55 -3.5q-40 5 -62 23t-31.5 43t-9 54.5t6 56.5t13.5 49.5t13 34.5l30 -13q0 -2 -1 -5q-2 -5 -3 -13
q-11 -55 1.5 -94t54.5 -47q28 3 46.5 19.5t30.5 40.5t19 53t13 57l37 4q3 -22 4.5 -43t-6.5 -55q7 -23 25 -38t47 -14q6 0 19.5 1t28.5 5.5t28 13t17 23.5q0 19 -8 43t-18.5 46.5t-20 39.5t-13.5 22l19 38q8 14 16 25.5t13 11.5zM283 1509q-27 -35 -63.5 -62.5t-74 -48
t-73.5 -35t-61 -23.5q-7 0 -26.5 1.5t-41 4.5t-39.5 7t-22 10l-2 7q43 17 88.5 35t88.5 37.5t81 40t67 41.5q-78 15 -117 45t-39 88q0 37 16 69.5t41 56.5t56.5 38t61.5 14q19 0 38.5 -9.5t36 -31t27 -57t10.5 -86.5q0 -15 -2 -28t-6 -27q-5 -20 -12 -36t-15 -27
q-9 -13 -18 -24zM110 1701q0 -34 43.5 -58.5t118.5 -38.5q3 12 3 23q0 22 -7.5 45t-20 41.5t-29 30t-33.5 11.5q-15 0 -28.5 -5t-24 -12.5t-16.5 -17.5t-6 -19z" />
    <glyph glyph-name="uni06510650" unicode="&#xfc62;" arabic-form="isolated" 
d="M351 1413q3 0 12 -24t18.5 -58.5t16 -74t4.5 -69.5q-9 -27 -20 -51t-25.5 -42t-33 -29t-42.5 -14q-30 0 -56.5 11t-40.5 43q-9 -17 -20 -31t-27.5 -24t-39.5 -15.5t-55 -3.5q-40 5 -62 23t-31.5 43t-9 54.5t6 56.5t13.5 49.5t13 34.5l30 -13q0 -2 -1 -5q-2 -5 -3 -13
q-11 -55 1.5 -94t54.5 -47q28 3 46.5 19.5t30.5 40.5t19 53t13 57l37 4q3 -22 4.5 -43t-6.5 -55q7 -23 25 -38t47 -14q6 0 19.5 1t28.5 5.5t28 13t17 23.5q0 19 -8 43t-18.5 46.5t-20 39.5t-13.5 22l19 38q8 14 16 25.5t13 11.5zM398 880l-392 -161v103l392 155v-97z" />
    <glyph glyph-name="uniFC63" unicode="&#xfc63;" arabic-form="isolated" 
d="M351 1413q3 0 12 -24t18.5 -58.5t16 -74t4.5 -69.5q-9 -27 -20 -51t-25.5 -42t-33 -29t-42.5 -14q-30 0 -56.5 11t-40.5 43q-9 -17 -20 -31t-27.5 -24t-39.5 -15.5t-55 -3.5q-40 5 -62 23t-31.5 43t-9 54.5t6 56.5t13.5 49.5t13 34.5l30 -13q0 -2 -1 -5q-2 -5 -3 -13
q-11 -55 1.5 -94t54.5 -47q28 3 46.5 19.5t30.5 40.5t19 53t13 57l37 4q3 -22 4.5 -43t-6.5 -55q7 -23 25 -38t47 -14q6 0 19.5 1t28.5 5.5t28 13t17 23.5q0 19 -8 43t-18.5 46.5t-20 39.5t-13.5 22l19 38q8 14 16 25.5t13 11.5zM145 1373q-1 34 -3.5 74.5t-5.5 82.5t-7 83
t-7 75t-6 58.5t-4 34.5q7 4 22.5 12.5t32 17.5t30.5 15.5t17 6.5q1 0 3 -7q0 -3 1 -6q0 -11 -0.5 -36.5t-1 -58.5t-2 -71t-3.5 -74.5t-4.5 -69.5t-5.5 -55q-3 -12 -12 -26.5t-18.5 -27t-17.5 -21t-8 -7.5z" />
    <glyph glyph-name="uni0672.fina" unicode="&#x672;" horiz-adv-x="563" 
d="M525 0q-39 0 -77 12t-69.5 29t-54.5 36.5t-33 34.5q-8 12 -18 37t-19 55t-15 61.5t-6 55.5q0 75 -2.5 156.5t-6.5 165t-9 165t-10 155.5q-12 172 -28 343q12 11 37 35.5t51 48.5t46 40t23 12q3 -3 4.5 -12.5t1.5 -16.5q8 -139 12 -250.5t5.5 -204t1.5 -169.5t-1 -147.5
t-1 -137.5t1 -138q1 -30 1.5 -50.5t1.5 -35t2.5 -25t3.5 -19.5q19 -10 42.5 -16t47 -9.5t44.5 -4.5t35 -1h39v-205h-50zM-109 1536l-30 38q21 29 43 53q19 20 42.5 38.5t48.5 23.5q24 0 56 -8.5t66 -18.5t68 -17.5t61 -5.5q-12 10 -28.5 23t-31.5 30t-26.5 40t-13.5 52
t17 68t49 74t67.5 59.5t72.5 24.5q50 0 93.5 -23.5t78.5 -87.5l-25 -14q-9 5 -42 16t-89 11q-29 0 -56 -13.5t-47.5 -31t-33.5 -34.5t-13 -23q0 -8 9.5 -26t30.5 -36.5t54.5 -34t81.5 -19.5q30 4 53.5 8t42.5 8t35.5 8t34.5 9q1 1 -3 -14t-9 -33q-6 -21 -15 -49
q-30 -17 -80 -33.5t-102.5 -29.5t-99.5 -21.5t-73 -8.5q-21 0 -49 9.5t-55 20.5t-50.5 20t-35.5 9q-11 -2 -20.5 -6t-20.5 -11t-24.5 -17.5t-31.5 -26.5z" />
    <glyph glyph-name="uni0673.fina" unicode="&#x673;" horiz-adv-x="544" 
d="M506 0q-39 0 -77 12t-70 29.5t-55 36.5t-32 34q-8 12 -18 37t-19 55.5t-15 61.5t-6 55q0 75 -2.5 156.5t-6.5 165t-9 165t-10 155.5q-12 173 -28 344q11 11 36 35.5t51 48t46 40t22 12.5q5 -4 6.5 -13.5t1.5 -16.5q8 -138 12.5 -248.5t7.5 -201t4 -165.5t1.5 -143
t1 -133.5t1.5 -136.5q1 -30 2 -50.5t2 -35.5t2.5 -25.5t2.5 -19.5q19 -11 40.5 -19.5t43 -15t41 -10t33.5 -3.5h40v-206h-50zM16 -588l-30 38q21 29 43 53q19 20 42.5 38.5t48.5 23.5q24 0 56 -8.5t66 -18.5t68 -17.5t61 -5.5q-12 10 -28.5 23t-31.5 30t-26.5 40t-13.5 52
t17 68t49 74t67.5 59.5t72.5 24.5q50 0 93.5 -23.5t78.5 -87.5l-25 -14q-9 5 -42 16t-89 11q-29 0 -56 -13.5t-47.5 -31t-33.5 -34.5t-13 -23q0 -8 9.5 -26t30.5 -36.5t54.5 -34t81.5 -19.5q30 4 53.5 8t42.5 8t35.5 8t34.5 9q1 1 -3 -14t-9 -33q-6 -21 -15 -49
q-30 -17 -80 -33.5t-102.5 -29.5t-99.5 -21.5t-73 -8.5q-21 0 -49 9.5t-55 20.5t-50.5 20t-35.5 9q-11 -2 -20.5 -6t-20.5 -11t-24.5 -17.5t-31.5 -26.5z" />
    <glyph glyph-name="uni0675.fina" unicode="&#x675;" horiz-adv-x="538" 
d="M505 0q-39 0 -77 12t-69.5 29t-54.5 36.5t-33 34.5q-8 12 -18 37t-19 55t-15 61.5t-6 55.5q0 75 -2.5 156.5t-6.5 165t-9 165t-10 155.5q-12 172 -28 343q12 11 37 35.5t51 48.5t46 40t23 12q3 -3 4.5 -12.5t1.5 -16.5q8 -139 12 -250.5t5.5 -204t1.5 -169.5t-1 -147.5
t-1 -137.5t1 -138q1 -30 1.5 -50.5t1.5 -35t2.5 -25t3.5 -19.5q19 -10 42.5 -16t47 -9.5t44.5 -4.5t35 -1h39v-205h-50zM369 1297l27 87l116 65q-7 4 -22.5 16.5t-32 31.5t-30 44t-15.5 55q-2 29 17 68t49.5 74.5t68 60t72.5 24.5q50 0 94 -24t80 -88l-26 -13q-9 5 -42 16
t-90 11q-29 0 -56 -13.5t-48 -31t-34 -34.5t-13 -24q0 -8 10 -26t31 -36.5t55 -34.5t82 -20q30 4 53 8t42.5 8t36.5 8.5t35 9.5q1 1 -3.5 -14.5t-9.5 -33.5q-6 -22 -14 -49q-9 -2 -19.5 -3.5t-25.5 -4.5t-36.5 -8t-51.5 -12q-43 -9 -77 -19t-67.5 -23.5t-70.5 -31.5t-85 -43
z" />
    <glyph glyph-name="uni0676.fina" unicode="&#x676;" horiz-adv-x="820" 
d="M828 0h-68q-13 -95 -52 -179t-91 -153.5t-110.5 -123.5t-109.5 -90t-89 -52.5t-49 -11.5q-21 10 -54 28.5t-65 38t-58.5 36.5t-34.5 25q-9 8 -4 11.5t7 4.5q151 57 257.5 117t177.5 120t110.5 118t54.5 111h-196q-38 0 -80.5 7t-82.5 22t-75 39.5t-59 60.5t-33.5 84
t0.5 109q2 26 10.5 69t25 91t40.5 97.5t57.5 88.5t76.5 64t96 24q57 -4 103 -30.5t81 -68.5t60.5 -96.5t43.5 -114.5t28.5 -122t15.5 -118h66v-206zM474 206h179q-4 17 -11 49.5t-19.5 72t-32 81t-47 75t-65.5 55t-87 20.5q-39 0 -70 -16.5t-55 -42t-41.5 -56.5t-28 -59.5
t-15 -50.5t-2.5 -31q9 -48 86 -72.5t209 -24.5zM527 835l27 87l116 65q-7 4 -22.5 16.5t-32 31.5t-30 44t-15.5 55q-2 29 17 68t49.5 74.5t68 60t72.5 24.5q50 0 94 -24t80 -88l-26 -13q-9 5 -42 16t-90 11q-29 0 -56 -13.5t-48 -31t-34 -34.5t-13 -24q0 -8 10 -26t31 -36.5
t55 -34.5t82 -20q30 4 53 8t42.5 8t36.5 8.5t35 9.5q1 1 -3.5 -14.5t-9.5 -33.5q-6 -22 -14 -49q-9 -2 -19.5 -3.5t-25.5 -4.5t-36.5 -8t-51.5 -12q-43 -9 -77 -19t-67.5 -23.5t-70.5 -31.5t-85 -43z" />
    <glyph glyph-name="uni0677.fina" unicode="&#x677;" horiz-adv-x="849" 
d="M859 0h-68q-13 -95 -52 -179t-91 -153.5t-110.5 -123.5t-109.5 -90t-89 -52.5t-49 -11.5q-21 10 -54 28.5t-65 38t-58.5 36.5t-34.5 25q-9 8 -4 11.5t7 4.5q151 57 257.5 117t177.5 120t110.5 118t54.5 111h-196q-38 0 -80.5 7t-82.5 22t-75 39.5t-59 60.5t-33.5 84
t0.5 109q2 26 10.5 69t25 91t40.5 97.5t57.5 88.5t76.5 64t96 24q57 -4 103 -30.5t81 -68.5t60.5 -96.5t43.5 -114.5t28.5 -122t15.5 -118h66v-206zM505 206h179q-4 17 -11 49.5t-19.5 72t-32 81t-47 75t-65.5 55t-87 20.5q-39 0 -70 -16.5t-55 -42t-41.5 -56.5t-28 -59.5
t-15 -50.5t-2.5 -31q9 -48 86 -72.5t209 -24.5zM394 957q-27 -35 -63.5 -62.5t-74 -48t-73.5 -35t-61 -23.5q-7 0 -26.5 1.5t-41 4.5t-39.5 7t-22 10l-2 7q43 17 88.5 35t88.5 37.5t81 40t67 41.5q-78 15 -117 45t-39 88q0 37 16 69.5t41 56.5t56.5 38t61.5 14
q19 0 38.5 -9.5t36 -31t27 -57t10.5 -86.5q0 -15 -2 -28t-6 -27q-5 -20 -12 -36t-15 -27q-9 -13 -18 -24zM221 1149q0 -34 43.5 -58.5t118.5 -38.5q3 12 3 23q0 22 -7.5 45t-20 41.5t-29 30t-33.5 11.5q-15 0 -28.5 -5t-24 -12.5t-16.5 -17.5t-6 -19zM610 832l27 87l116 65
q-7 4 -22.5 16.5t-32 31.5t-30 44t-15.5 55q-2 29 17 68t49.5 74.5t68 60t72.5 24.5q50 0 94 -24t80 -88l-26 -13q-9 5 -42 16t-90 11q-29 0 -56 -13.5t-48 -31t-34 -34.5t-13 -24q0 -8 10 -26t31 -36.5t55 -34.5t82 -20q30 4 53 8t42.5 8t36.5 8.5t35 9.5q1 1 -3.5 -14.5
t-9.5 -33.5q-6 -22 -14 -49q-9 -2 -19.5 -3.5t-25.5 -4.5t-36.5 -8t-51.5 -12q-43 -9 -77 -19t-67.5 -23.5t-70.5 -31.5t-85 -43z" />
    <glyph glyph-name="uni0678.fina" unicode="&#x678;" horiz-adv-x="1520" 
d="M1531 0q-63 0 -108.5 1.5t-75.5 3.5q6 -5 24 -18t37 -28t33.5 -30t14.5 -23l-12 -168q-15 -43 -66.5 -98.5t-133 -106t-191 -88t-240.5 -44.5q-111 -6 -217 6t-194 50t-153.5 106.5t-95.5 175t-19.5 255t73.5 347.5l15.5 46.5t21.5 61t24.5 64t23.5 55.5l69 -36
q-12 -37 -29 -88.5t-34 -108.5q-13 -52 -24 -112.5t-14.5 -124.5t2.5 -127.5t28 -121t61.5 -105t102 -80t151 -46.5t208.5 -3q115 9 213 29.5t171.5 47.5t117.5 58.5t52 62.5q-17 15 -65 46t-116 68.5t-149 76.5t-162 72q-3 0 2.5 12.5t15 31.5t21 40.5t22.5 40.5t19.5 31.5
t10.5 12.5q105 -14 180 -21.5t137 -11.5t120 -4.5t128 -0.5v-207zM826 280l27 87l116 65q-7 4 -22.5 16.5t-32 31.5t-30 44t-15.5 55q-2 29 17 68t49.5 74.5t68 60t72.5 24.5q50 0 94 -24t80 -88l-26 -13q-9 5 -42 16t-90 11q-29 0 -56 -13.5t-48 -31t-34 -34.5t-13 -24
q0 -8 10 -26t31 -36.5t55 -34.5t82 -20q30 4 53 8t42.5 8t36.5 8.5t35 9.5q1 1 -3.5 -14.5t-9.5 -33.5q-6 -22 -14 -49q-9 -2 -19.5 -3.5t-25.5 -4.5t-36.5 -8t-51.5 -12q-43 -9 -77 -19t-67.5 -23.5t-70.5 -31.5t-85 -43z" />
    <glyph glyph-name="uni067A.init" unicode="&#x67a;" horiz-adv-x="685" arabic-form="initial" 
d="M424 904q4 1 20 -30t35 -87t36.5 -132.5t25 -166t0 -187.5t-39.5 -196q-30 -27 -82 -46.5t-115 -32.5t-133 -19.5t-136 -6.5h-35q-27 0 -50 11q-20 9 -37 30t-19 61q2 39 18.5 60t36.5 31q23 11 51 13h31q32 0 74.5 2.5t87 6.5t88 9t78.5 10.5t57 11t25 10.5
q4 18 -3 54.5t-20.5 81.5t-31.5 94t-35.5 92.5t-32 77t-22.5 47.5q33 55 60 99q12 19 23 37t20.5 32t16 23t8.5 10zM548 1124l-139 -138l-139 137l140 140zM548 1432l-139 -140l-139 139l140 138z" />
    <glyph glyph-name="uni067A.medi" unicode="&#x67a;" horiz-adv-x="741" arabic-form="medial" 
d="M-105 103q0 23 9 42t23.5 32.5t33.5 21t39 7.5q83 1 153 12q30 4 59.5 11.5t54.5 18t44 25t27 33.5q2 34 -5.5 79t-16.5 87q-11 48 -25 99q35 37 63 66q24 25 45 44.5t25 16.5l3.5 -17.5t8.5 -46.5t10.5 -67.5t10 -80.5t7 -85.5t1.5 -82.5q19 -29 55 -53q31 -20 83.5 -38
t136.5 -21h9v-206h-9q-68 0 -121.5 13t-94.5 35.5t-72 52t-54 62.5q-21 -32 -61.5 -61.5t-90.5 -52t-105.5 -36t-107.5 -13.5h-33q-20 0 -39 7t-33.5 20.5t-23.5 32.5t-9 43zM533 887l-139 -138l-139 137l140 140zM533 1195l-139 -140l-139 139l140 138z" />
    <glyph glyph-name="uni067A.fina" unicode="&#x67a;" horiz-adv-x="2158" arabic-form="final" 
d="M1962 612l57 -18q-6 -41 -10 -66.5t-8.5 -46.5t-11 -45t-16.5 -62q1 -62 23.5 -96t54 -50t64.5 -19t56 -3v-206q-97 1 -150.5 24.5t-77.5 53.5q-20 25 -31.5 45.5t-18 39t-9 36.5t-4.5 38q-53 -53 -122 -93t-147.5 -69.5t-165 -49t-175.5 -31t-177.5 -16.5t-171.5 -5
q-82 0 -168.5 6.5t-170.5 19t-162.5 31.5t-144 44t-115.5 56.5t-77 69.5q-5 20 -11 68t-2 121t22.5 171t61.5 218l68 -36q-14 -68 -25.5 -133.5t-18.5 -119t-9.5 -91t2.5 -47.5q30 -30 83.5 -53t120 -40.5t141 -29.5t147 -20t138.5 -12t114 -5q57 -1 135.5 3.5t168 15.5
t183.5 28t181.5 42t162.5 57t126 72q21 42 33.5 68t22 47t17 40.5t17.5 47.5zM1162 689l-139 -138l-139 137l140 140zM1162 997l-139 -140l-139 139l140 138z" />
    <glyph glyph-name="uni067B.init" unicode="&#x67b;" horiz-adv-x="501" arabic-form="initial" 
d="M314 906q4 1 20 -30t35.5 -87t37 -132.5t24.5 -166t-1 -187.5t-39 -196q-8 -13 -37 -28.5t-67.5 -30t-80 -26.5t-74.5 -17q-12 -2 -34.5 -2.5t-44.5 -1.5q-26 -1 -55 -1q-28 2 -51 13q-20 10 -36 30.5t-18 58.5q2 39 18.5 60.5t36.5 31.5q22 11 50 13h80q32 0 62 1t43 3
q18 3 41.5 8t46 11t40 13t21.5 15q4 18 -3.5 54.5t-21 81.5t-31.5 94t-35.5 92.5t-32.5 77t-22 47.5q33 55 60 99q12 19 23 37t20.5 32t16 23t8.5 10zM374 -555l-139 -138l-139 137l140 140zM374 -247l-139 -140l-139 139l140 138z" />
    <glyph glyph-name="uni067B.medi" unicode="&#x67b;" horiz-adv-x="644" arabic-form="medial" 
d="M-102 102q0 23 9 42.5t23.5 33t33.5 21t39 7.5q67 1 123 12q24 4 48 11.5t44.5 18t36 25t22.5 33.5q1 16 -0.5 36.5t-4 42.5t-6.5 44t-8 43q-10 48 -22 99q35 38 63 67q12 12 23.5 24t21.5 20.5t16 13t8 3.5q0 -1 7.5 -38.5t16 -94t14.5 -123t3 -125.5q8 -27 34 -49
q23 -20 67 -37.5t121 -25.5h16v-206h-16q-36 0 -79 14.5t-83.5 37.5t-74 52.5t-51.5 59.5q-21 -32 -52 -62t-70.5 -52.5t-86 -36t-98.5 -13.5h-33q-20 0 -39 7t-33.5 20.5t-23.5 32t-9 42.5zM470 -504l-139 -138l-139 137l140 140zM470 -196l-139 -140l-139 139l140 138z
" />
    <glyph glyph-name="uni067B.fina" unicode="&#x67b;" horiz-adv-x="2159" arabic-form="final" 
d="M1958 612l57 -18q-6 -41 -10 -66.5t-8.5 -46.5t-11 -45t-16.5 -62q1 -62 23.5 -96t54 -50t64.5 -19t56 -3v-206q-97 1 -150.5 24.5t-77.5 53.5q-20 25 -31.5 45.5t-18 39t-9 36.5t-4.5 38q-53 -53 -122 -93t-147.5 -69.5t-165 -49t-175.5 -31t-177.5 -16.5t-171.5 -5
q-82 0 -168.5 6.5t-170.5 19t-162.5 31.5t-144 44t-115.5 56.5t-77 69.5q-5 20 -11 68t-2 121t22.5 171t61.5 218l68 -36q-14 -68 -25.5 -133.5t-18.5 -119t-9.5 -91t2.5 -47.5q30 -30 83.5 -53t120 -40.5t141 -29.5t147 -20t138.5 -12t114 -5q57 -1 135.5 3.5t168 15.5
t183.5 28t181.5 42t162.5 57t126 72q21 42 33.5 68t22 47t17 40.5t17.5 47.5zM1156 -609l-139 -138l-139 137l140 140zM1156 -301l-139 -140l-139 139l140 138z" />
    <glyph glyph-name="uni067C.init" unicode="&#x67c;" horiz-adv-x="544" 
d="M314 906q4 1 20 -30t35.5 -87t37 -132.5t24.5 -166t-1 -187.5t-39 -196q-8 -13 -37 -28.5t-67.5 -30t-80 -26.5t-74.5 -17q-12 -2 -34.5 -2.5t-44.5 -1.5q-26 -1 -55 -1q-28 2 -51 13q-20 10 -36 30.5t-18 58.5q2 39 18.5 60.5t36.5 31.5q22 11 50 13h80q32 0 62 1t43 3
q18 3 41.5 8t46 11t40 13t21.5 15q4 18 -3.5 54.5t-21 81.5t-31.5 94t-35.5 92.5t-32.5 77t-22 47.5q33 55 60 99q12 19 23 37t20.5 32t16 23t8.5 10zM262 97q22 0 48.5 -13t50.5 -38.5t41 -63.5t19 -89q2 -38 -15 -69t-42.5 -53.5t-54.5 -34.5t-50 -12q-35 1 -62.5 17
t-47 41t-30 55t-10.5 59q0 47 16.5 84.5t39.5 63.5t49.5 39.5t47.5 13.5zM256 -175q51 2 85 23.5t45 44.5q2 4 -7 21t-28 35t-46 32.5t-61 14.5q-13 0 -30 -5t-32 -15.5t-25.5 -25.5t-10.5 -35q12 -46 40 -69t70 -21zM136 1001l-138 139l137 139l140 -140zM415 1000
l-140 139l139 139l138 -140z" />
    <glyph glyph-name="uni067C.medi" unicode="&#x67c;" horiz-adv-x="732" 
d="M-105 103q0 23 9 42t23.5 32.5t33.5 21t39 7.5q83 1 153 12q30 4 59.5 11.5t54.5 18t44 25t27 33.5q2 34 -5.5 79t-16.5 87q-11 48 -25 99q35 37 63 66q24 25 45 44.5t25 16.5l3.5 -17.5t8.5 -46.5t10.5 -67.5t10 -80.5t7 -85.5t1.5 -82.5q19 -29 55 -53q31 -20 83.5 -38
t136.5 -21h9v-206h-9q-68 0 -121.5 13t-94.5 35.5t-72 52t-54 62.5q-21 -32 -61.5 -61.5t-90.5 -52t-105.5 -36t-107.5 -13.5h-33q-20 0 -39 7t-33.5 20.5t-23.5 32.5t-9 43zM237 761l-138 139l137 139l140 -140zM516 760l-140 139l139 139l138 -140zM254 87q22 0 48.5 -13
t50.5 -38.5t41 -63.5t19 -89q2 -38 -15 -69t-42.5 -53.5t-54.5 -34.5t-50 -12q-35 1 -62.5 17t-47 41t-30 55t-10.5 59q0 47 16.5 84.5t39.5 63.5t49.5 39.5t47.5 13.5zM248 -185q51 2 85 23.5t45 44.5q2 4 -7 21t-28 35t-46 32.5t-61 14.5q-13 0 -30 -5t-32 -15.5
t-25.5 -25.5t-10.5 -35q12 -46 40 -69t70 -21z" />
    <glyph glyph-name="uni067C.fina" unicode="&#x67c;" horiz-adv-x="2137" 
d="M1940 612l57 -18q-6 -41 -10 -66.5t-8.5 -46.5t-11 -45t-16.5 -62q1 -62 23.5 -96t54 -50t64.5 -19t56 -3v-206q-97 1 -150.5 24.5t-77.5 53.5q-20 25 -31.5 45.5t-18 39t-9 36.5t-4.5 38q-53 -53 -122 -93t-147.5 -69.5t-165 -49t-175.5 -31t-177.5 -16.5t-171.5 -5
q-82 0 -168.5 6.5t-170.5 19t-162.5 31.5t-144 44t-115.5 56.5t-77 69.5q-5 20 -11 68t-2 121t22.5 171t61.5 218l68 -36q-14 -68 -25.5 -133.5t-18.5 -119t-9.5 -91t2.5 -47.5q30 -30 83.5 -53t120 -40.5t141 -29.5t147 -20t138.5 -12t114 -5q57 -1 135.5 3.5t168 15.5
t183.5 28t181.5 42t162.5 57t126 72q21 42 33.5 68t22 47t17 40.5t17.5 47.5zM901 602l-138 139l137 139l140 -140zM1180 601l-140 139l139 139l138 -140zM1243 59q22 0 48.5 -13t50.5 -38.5t41 -63.5t19 -89q2 -38 -15 -69t-42.5 -53.5t-54.5 -34.5t-50 -12q-35 1 -62.5 17
t-47 41t-30 55t-10.5 59q0 47 16.5 84.5t39.5 63.5t49.5 39.5t47.5 13.5zM1237 -213q51 2 85 23.5t45 44.5q2 4 -7 21t-28 35t-46 32.5t-61 14.5q-13 0 -30 -5t-32 -15.5t-25.5 -25.5t-10.5 -35q12 -46 40 -69t70 -21z" />
    <glyph glyph-name="uni067D.init" unicode="&#x67d;" horiz-adv-x="634" 
d="M424 904q4 1 20 -30t35 -87t36.5 -132.5t25 -166t0 -187.5t-39.5 -196q-30 -27 -82 -46.5t-115 -32.5t-133 -19.5t-136 -6.5h-35q-27 0 -50 11q-20 9 -37 30t-19 61q2 39 18.5 60t36.5 31q23 11 51 13h31q32 0 74.5 2.5t87 6.5t88 9t78.5 10.5t57 11t25 10.5
q4 18 -3 54.5t-20.5 81.5t-31.5 94t-35.5 92.5t-32 77t-22.5 47.5q33 55 60 99q12 19 23 37t20.5 32t16 23t8.5 10zM313 1271l-140 -140l-137 139l138 139zM619 1271l-138 -140l-139 139l140 139zM329 924l-131 131l132 132l131 -131z" />
    <glyph glyph-name="uni067D.medi" unicode="&#x67d;" horiz-adv-x="739" 
d="M-105 103q0 23 9 42t23.5 32.5t33.5 21t39 7.5q83 1 153 12q30 4 59.5 11.5t54.5 18t44 25t27 33.5q2 34 -5.5 79t-16.5 87q-11 48 -25 99q35 37 63 66q24 25 45 44.5t25 16.5l3.5 -17.5t8.5 -46.5t10.5 -67.5t10 -80.5t7 -85.5t1.5 -82.5q19 -29 55 -53q31 -20 83.5 -38
t136.5 -21h9v-206h-9q-68 0 -121.5 13t-94.5 35.5t-72 52t-54 62.5q-21 -32 -61.5 -61.5t-90.5 -52t-105.5 -36t-107.5 -13.5h-33q-20 0 -39 7t-33.5 20.5t-23.5 32.5t-9 43zM372 1157l-140 -140l-137 139l138 139zM678 1157l-138 -140l-139 139l140 139zM388 810l-131 131
l132 132l131 -131z" />
    <glyph glyph-name="uni067D.fina" unicode="&#x67d;" horiz-adv-x="2131" 
d="M1940 612l57 -18q-6 -41 -10 -66.5t-8.5 -46.5t-11 -45t-16.5 -62q1 -62 23.5 -96t54 -50t64.5 -19t56 -3v-206q-97 1 -150.5 24.5t-77.5 53.5q-20 25 -31.5 45.5t-18 39t-9 36.5t-4.5 38q-53 -53 -122 -93t-147.5 -69.5t-165 -49t-175.5 -31t-177.5 -16.5t-171.5 -5
q-82 0 -168.5 6.5t-170.5 19t-162.5 31.5t-144 44t-115.5 56.5t-77 69.5q-5 20 -11 68t-2 121t22.5 171t61.5 218l68 -36q-14 -68 -25.5 -133.5t-18.5 -119t-9.5 -91t2.5 -47.5q30 -30 83.5 -53t120 -40.5t141 -29.5t147 -20t138.5 -12t114 -5q57 -1 135.5 3.5t168 15.5
t183.5 28t181.5 42t162.5 57t126 72q21 42 33.5 68t22 47t17 40.5t17.5 47.5zM999 783l-140 -140l-137 139l138 139zM1305 783l-138 -140l-139 139l140 139zM1015 436l-131 131l132 132l131 -131z" />
    <glyph glyph-name="uni067F.init" unicode="&#x67f;" horiz-adv-x="733" arabic-form="initial" 
d="M424 904q4 1 20 -30t35 -87t36.5 -132.5t25 -166t0 -187.5t-39.5 -196q-30 -27 -82 -46.5t-115 -32.5t-133 -19.5t-136 -6.5h-35q-27 0 -50 11q-20 9 -37 30t-19 61q2 39 18.5 60t36.5 31q23 11 51 13h31q32 0 74.5 2.5t87 6.5t88 9t78.5 10.5t57 11t25 10.5
q4 18 -3 54.5t-20.5 81.5t-31.5 94t-35.5 92.5t-32 77t-22.5 47.5q33 55 60 99q12 19 23 37t20.5 32t16 23t8.5 10zM258 950l-138 139l137 139l140 -140zM566 950l-140 139l139 139l138 -140zM258 1329l-138 139l137 139l140 -140zM566 1329l-140 139l139 139l138 -140z" />
    <glyph glyph-name="uni067F.medi" unicode="&#x67f;" horiz-adv-x="741" arabic-form="medial" 
d="M-105 103q0 23 9 42t23.5 32.5t33.5 21t39 7.5q83 1 153 12q30 4 59.5 11.5t54.5 18t44 25t27 33.5q2 34 -5.5 79t-16.5 87q-11 48 -25 99q35 37 63 66q24 25 45 44.5t25 16.5l3.5 -17.5t8.5 -46.5t10.5 -67.5t10 -80.5t7 -85.5t1.5 -82.5q19 -29 55 -53q31 -20 83.5 -38
t136.5 -21h9v-206h-9q-68 0 -121.5 13t-94.5 35.5t-72 52t-54 62.5q-21 -32 -61.5 -61.5t-90.5 -52t-105.5 -36t-107.5 -13.5h-33q-20 0 -39 7t-33.5 20.5t-23.5 32.5t-9 43zM244 770l-138 139l137 139l140 -140zM552 770l-140 139l139 139l138 -140zM244 1149l-138 139
l137 139l140 -140zM552 1149l-140 139l139 139l138 -140z" />
    <glyph glyph-name="uni067F.fina" unicode="&#x67f;" horiz-adv-x="2148" arabic-form="final" 
d="M1948 612l57 -18q-6 -41 -10 -66.5t-8.5 -46.5t-11 -45t-16.5 -62q1 -62 23.5 -96t54 -50t64.5 -19t56 -3v-206q-97 1 -150.5 24.5t-77.5 53.5q-20 25 -31.5 45.5t-18 39t-9 36.5t-4.5 38q-53 -53 -122 -93t-147.5 -69.5t-165 -49t-175.5 -31t-177.5 -16.5t-171.5 -5
q-82 0 -168.5 6.5t-170.5 19t-162.5 31.5t-144 44t-115.5 56.5t-77 69.5q-5 20 -11 68t-2 121t22.5 171t61.5 218l68 -36q-14 -68 -25.5 -133.5t-18.5 -119t-9.5 -91t2.5 -47.5q30 -30 83.5 -53t120 -40.5t141 -29.5t147 -20t138.5 -12t114 -5q57 -1 135.5 3.5t168 15.5
t183.5 28t181.5 42t162.5 57t126 72q21 42 33.5 68t22 47t17 40.5t17.5 47.5zM937 445l-138 139l137 139l140 -140zM1245 445l-140 139l139 139l138 -140zM937 824l-138 139l137 139l140 -140zM1245 824l-140 139l139 139l138 -140z" />
    <glyph glyph-name="uni0680.init" unicode="&#x680;" horiz-adv-x="642" arabic-form="initial" 
d="M426 904q4 1 20 -30t35 -87t36.5 -132.5t25 -166t0 -187.5t-39.5 -196q-30 -27 -82 -46.5t-115 -32.5t-133 -19.5t-136 -6.5h-35q-27 0 -50 11q-20 9 -37 30t-19 61q2 39 18.5 60t36.5 31q23 11 51 13h31q32 0 74.5 2.5t87 6.5t88 9t78.5 10.5t57 11t25 10.5
q4 18 -3 54.5t-20.5 81.5t-31.5 94t-35.5 92.5t-32 77t-22.5 47.5q33 55 60 99q12 19 23 37t20.5 32t16 23t8.5 10zM126 -728l-138 139l137 139l140 -140zM430 -729l-140 139l139 139l138 -140zM126 -374l-138 139l137 139l140 -140zM430 -375l-140 139l139 139l138 -140z
" />
    <glyph glyph-name="uni0680.medi" unicode="&#x680;" horiz-adv-x="735" arabic-form="medial" 
d="M-105 103q0 23 9 42t23.5 32.5t33.5 21t39 7.5q83 1 153 12q30 4 59.5 11.5t54.5 18t44 25t27 33.5q2 34 -5.5 79t-16.5 87q-11 48 -25 99q35 37 63 66q24 25 45 44.5t25 16.5l3.5 -17.5t8.5 -46.5t10.5 -67.5t10 -80.5t7 -85.5t1.5 -82.5q19 -29 55 -53q31 -20 83.5 -38
t136.5 -21h9v-206h-9q-68 0 -121.5 13t-94.5 35.5t-72 52t-54 62.5q-21 -32 -61.5 -61.5t-90.5 -52t-105.5 -36t-107.5 -13.5h-33q-20 0 -39 7t-33.5 20.5t-23.5 32.5t-9 43zM214 -700l-138 139l137 139l140 -140zM518 -701l-140 139l139 139l138 -140zM214 -346l-138 139
l137 139l140 -140zM518 -347l-140 139l139 139l138 -140z" />
    <glyph glyph-name="uni0680.fina" unicode="&#x680;" horiz-adv-x="2164" arabic-form="final" 
d="M1964 612l57 -18q-6 -41 -10 -66.5t-8.5 -46.5t-11 -45t-16.5 -62q1 -62 23.5 -96t54 -50t64.5 -19t56 -3v-206q-97 1 -150.5 24.5t-77.5 53.5q-20 25 -31.5 45.5t-18 39t-9 36.5t-4.5 38q-53 -53 -122 -93t-147.5 -69.5t-165 -49t-175.5 -31t-177.5 -16.5t-171.5 -5
q-82 0 -168.5 6.5t-170.5 19t-162.5 31.5t-144 44t-115.5 56.5t-77 69.5q-5 20 -11 68t-2 121t22.5 171t61.5 218l68 -36q-14 -68 -25.5 -133.5t-18.5 -119t-9.5 -91t2.5 -47.5q30 -30 83.5 -53t120 -40.5t141 -29.5t147 -20t138.5 -12t114 -5q57 -1 135.5 3.5t168 15.5
t183.5 28t181.5 42t162.5 57t126 72q21 42 33.5 68t22 47t17 40.5t17.5 47.5zM919 -776l-138 139l137 139l140 -140zM1223 -777l-140 139l139 139l138 -140zM919 -422l-138 139l137 139l140 -140zM1223 -423l-140 139l139 139l138 -140z" />
    <glyph glyph-name="uni0681.init" unicode="&#x681;" horiz-adv-x="1331" 
d="M-104 103q2 38 18.5 59t35.5 31q22 11 50 13q43 -1 104 3.5t135 15.5t157.5 29t171 45t176 63t171.5 83l50 28q-55 18 -122.5 40t-137.5 44.5t-136.5 43.5t-119 37.5t-85.5 26.5t-35 10q-5 0 -14.5 -2t-23 -10t-31 -24t-38.5 -43q-15 -19 -29 -40t-30 -43l-61 51
q39 67 70 121.5t62 93t66 60t83 22.5q45 1 100.5 -16t122 -44t144.5 -60t168.5 -64t194 -56t221.5 -36q0 -11 -7 -28.5t-17.5 -38t-23 -41t-23 -37.5t-17.5 -28t-6 -12q-62 -26 -141 -66t-173 -84.5t-201 -89t-224.5 -80t-243.5 -58t-257 -22.5q-27 1 -49 12
q-19 10 -36 30.5t-19 60.5zM541 963l27 87l116 65q-7 4 -22.5 16.5t-32 31.5t-30 44t-15.5 55q-2 29 17 68t49.5 74.5t68 60t72.5 24.5q50 0 94 -24t80 -88l-26 -13q-9 5 -42 16t-90 11q-29 0 -56 -13.5t-48 -31t-34 -34.5t-13 -24q0 -8 10 -26t31 -36.5t55 -34.5t82 -20
q30 4 53 8t42.5 8t36.5 8.5t35 9.5q1 1 -3.5 -14.5t-9.5 -33.5q-6 -22 -14 -49q-9 -2 -19.5 -3.5t-25.5 -4.5t-36.5 -8t-51.5 -12q-43 -9 -77 -19t-67.5 -23.5t-70.5 -31.5t-85 -43z" />
    <glyph glyph-name="uni0681.medi" unicode="&#x681;" horiz-adv-x="1358" 
d="M1311 206h80v-206h-80q-79 0 -130.5 12.5t-86 34t-56.5 49.5t-42 59q-6 17 -10 31t-7 26.5t-5 26t-4 30.5q-97 -44 -211 -92t-238.5 -87.5t-256.5 -64.5t-264 -25q-27 1 -49 12q-19 10 -36 31t-19 60q2 38 18.5 59t35.5 31q22 11 50 13q64 -2 169 9.5t234 42t273.5 82.5
t288.5 133q-55 18 -122.5 40.5t-137.5 45t-136.5 43.5t-119 37.5t-85.5 26.5t-35 10q-5 0 -14.5 -2t-23 -10t-31 -24t-38.5 -43q-15 -19 -29 -40.5t-30 -42.5l-66 44q39 67 70.5 122.5t63.5 95.5t68 62.5t84 23.5q45 1 100.5 -16t122 -44t144.5 -60t168.5 -64t194 -56.5
t221.5 -36.5q5 -2 3 -8q-1 -4 -3 -7q-7 -17 -22 -45.5t-31 -56.5q-18 -33 -41 -68q-18 -4 -36.5 -13.5t-39 -21.5t-43 -24.5t-47.5 -23.5q8 -47 34.5 -70t61.5 -32t73 -8.5t68 -0.5zM557 907l27 87l116 65q-7 4 -22.5 16.5t-32 31.5t-30 44t-15.5 55q-2 29 17 68t49.5 74.5
t68 60t72.5 24.5q50 0 94 -24t80 -88l-26 -13q-9 5 -42 16t-90 11q-29 0 -56 -13.5t-48 -31t-34 -34.5t-13 -24q0 -8 10 -26t31 -36.5t55 -34.5t82 -20q30 4 53 8t42.5 8t36.5 8.5t35 9.5q1 1 -3.5 -14.5t-9.5 -33.5q-6 -22 -14 -49q-9 -2 -19.5 -3.5t-25.5 -4.5t-36.5 -8
t-51.5 -12q-43 -9 -77 -19t-67.5 -23.5t-70.5 -31.5t-85 -43z" />
    <glyph glyph-name="uni0681.fina" unicode="&#x681;" horiz-adv-x="1450" 
d="M1389 206h80v-206h-80q-87 0 -146 16.5t-97.5 46t-59.5 70t-31 90.5t-13.5 107t-5.5 118q-201 -23 -348 -76.5t-248.5 -124.5t-161.5 -153t-86 -161q18 -98 66 -169.5t117.5 -121.5t155 -79.5t178 -43.5t187 -14.5t181.5 8t162 24.5t128 34q1 -1 0 -2q-11 -29 -22.5 -59
t-21.5 -55q-11 -29 -22 -56q-74 -38 -166.5 -62.5t-193 -33.5t-204.5 -1.5t-200 34t-179 72.5t-142.5 114t-91 159t-23.5 207q12 57 30 123t51 133.5t85 133.5t131.5 124t191.5 104t264 74l29 3q-55 18 -113 37t-113.5 36t-105 32.5t-87.5 26.5t-61 18t-25 7q-5 0 -14 -2
t-22.5 -10t-31 -23.5t-38.5 -42.5q-15 -20 -29 -41t-31 -43l-64 39q39 67 70.5 123.5t63 97.5t67 64.5t83.5 24.5q46 0 102 -17t123 -44.5t145.5 -61t170 -64.5t195.5 -56t222 -36q0 -10 -6.5 -27.5t-17 -38t-22.5 -41.5l-22 -38.5t-17 -28.5t-6 -12q-43 0 -84 -1.5
t-80 -3.5q0 -69 18.5 -116.5t52 -77.5t80 -43.5t103.5 -13.5zM898 883l27 87l116 65q-7 4 -22.5 16.5t-32 31.5t-30 44t-15.5 55q-2 29 17 68t49.5 74.5t68 60t72.5 24.5q50 0 94 -24t80 -88l-26 -13q-9 5 -42 16t-90 11q-29 0 -56 -13.5t-48 -31t-34 -34.5t-13 -24
q0 -8 10 -26t31 -36.5t55 -34.5t82 -20q30 4 53 8t42.5 8t36.5 8.5t35 9.5q1 1 -3.5 -14.5t-9.5 -33.5q-6 -22 -14 -49q-9 -2 -19.5 -3.5t-25.5 -4.5t-36.5 -8t-51.5 -12q-43 -9 -77 -19t-67.5 -23.5t-70.5 -31.5t-85 -43z" />
    <glyph glyph-name="uni0682.init" unicode="&#x682;" horiz-adv-x="1359" 
d="M-104 103q2 38 18.5 59t35.5 31q22 11 50 13q43 -1 104 3.5t135 15.5t157.5 29t171 45t176 63t171.5 83l50 28q-55 18 -122.5 40t-137.5 44.5t-136.5 43.5t-119 37.5t-85.5 26.5t-35 10q-5 0 -14.5 -2t-23 -10t-31 -24t-38.5 -43q-15 -19 -29 -40t-30 -43l-61 51
q39 67 70 121.5t62 93t66 60t83 22.5q45 1 100.5 -16t122 -44t144.5 -60t168.5 -64t194 -56t221.5 -36q0 -11 -7 -28.5t-17.5 -38t-23 -41t-23 -37.5t-17.5 -28t-6 -12q-62 -26 -141 -66t-173 -84.5t-201 -89t-224.5 -80t-243.5 -58t-257 -22.5q-27 1 -49 12
q-19 10 -36 30.5t-19 60.5zM852 1045l-139 -138l-139 137l140 140zM852 1353l-139 -140l-139 139l140 138z" />
    <glyph glyph-name="uni0682.medi" unicode="&#x682;" horiz-adv-x="1353" 
d="M1311 206h80v-206h-80q-79 0 -130.5 12.5t-86 34t-56.5 49.5t-42 59q-6 17 -10 31t-7 26.5t-5 26t-4 30.5q-97 -44 -211 -92t-238.5 -87.5t-256.5 -64.5t-264 -25q-27 1 -49 12q-19 10 -36 31t-19 60q2 38 18.5 59t35.5 31q22 11 50 13q64 -2 169 9.5t234 42t273.5 82.5
t288.5 133q-55 18 -122.5 40.5t-137.5 45t-136.5 43.5t-119 37.5t-85.5 26.5t-35 10q-5 0 -14.5 -2t-23 -10t-31 -24t-38.5 -43q-15 -19 -29 -40.5t-30 -42.5l-66 44q39 67 70.5 122.5t63.5 95.5t68 62.5t84 23.5q45 1 100.5 -16t122 -44t144.5 -60t168.5 -64t194 -56.5
t221.5 -36.5q5 -2 3 -8q-1 -4 -3 -7q-7 -17 -22 -45.5t-31 -56.5q-18 -33 -41 -68q-18 -4 -36.5 -13.5t-39 -21.5t-43 -24.5t-47.5 -23.5q8 -47 34.5 -70t61.5 -32t73 -8.5t68 -0.5zM861 1047l-139 -138l-139 137l140 140zM861 1355l-139 -140l-139 139l140 138z" />
    <glyph glyph-name="uni0682.fina" unicode="&#x682;" horiz-adv-x="1476" 
d="M1413 206h80v-206h-80q-87 0 -146 16.5t-97.5 46t-59.5 70t-31 90.5t-13.5 107t-5.5 118q-201 -23 -348 -76.5t-248.5 -124.5t-161.5 -153t-86 -161q18 -98 66 -169.5t117.5 -121.5t155 -79.5t178 -43.5t187 -14.5t181.5 8t162 24.5t128 34q1 -1 0 -2q-11 -29 -22.5 -59
t-21.5 -55q-11 -29 -22 -56q-74 -38 -166.5 -62.5t-193 -33.5t-204.5 -1.5t-200 34t-179 72.5t-142.5 114t-91 159t-23.5 207q12 57 30 123t51 133.5t85 133.5t131.5 124t191.5 104t264 74l29 3q-55 18 -113 37t-113.5 36t-105 32.5t-87.5 26.5t-61 18t-25 7q-5 0 -14 -2
t-22.5 -10t-31 -23.5t-38.5 -42.5q-15 -20 -29 -41t-31 -43l-64 39q39 67 70.5 123.5t63 97.5t67 64.5t83.5 24.5q46 0 102 -17t123 -44.5t145.5 -61t170 -64.5t195.5 -56t222 -36q0 -10 -6.5 -27.5t-17 -38t-22.5 -41.5l-22 -38.5t-17 -28.5t-6 -12q-43 0 -84 -1.5
t-80 -3.5q0 -69 18.5 -116.5t52 -77.5t80 -43.5t103.5 -13.5zM977 1053l-139 -138l-139 137l140 140zM977 1361l-139 -140l-139 139l140 138z" />
    <glyph glyph-name="uni0683.init" unicode="&#x683;" horiz-adv-x="1336" arabic-form="initial" 
d="M-104 103q2 38 18.5 59t35.5 31q22 11 50 13q43 -1 104 3.5t135 15.5t157.5 29t171 45t176 63t171.5 83l50 28q-55 18 -122.5 40t-137.5 44.5t-136.5 43.5t-119 37.5t-85.5 26.5t-35 10q-5 0 -14.5 -2t-23 -10t-31 -24t-38.5 -43q-15 -19 -29 -40t-30 -43l-61 51
q39 67 70 121.5t62 93t66 60t83 22.5q45 1 100.5 -16t122 -44t144.5 -60t168.5 -64t194 -56t221.5 -36q0 -11 -7 -28.5t-17.5 -38t-23 -41t-23 -37.5t-17.5 -28t-6 -12q-62 -26 -141 -66t-173 -84.5t-201 -89t-224.5 -80t-243.5 -58t-257 -22.5q-27 1 -49 12
q-19 10 -36 30.5t-19 60.5zM516 -392l-138 139l137 139l140 -140zM795 -393l-140 139l139 139l138 -140z" />
    <glyph glyph-name="uni0683.medi" unicode="&#x683;" horiz-adv-x="1356" arabic-form="medial" 
d="M1311 206h80v-206h-80q-79 0 -130.5 12.5t-86 34t-56.5 49.5t-42 59q-6 17 -10 31t-7 26.5t-5 26t-4 30.5q-97 -44 -211 -92t-238.5 -87.5t-256.5 -64.5t-264 -25q-27 1 -49 12q-19 10 -36 31t-19 60q2 38 18.5 59t35.5 31q22 11 50 13q64 -2 169 9.5t234 42t273.5 82.5
t288.5 133q-55 18 -122.5 40.5t-137.5 45t-136.5 43.5t-119 37.5t-85.5 26.5t-35 10q-5 0 -14.5 -2t-23 -10t-31 -24t-38.5 -43q-15 -19 -29 -40.5t-30 -42.5l-66 44q39 67 70.5 122.5t63.5 95.5t68 62.5t84 23.5q45 1 100.5 -16t122 -44t144.5 -60t168.5 -64t194 -56.5
t221.5 -36.5q5 -2 3 -8q-1 -4 -3 -7q-7 -17 -22 -45.5t-31 -56.5q-18 -33 -41 -68q-18 -4 -36.5 -13.5t-39 -21.5t-43 -24.5t-47.5 -23.5q8 -47 34.5 -70t61.5 -32t73 -8.5t68 -0.5zM513 -400l-138 139l137 139l140 -140zM792 -401l-140 139l139 139l138 -140z" />
    <glyph glyph-name="uni0683.fina" unicode="&#x683;" horiz-adv-x="1479" arabic-form="final" 
d="M1413 206h80v-206h-80q-87 0 -146 16.5t-97.5 46t-59.5 70t-31 90.5t-13.5 107t-5.5 118q-201 -23 -348 -76.5t-248.5 -124.5t-161.5 -153t-86 -161q18 -98 66 -169.5t117.5 -121.5t155 -79.5t178 -43.5t187 -14.5t181.5 8t162 24.5t128 34q1 -1 0 -2q-11 -29 -22.5 -59
t-21.5 -55q-11 -29 -22 -56q-74 -38 -166.5 -62.5t-193 -33.5t-204.5 -1.5t-200 34t-179 72.5t-142.5 114t-91 159t-23.5 207q12 57 30 123t51 133.5t85 133.5t131.5 124t191.5 104t264 74l29 3q-55 18 -113 37t-113.5 36t-105 32.5t-87.5 26.5t-61 18t-25 7q-5 0 -14 -2
t-22.5 -10t-31 -23.5t-38.5 -42.5q-15 -20 -29 -41t-31 -43l-64 39q39 67 70.5 123.5t63 97.5t67 64.5t83.5 24.5q46 0 102 -17t123 -44.5t145.5 -61t170 -64.5t195.5 -56t222 -36q0 -10 -6.5 -27.5t-17 -38t-22.5 -41.5l-22 -38.5t-17 -28.5t-6 -12q-43 0 -84 -1.5
t-80 -3.5q0 -69 18.5 -116.5t52 -77.5t80 -43.5t103.5 -13.5zM685 -254l-138 139l137 139l140 -140zM964 -255l-140 139l139 139l138 -140z" />
    <glyph glyph-name="uni0684.init" unicode="&#x684;" horiz-adv-x="1342" arabic-form="initial" 
d="M-104 103q2 38 18.5 59t35.5 31q22 11 50 13q43 -1 104 3.5t135 15.5t157.5 29t171 45t176 63t171.5 83l50 28q-55 18 -122.5 40t-137.5 44.5t-136.5 43.5t-119 37.5t-85.5 26.5t-35 10q-5 0 -14.5 -2t-23 -10t-31 -24t-38.5 -43q-15 -19 -29 -40t-30 -43l-61 51
q39 67 70 121.5t62 93t66 60t83 22.5q45 1 100.5 -16t122 -44t144.5 -60t168.5 -64t194 -56t221.5 -36q0 -11 -7 -28.5t-17.5 -38t-23 -41t-23 -37.5t-17.5 -28t-6 -12q-62 -26 -141 -66t-173 -84.5t-201 -89t-224.5 -80t-243.5 -58t-257 -22.5q-27 1 -49 12
q-19 10 -36 30.5t-19 60.5zM747 -544l-139 -138l-139 137l140 140zM747 -236l-139 -140l-139 139l140 138z" />
    <glyph glyph-name="uni0684.medi" unicode="&#x684;" horiz-adv-x="1357" arabic-form="medial" 
d="M1311 206h80v-206h-80q-79 0 -130.5 12.5t-86 34t-56.5 49.5t-42 59q-6 17 -10 31t-7 26.5t-5 26t-4 30.5q-97 -44 -211 -92t-238.5 -87.5t-256.5 -64.5t-264 -25q-27 1 -49 12q-19 10 -36 31t-19 60q2 38 18.5 59t35.5 31q22 11 50 13q64 -2 169 9.5t234 42t273.5 82.5
t288.5 133q-55 18 -122.5 40.5t-137.5 45t-136.5 43.5t-119 37.5t-85.5 26.5t-35 10q-5 0 -14.5 -2t-23 -10t-31 -24t-38.5 -43q-15 -19 -29 -40.5t-30 -42.5l-66 44q39 67 70.5 122.5t63.5 95.5t68 62.5t84 23.5q45 1 100.5 -16t122 -44t144.5 -60t168.5 -64t194 -56.5
t221.5 -36.5q5 -2 3 -8q-1 -4 -3 -7q-7 -17 -22 -45.5t-31 -56.5q-18 -33 -41 -68q-18 -4 -36.5 -13.5t-39 -21.5t-43 -24.5t-47.5 -23.5q8 -47 34.5 -70t61.5 -32t73 -8.5t68 -0.5zM835 -488l-139 -138l-139 137l140 140zM835 -180l-139 -140l-139 139l140 138z" />
    <glyph glyph-name="uni0684.fina" unicode="&#x684;" horiz-adv-x="1473" arabic-form="final" 
d="M167 -375q-26 56 -38 120.5t-7 141.5q10 53 27.5 117.5t50.5 132.5t85 135.5t132 126.5t192.5 106t264.5 75l29 3q-55 18 -113 37t-113.5 36.5t-105.5 32.5t-88 26.5t-61 18t-25 6.5q-5 1 -14 -1t-22.5 -10t-31 -24t-39.5 -43q-14 -19 -28.5 -40t-30.5 -43l-52 32
q39 67 69 124.5t59 100t63 67t82 25.5q45 1 101 -16.5t123.5 -45t146 -60.5t170 -64.5t196 -56.5t222.5 -36q7 2 0 -15t-21.5 -45.5t-29.5 -56.5q-18 -33 -39 -69q-88 0 -166 -6q0 -13 2 -36t5 -48t6.5 -46.5t5.5 -31.5q24 -35 52.5 -52.5t59.5 -25t62.5 -8.5t61.5 -3h80
v-206h-81q-79 0 -131 12t-86.5 33t-56.5 49t-40 59q-26 70 -32.5 142.5t-6.5 152.5q-201 -23 -348.5 -76.5t-249 -124.5t-161.5 -153.5t-86 -161.5q11 -61 33.5 -111t56.5 -92zM937 -381l-139 -138l-139 137l140 140zM937 -73l-139 -140l-139 139l140 138z" />
    <glyph glyph-name="uni0685.init" unicode="&#x685;" horiz-adv-x="1347" 
d="M-104 103q2 38 18.5 59t35.5 31q22 11 50 13q43 -1 104 3.5t135 15.5t157.5 29t171 45t176 63t171.5 83l50 28q-55 18 -122.5 40t-137.5 44.5t-136.5 43.5t-119 37.5t-85.5 26.5t-35 10q-5 0 -14.5 -2t-23 -10t-31 -24t-38.5 -43q-15 -19 -29 -40t-30 -43l-61 51
q39 67 70 121.5t62 93t66 60t83 22.5q45 1 100.5 -16t122 -44t144.5 -60t168.5 -64t194 -56t221.5 -36q0 -11 -7 -28.5t-17.5 -38t-23 -41t-23 -37.5t-17.5 -28t-6 -12q-62 -26 -141 -66t-173 -84.5t-201 -89t-224.5 -80t-243.5 -58t-257 -22.5q-27 1 -49 12
q-19 10 -36 30.5t-19 60.5zM659 876l-138 139l137 139l140 -140zM967 876l-140 139l139 139l138 -140zM944 1229l-131 -131l-132 132l131 131z" />
    <glyph glyph-name="uni0685.medi" unicode="&#x685;" horiz-adv-x="1360" 
d="M1311 206h80v-206h-80q-79 0 -130.5 12.5t-86 34t-56.5 49.5t-42 59q-6 17 -10 31t-7 26.5t-5 26t-4 30.5q-97 -44 -211 -92t-238.5 -87.5t-256.5 -64.5t-264 -25q-27 1 -49 12q-19 10 -36 31t-19 60q2 38 18.5 59t35.5 31q22 11 50 13q64 -2 169 9.5t234 42t273.5 82.5
t288.5 133q-55 18 -122.5 40.5t-137.5 45t-136.5 43.5t-119 37.5t-85.5 26.5t-35 10q-5 0 -14.5 -2t-23 -10t-31 -24t-38.5 -43q-15 -19 -29 -40.5t-30 -42.5l-66 44q39 67 70.5 122.5t63.5 95.5t68 62.5t84 23.5q45 1 100.5 -16t122 -44t144.5 -60t168.5 -64t194 -56.5
t221.5 -36.5q5 -2 3 -8q-1 -4 -3 -7q-7 -17 -22 -45.5t-31 -56.5q-18 -33 -41 -68q-18 -4 -36.5 -13.5t-39 -21.5t-43 -24.5t-47.5 -23.5q8 -47 34.5 -70t61.5 -32t73 -8.5t68 -0.5zM762 864l-138 139l137 139l140 -140zM1070 864l-140 139l139 139l138 -140zM1047 1217
l-131 -131l-132 132l131 131z" />
    <glyph glyph-name="uni0685.fina" unicode="&#x685;" horiz-adv-x="1478" 
d="M1413 206h80v-206h-80q-87 0 -146 16.5t-97.5 46t-59.5 70t-31 90.5t-13.5 107t-5.5 118q-201 -23 -348 -76.5t-248.5 -124.5t-161.5 -153t-86 -161q18 -98 66 -169.5t117.5 -121.5t155 -79.5t178 -43.5t187 -14.5t181.5 8t162 24.5t128 34q1 -1 0 -2q-11 -29 -22.5 -59
t-21.5 -55q-11 -29 -22 -56q-74 -38 -166.5 -62.5t-193 -33.5t-204.5 -1.5t-200 34t-179 72.5t-142.5 114t-91 159t-23.5 207q12 57 30 123t51 133.5t85 133.5t131.5 124t191.5 104t264 74l29 3q-55 18 -113 37t-113.5 36t-105 32.5t-87.5 26.5t-61 18t-25 7q-5 0 -14 -2
t-22.5 -10t-31 -23.5t-38.5 -42.5q-15 -20 -29 -41t-31 -43l-64 39q39 67 70.5 123.5t63 97.5t67 64.5t83.5 24.5q46 0 102 -17t123 -44.5t145.5 -61t170 -64.5t195.5 -56t222 -36q0 -10 -6.5 -27.5t-17 -38t-22.5 -41.5l-22 -38.5t-17 -28.5t-6 -12q-43 0 -84 -1.5
t-80 -3.5q0 -69 18.5 -116.5t52 -77.5t80 -43.5t103.5 -13.5zM531 996l-138 139l137 139l140 -140zM839 996l-140 139l139 139l138 -140zM816 1349l-131 -131l-132 132l131 131z" />
    <glyph glyph-name="uni0687.init" unicode="&#x687;" horiz-adv-x="1319" arabic-form="initial" 
d="M-104 103q2 38 18.5 59t35.5 31q22 11 50 13q43 -1 104 3.5t135 15.5t157.5 29t171 45t176 63t171.5 83l50 28q-55 18 -122.5 40t-137.5 44.5t-136.5 43.5t-119 37.5t-85.5 26.5t-35 10q-5 0 -14.5 -2t-23 -10t-31 -24t-38.5 -43q-15 -19 -29 -40t-30 -43l-61 51
q39 67 70 121.5t62 93t66 60t83 22.5q45 1 100.5 -16t122 -44t144.5 -60t168.5 -64t194 -56t221.5 -36q0 -11 -7 -28.5t-17.5 -38t-23 -41t-23 -37.5t-17.5 -28t-6 -12q-62 -26 -141 -66t-173 -84.5t-201 -89t-224.5 -80t-243.5 -58t-257 -22.5q-27 1 -49 12
q-19 10 -36 30.5t-19 60.5zM519 -624l-138 139l137 139l140 -140zM823 -625l-140 139l139 139l138 -140zM519 -270l-138 139l137 139l140 -140zM823 -271l-140 139l139 139l138 -140z" />
    <glyph glyph-name="uni0687.medi" unicode="&#x687;" horiz-adv-x="1363" arabic-form="medial" 
d="M1311 206h80v-206h-80q-79 0 -130.5 12.5t-86 34t-56.5 49.5t-42 59q-6 17 -10 31t-7 26.5t-5 26t-4 30.5q-97 -44 -211 -92t-238.5 -87.5t-256.5 -64.5t-264 -25q-27 1 -49 12q-19 10 -36 31t-19 60q2 38 18.5 59t35.5 31q22 11 50 13q64 -2 169 9.5t234 42t273.5 82.5
t288.5 133q-55 18 -122.5 40.5t-137.5 45t-136.5 43.5t-119 37.5t-85.5 26.5t-35 10q-5 0 -14.5 -2t-23 -10t-31 -24t-38.5 -43q-15 -19 -29 -40.5t-30 -42.5l-66 44q39 67 70.5 122.5t63.5 95.5t68 62.5t84 23.5q45 1 100.5 -16t122 -44t144.5 -60t168.5 -64t194 -56.5
t221.5 -36.5q5 -2 3 -8q-1 -4 -3 -7q-7 -17 -22 -45.5t-31 -56.5q-18 -33 -41 -68q-18 -4 -36.5 -13.5t-39 -21.5t-43 -24.5t-47.5 -23.5q8 -47 34.5 -70t61.5 -32t73 -8.5t68 -0.5zM511 -666l-138 139l137 139l140 -140zM815 -667l-140 139l139 139l138 -140zM511 -312
l-138 139l137 139l140 -140zM815 -313l-140 139l139 139l138 -140z" />
    <glyph glyph-name="uni0687.fina" unicode="&#x687;" horiz-adv-x="1475" arabic-form="final" 
d="M167 -375q-26 56 -38 120.5t-7 141.5q10 53 27.5 117.5t50.5 132.5t85 135.5t132 126.5t192.5 106t264.5 75l29 3q-55 18 -113 37t-113.5 36.5t-105.5 32.5t-88 26.5t-61 18t-25 6.5q-5 1 -14 -1t-22.5 -10t-31 -24t-39.5 -43q-14 -19 -28.5 -40t-30.5 -43l-52 32
q39 67 69 124.5t59 100t63 67t82 25.5q45 1 101 -16.5t123.5 -45t146 -60.5t170 -64.5t196 -56.5t222.5 -36q7 2 0 -15t-21.5 -45.5t-29.5 -56.5q-18 -33 -39 -69q-88 0 -166 -6q0 -13 2 -36t5 -48t6.5 -46.5t5.5 -31.5q24 -35 52.5 -52.5t59.5 -25t62.5 -8.5t61.5 -3h80
v-206h-81q-79 0 -131 12t-86.5 33t-56.5 49t-40 59q-26 70 -32.5 142.5t-6.5 152.5q-201 -23 -348.5 -76.5t-249 -124.5t-161.5 -153.5t-86 -161.5q11 -61 33.5 -111t56.5 -92zM600 -503l-138 139l137 139l140 -140zM904 -504l-140 139l139 139l138 -140zM600 -149l-138 139
l137 139l140 -140zM904 -150l-140 139l139 139l138 -140z" />
    <glyph glyph-name="uni0689.fina" unicode="&#x689;" horiz-adv-x="1051" 
d="M1059 206v-206h-19q-44 1 -81.5 15t-69 35t-56 48t-40.5 54q-10 -14 -30.5 -38.5t-58 -48.5t-94.5 -41.5t-138 -17.5q-71 0 -131.5 6.5t-105 15.5t-70.5 17.5t-28 13.5q-13 25 -20 59t-9.5 64.5t-1 53.5t6.5 27q3 3 28 -8t68.5 -25.5t105.5 -27t139 -12.5q55 1 102.5 5.5
t86.5 17.5t67.5 36.5t45.5 61.5q-32 73 -65 141.5t-67.5 138t-71 143.5t-75.5 159q28 48 52 87q10 16 20 31.5t19 28t15 20t9 7.5q7 0 29 -48t52.5 -129t68.5 -187t79 -222q19 -47 42 -96t50 -88.5t59.5 -65t72.5 -25.5h14zM512 96q22 0 48.5 -13t50.5 -38.5t41 -63.5
t19 -89q2 -38 -15 -69t-42.5 -53.5t-54.5 -34.5t-50 -12q-35 1 -62.5 17t-47 41t-30 55t-10.5 59q0 47 16.5 84.5t39.5 63.5t49.5 39.5t47.5 13.5zM506 -176q51 2 85 23.5t45 44.5q2 4 -7 21t-28 35t-46 32.5t-61 14.5q-13 0 -30 -5t-32 -15.5t-25.5 -25.5t-10.5 -35
q12 -46 40 -69t70 -21z" />
    <glyph glyph-name="uni068A.fina" unicode="&#x68a;" horiz-adv-x="1051" 
d="M1059 206v-206h-19q-44 1 -81.5 15t-69 35t-56 48t-40.5 54q-10 -14 -30.5 -38.5t-58 -48.5t-94.5 -41.5t-138 -17.5q-71 0 -131.5 6.5t-105 15.5t-70.5 17.5t-28 13.5q-13 25 -20 59t-9.5 64.5t-1 53.5t6.5 27q3 3 28 -8t68.5 -25.5t105.5 -27t139 -12.5q55 1 102.5 5.5
t86.5 17.5t67.5 36.5t45.5 61.5q-32 73 -65 141.5t-67.5 138t-71 143.5t-75.5 159q28 48 52 87q10 16 20 31.5t19 28t15 20t9 7.5q7 0 29 -48t52.5 -129t68.5 -187t79 -222q19 -47 42 -96t50 -88.5t59.5 -65t72.5 -25.5h14zM680 -263l-146 -146l-147 147l146 146z" />
    <glyph glyph-name="uni068B.fina" unicode="&#x68b;" horiz-adv-x="1051" 
d="M1059 206v-206h-19q-44 1 -81.5 15t-69 35t-56 48t-40.5 54q-10 -14 -30.5 -38.5t-58 -48.5t-94.5 -41.5t-138 -17.5q-71 0 -131.5 6.5t-105 15.5t-70.5 17.5t-28 13.5q-13 25 -20 59t-9.5 64.5t-1 53.5t6.5 27q3 3 28 -8t68.5 -25.5t105.5 -27t139 -12.5q55 1 102.5 5.5
t86.5 17.5t67.5 36.5t45.5 61.5q-32 73 -65 141.5t-67.5 138t-71 143.5t-75.5 159q28 48 52 87q10 16 20 31.5t19 28t15 20t9 7.5q7 0 29 -48t52.5 -129t68.5 -187t79 -222q19 -47 42 -96t50 -88.5t59.5 -65t72.5 -25.5h14zM661 -274l-146 -146l-147 147l146 146zM160 1269
q2 5 11 3q17 -3 37.5 -6l41 -6t39.5 -5t33 -2l35 45q8 14 12.5 35t6.5 41q3 23 3 47q-1 55 -4.5 118.5t-8.5 120.5t-10 99t-8 53q5 5 17.5 16.5t26 23.5t24.5 20.5t13 8.5t2.5 -3t1.5 -14q1 -12 2.5 -52.5t3.5 -92t3 -105t0 -90.5q0 -9 -1 -27t-4.5 -40.5t-10 -46.5
t-16.5 -43q29 37 67 78t79.5 75.5t83 56.5t77.5 22q41 0 69 -13.5t44.5 -34.5t24.5 -46.5t10.5 -50.5t0.5 -47t-5 -34q-10 -26 -21 -51q-9 -21 -18.5 -44t-17.5 -40q-12 -11 -36.5 -25.5t-60.5 -27t-81.5 -22t-99.5 -10.5q-24 0 -60 0.5t-75 2t-75 4t-60 6.5q-15 9 -32 24
t-31.5 31t-24 29.5t-8.5 18.5zM805 1331q3 10 5.5 26t2 35t-5 38t-17.5 34.5t-35 24.5t-56 8q-41 -2 -78 -17t-70 -37.5t-61.5 -50.5t-51 -55t-40 -50t-27.5 -37l65 -2.5t90 0.5q29 -1 70 4.5t81.5 16t75.5 26t52 36.5z" />
    </font>
</defs>
</svg>
